%TF.GenerationSoftware,KiCad,Pcbnew,5.99.0-76a6177eb7*%
%TF.CreationDate,2022-05-04T15:01:28+02:00*%
%TF.ProjectId,kicker-counter,6b69636b-6572-42d6-936f-756e7465722e,0.1.0*%
%TF.SameCoordinates,Original*%
%TF.FileFunction,Legend,Top*%
%TF.FilePolarity,Positive*%
%FSLAX46Y46*%
G04 Gerber Fmt 4.6, Leading zero omitted, Abs format (unit mm)*
G04 Created by KiCad (PCBNEW 5.99.0-76a6177eb7) date 2022-05-04 15:01:28*
%MOMM*%
%LPD*%
G01*
G04 APERTURE LIST*
%ADD10C,0.300000*%
%ADD11C,0.150000*%
%ADD12C,0.120000*%
G04 APERTURE END LIST*
D10*
X234785714Y-75678571D02*
X235142857Y-76678571D01*
X235500000Y-75678571D01*
X236357142Y-75178571D02*
X236500000Y-75178571D01*
X236642857Y-75250000D01*
X236714285Y-75321428D01*
X236785714Y-75464285D01*
X236857142Y-75750000D01*
X236857142Y-76107142D01*
X236785714Y-76392857D01*
X236714285Y-76535714D01*
X236642857Y-76607142D01*
X236500000Y-76678571D01*
X236357142Y-76678571D01*
X236214285Y-76607142D01*
X236142857Y-76535714D01*
X236071428Y-76392857D01*
X236000000Y-76107142D01*
X236000000Y-75750000D01*
X236071428Y-75464285D01*
X236142857Y-75321428D01*
X236214285Y-75250000D01*
X236357142Y-75178571D01*
X237500000Y-76535714D02*
X237571428Y-76607142D01*
X237500000Y-76678571D01*
X237428571Y-76607142D01*
X237500000Y-76535714D01*
X237500000Y-76678571D01*
X239000000Y-76678571D02*
X238142857Y-76678571D01*
X238571428Y-76678571D02*
X238571428Y-75178571D01*
X238428571Y-75392857D01*
X238285714Y-75535714D01*
X238142857Y-75607142D01*
X239642857Y-76535714D02*
X239714285Y-76607142D01*
X239642857Y-76678571D01*
X239571428Y-76607142D01*
X239642857Y-76535714D01*
X239642857Y-76678571D01*
X240642857Y-75178571D02*
X240785714Y-75178571D01*
X240928571Y-75250000D01*
X241000000Y-75321428D01*
X241071428Y-75464285D01*
X241142857Y-75750000D01*
X241142857Y-76107142D01*
X241071428Y-76392857D01*
X241000000Y-76535714D01*
X240928571Y-76607142D01*
X240785714Y-76678571D01*
X240642857Y-76678571D01*
X240500000Y-76607142D01*
X240428571Y-76535714D01*
X240357142Y-76392857D01*
X240285714Y-76107142D01*
X240285714Y-75750000D01*
X240357142Y-75464285D01*
X240428571Y-75321428D01*
X240500000Y-75250000D01*
X240642857Y-75178571D01*
D11*
%TO.C,D6*%
X141761904Y-78882380D02*
X141761904Y-77882380D01*
X142000000Y-77882380D01*
X142142857Y-77930000D01*
X142238095Y-78025238D01*
X142285714Y-78120476D01*
X142333333Y-78310952D01*
X142333333Y-78453809D01*
X142285714Y-78644285D01*
X142238095Y-78739523D01*
X142142857Y-78834761D01*
X142000000Y-78882380D01*
X141761904Y-78882380D01*
X143190476Y-77882380D02*
X143000000Y-77882380D01*
X142904761Y-77930000D01*
X142857142Y-77977619D01*
X142761904Y-78120476D01*
X142714285Y-78310952D01*
X142714285Y-78691904D01*
X142761904Y-78787142D01*
X142809523Y-78834761D01*
X142904761Y-78882380D01*
X143095238Y-78882380D01*
X143190476Y-78834761D01*
X143238095Y-78787142D01*
X143285714Y-78691904D01*
X143285714Y-78453809D01*
X143238095Y-78358571D01*
X143190476Y-78310952D01*
X143095238Y-78263333D01*
X142904761Y-78263333D01*
X142809523Y-78310952D01*
X142761904Y-78358571D01*
X142714285Y-78453809D01*
%TO.C,C4*%
X91833333Y-78857142D02*
X91785714Y-78904761D01*
X91642857Y-78952380D01*
X91547619Y-78952380D01*
X91404761Y-78904761D01*
X91309523Y-78809523D01*
X91261904Y-78714285D01*
X91214285Y-78523809D01*
X91214285Y-78380952D01*
X91261904Y-78190476D01*
X91309523Y-78095238D01*
X91404761Y-78000000D01*
X91547619Y-77952380D01*
X91642857Y-77952380D01*
X91785714Y-78000000D01*
X91833333Y-78047619D01*
X92690476Y-78285714D02*
X92690476Y-78952380D01*
X92452380Y-77904761D02*
X92214285Y-78619047D01*
X92833333Y-78619047D01*
%TO.C,C7*%
X157833333Y-78857142D02*
X157785714Y-78904761D01*
X157642857Y-78952380D01*
X157547619Y-78952380D01*
X157404761Y-78904761D01*
X157309523Y-78809523D01*
X157261904Y-78714285D01*
X157214285Y-78523809D01*
X157214285Y-78380952D01*
X157261904Y-78190476D01*
X157309523Y-78095238D01*
X157404761Y-78000000D01*
X157547619Y-77952380D01*
X157642857Y-77952380D01*
X157785714Y-78000000D01*
X157833333Y-78047619D01*
X158166666Y-77952380D02*
X158833333Y-77952380D01*
X158404761Y-78952380D01*
%TO.C,TP2*%
X264857142Y-74642976D02*
X264904761Y-74690595D01*
X264952380Y-74833452D01*
X264952380Y-74928690D01*
X264904761Y-75071547D01*
X264809523Y-75166785D01*
X264714285Y-75214404D01*
X264523809Y-75262023D01*
X264380952Y-75262023D01*
X264190476Y-75214404D01*
X264095238Y-75166785D01*
X264000000Y-75071547D01*
X263952380Y-74928690D01*
X263952380Y-74833452D01*
X264000000Y-74690595D01*
X264047619Y-74642976D01*
X264952380Y-73738214D02*
X264952380Y-74214404D01*
X263952380Y-74214404D01*
X264952380Y-73404880D02*
X263952380Y-73404880D01*
X264952380Y-72833452D02*
X264380952Y-73262023D01*
X263952380Y-72833452D02*
X264523809Y-73404880D01*
%TO.C,C3*%
X69833333Y-78857142D02*
X69785714Y-78904761D01*
X69642857Y-78952380D01*
X69547619Y-78952380D01*
X69404761Y-78904761D01*
X69309523Y-78809523D01*
X69261904Y-78714285D01*
X69214285Y-78523809D01*
X69214285Y-78380952D01*
X69261904Y-78190476D01*
X69309523Y-78095238D01*
X69404761Y-78000000D01*
X69547619Y-77952380D01*
X69642857Y-77952380D01*
X69785714Y-78000000D01*
X69833333Y-78047619D01*
X70166666Y-77952380D02*
X70785714Y-77952380D01*
X70452380Y-78333333D01*
X70595238Y-78333333D01*
X70690476Y-78380952D01*
X70738095Y-78428571D01*
X70785714Y-78523809D01*
X70785714Y-78761904D01*
X70738095Y-78857142D01*
X70690476Y-78904761D01*
X70595238Y-78952380D01*
X70309523Y-78952380D01*
X70214285Y-78904761D01*
X70166666Y-78857142D01*
%TO.C,R5*%
X120333333Y-74022380D02*
X120000000Y-73546190D01*
X119761904Y-74022380D02*
X119761904Y-73022380D01*
X120142857Y-73022380D01*
X120238095Y-73070000D01*
X120285714Y-73117619D01*
X120333333Y-73212857D01*
X120333333Y-73355714D01*
X120285714Y-73450952D01*
X120238095Y-73498571D01*
X120142857Y-73546190D01*
X119761904Y-73546190D01*
X121238095Y-73022380D02*
X120761904Y-73022380D01*
X120714285Y-73498571D01*
X120761904Y-73450952D01*
X120857142Y-73403333D01*
X121095238Y-73403333D01*
X121190476Y-73450952D01*
X121238095Y-73498571D01*
X121285714Y-73593809D01*
X121285714Y-73831904D01*
X121238095Y-73927142D01*
X121190476Y-73974761D01*
X121095238Y-74022380D01*
X120857142Y-74022380D01*
X120761904Y-73974761D01*
X120714285Y-73927142D01*
%TO.C,D10*%
X229285714Y-78882380D02*
X229285714Y-77882380D01*
X229523809Y-77882380D01*
X229666666Y-77930000D01*
X229761904Y-78025238D01*
X229809523Y-78120476D01*
X229857142Y-78310952D01*
X229857142Y-78453809D01*
X229809523Y-78644285D01*
X229761904Y-78739523D01*
X229666666Y-78834761D01*
X229523809Y-78882380D01*
X229285714Y-78882380D01*
X230809523Y-78882380D02*
X230238095Y-78882380D01*
X230523809Y-78882380D02*
X230523809Y-77882380D01*
X230428571Y-78025238D01*
X230333333Y-78120476D01*
X230238095Y-78168095D01*
X231428571Y-77882380D02*
X231523809Y-77882380D01*
X231619047Y-77930000D01*
X231666666Y-77977619D01*
X231714285Y-78072857D01*
X231761904Y-78263333D01*
X231761904Y-78501428D01*
X231714285Y-78691904D01*
X231666666Y-78787142D01*
X231619047Y-78834761D01*
X231523809Y-78882380D01*
X231428571Y-78882380D01*
X231333333Y-78834761D01*
X231285714Y-78787142D01*
X231238095Y-78691904D01*
X231190476Y-78501428D01*
X231190476Y-78263333D01*
X231238095Y-78072857D01*
X231285714Y-77977619D01*
X231333333Y-77930000D01*
X231428571Y-77882380D01*
%TO.C,R12*%
X273857142Y-74022380D02*
X273523809Y-73546190D01*
X273285714Y-74022380D02*
X273285714Y-73022380D01*
X273666666Y-73022380D01*
X273761904Y-73070000D01*
X273809523Y-73117619D01*
X273857142Y-73212857D01*
X273857142Y-73355714D01*
X273809523Y-73450952D01*
X273761904Y-73498571D01*
X273666666Y-73546190D01*
X273285714Y-73546190D01*
X274809523Y-74022380D02*
X274238095Y-74022380D01*
X274523809Y-74022380D02*
X274523809Y-73022380D01*
X274428571Y-73165238D01*
X274333333Y-73260476D01*
X274238095Y-73308095D01*
X275190476Y-73117619D02*
X275238095Y-73070000D01*
X275333333Y-73022380D01*
X275571428Y-73022380D01*
X275666666Y-73070000D01*
X275714285Y-73117619D01*
X275761904Y-73212857D01*
X275761904Y-73308095D01*
X275714285Y-73450952D01*
X275142857Y-74022380D01*
X275761904Y-74022380D01*
%TO.C,D11*%
X251285714Y-78882380D02*
X251285714Y-77882380D01*
X251523809Y-77882380D01*
X251666666Y-77930000D01*
X251761904Y-78025238D01*
X251809523Y-78120476D01*
X251857142Y-78310952D01*
X251857142Y-78453809D01*
X251809523Y-78644285D01*
X251761904Y-78739523D01*
X251666666Y-78834761D01*
X251523809Y-78882380D01*
X251285714Y-78882380D01*
X252809523Y-78882380D02*
X252238095Y-78882380D01*
X252523809Y-78882380D02*
X252523809Y-77882380D01*
X252428571Y-78025238D01*
X252333333Y-78120476D01*
X252238095Y-78168095D01*
X253761904Y-78882380D02*
X253190476Y-78882380D01*
X253476190Y-78882380D02*
X253476190Y-77882380D01*
X253380952Y-78025238D01*
X253285714Y-78120476D01*
X253190476Y-78168095D01*
%TO.C,D2*%
X53761904Y-78882380D02*
X53761904Y-77882380D01*
X54000000Y-77882380D01*
X54142857Y-77930000D01*
X54238095Y-78025238D01*
X54285714Y-78120476D01*
X54333333Y-78310952D01*
X54333333Y-78453809D01*
X54285714Y-78644285D01*
X54238095Y-78739523D01*
X54142857Y-78834761D01*
X54000000Y-78882380D01*
X53761904Y-78882380D01*
X54714285Y-77977619D02*
X54761904Y-77930000D01*
X54857142Y-77882380D01*
X55095238Y-77882380D01*
X55190476Y-77930000D01*
X55238095Y-77977619D01*
X55285714Y-78072857D01*
X55285714Y-78168095D01*
X55238095Y-78310952D01*
X54666666Y-78882380D01*
X55285714Y-78882380D01*
%TO.C,TP1*%
X266952380Y-75357261D02*
X267952380Y-75023928D01*
X266952380Y-74690595D01*
X267857142Y-73785833D02*
X267904761Y-73833452D01*
X267952380Y-73976309D01*
X267952380Y-74071547D01*
X267904761Y-74214404D01*
X267809523Y-74309642D01*
X267714285Y-74357261D01*
X267523809Y-74404880D01*
X267380952Y-74404880D01*
X267190476Y-74357261D01*
X267095238Y-74309642D01*
X267000000Y-74214404D01*
X266952380Y-74071547D01*
X266952380Y-73976309D01*
X267000000Y-73833452D01*
X267047619Y-73785833D01*
X267857142Y-72785833D02*
X267904761Y-72833452D01*
X267952380Y-72976309D01*
X267952380Y-73071547D01*
X267904761Y-73214404D01*
X267809523Y-73309642D01*
X267714285Y-73357261D01*
X267523809Y-73404880D01*
X267380952Y-73404880D01*
X267190476Y-73357261D01*
X267095238Y-73309642D01*
X267000000Y-73214404D01*
X266952380Y-73071547D01*
X266952380Y-72976309D01*
X267000000Y-72833452D01*
X267047619Y-72785833D01*
%TO.C,U14*%
X194761904Y-78902380D02*
X194761904Y-79711904D01*
X194809523Y-79807142D01*
X194857142Y-79854761D01*
X194952380Y-79902380D01*
X195142857Y-79902380D01*
X195238095Y-79854761D01*
X195285714Y-79807142D01*
X195333333Y-79711904D01*
X195333333Y-78902380D01*
X196333333Y-79902380D02*
X195761904Y-79902380D01*
X196047619Y-79902380D02*
X196047619Y-78902380D01*
X195952380Y-79045238D01*
X195857142Y-79140476D01*
X195761904Y-79188095D01*
X197190476Y-79235714D02*
X197190476Y-79902380D01*
X196952380Y-78854761D02*
X196714285Y-79569047D01*
X197333333Y-79569047D01*
%TO.C,U4*%
X94238095Y-72952380D02*
X94238095Y-73761904D01*
X94285714Y-73857142D01*
X94333333Y-73904761D01*
X94428571Y-73952380D01*
X94619047Y-73952380D01*
X94714285Y-73904761D01*
X94761904Y-73857142D01*
X94809523Y-73761904D01*
X94809523Y-72952380D01*
X95714285Y-73285714D02*
X95714285Y-73952380D01*
X95476190Y-72904761D02*
X95238095Y-73619047D01*
X95857142Y-73619047D01*
%TO.C,C9*%
X201833333Y-78857142D02*
X201785714Y-78904761D01*
X201642857Y-78952380D01*
X201547619Y-78952380D01*
X201404761Y-78904761D01*
X201309523Y-78809523D01*
X201261904Y-78714285D01*
X201214285Y-78523809D01*
X201214285Y-78380952D01*
X201261904Y-78190476D01*
X201309523Y-78095238D01*
X201404761Y-78000000D01*
X201547619Y-77952380D01*
X201642857Y-77952380D01*
X201785714Y-78000000D01*
X201833333Y-78047619D01*
X202309523Y-78952380D02*
X202500000Y-78952380D01*
X202595238Y-78904761D01*
X202642857Y-78857142D01*
X202738095Y-78714285D01*
X202785714Y-78523809D01*
X202785714Y-78142857D01*
X202738095Y-78047619D01*
X202690476Y-78000000D01*
X202595238Y-77952380D01*
X202404761Y-77952380D01*
X202309523Y-78000000D01*
X202261904Y-78047619D01*
X202214285Y-78142857D01*
X202214285Y-78380952D01*
X202261904Y-78476190D01*
X202309523Y-78523809D01*
X202404761Y-78571428D01*
X202595238Y-78571428D01*
X202690476Y-78523809D01*
X202738095Y-78476190D01*
X202785714Y-78380952D01*
%TO.C,U7*%
X160238095Y-72952380D02*
X160238095Y-73761904D01*
X160285714Y-73857142D01*
X160333333Y-73904761D01*
X160428571Y-73952380D01*
X160619047Y-73952380D01*
X160714285Y-73904761D01*
X160761904Y-73857142D01*
X160809523Y-73761904D01*
X160809523Y-72952380D01*
X161190476Y-72952380D02*
X161857142Y-72952380D01*
X161428571Y-73952380D01*
%TO.C,C6*%
X135833333Y-78857142D02*
X135785714Y-78904761D01*
X135642857Y-78952380D01*
X135547619Y-78952380D01*
X135404761Y-78904761D01*
X135309523Y-78809523D01*
X135261904Y-78714285D01*
X135214285Y-78523809D01*
X135214285Y-78380952D01*
X135261904Y-78190476D01*
X135309523Y-78095238D01*
X135404761Y-78000000D01*
X135547619Y-77952380D01*
X135642857Y-77952380D01*
X135785714Y-78000000D01*
X135833333Y-78047619D01*
X136690476Y-77952380D02*
X136500000Y-77952380D01*
X136404761Y-78000000D01*
X136357142Y-78047619D01*
X136261904Y-78190476D01*
X136214285Y-78380952D01*
X136214285Y-78761904D01*
X136261904Y-78857142D01*
X136309523Y-78904761D01*
X136404761Y-78952380D01*
X136595238Y-78952380D01*
X136690476Y-78904761D01*
X136738095Y-78857142D01*
X136785714Y-78761904D01*
X136785714Y-78523809D01*
X136738095Y-78428571D01*
X136690476Y-78380952D01*
X136595238Y-78333333D01*
X136404761Y-78333333D01*
X136309523Y-78380952D01*
X136261904Y-78428571D01*
X136214285Y-78523809D01*
%TO.C,R10*%
X229857142Y-74022380D02*
X229523809Y-73546190D01*
X229285714Y-74022380D02*
X229285714Y-73022380D01*
X229666666Y-73022380D01*
X229761904Y-73070000D01*
X229809523Y-73117619D01*
X229857142Y-73212857D01*
X229857142Y-73355714D01*
X229809523Y-73450952D01*
X229761904Y-73498571D01*
X229666666Y-73546190D01*
X229285714Y-73546190D01*
X230809523Y-74022380D02*
X230238095Y-74022380D01*
X230523809Y-74022380D02*
X230523809Y-73022380D01*
X230428571Y-73165238D01*
X230333333Y-73260476D01*
X230238095Y-73308095D01*
X231428571Y-73022380D02*
X231523809Y-73022380D01*
X231619047Y-73070000D01*
X231666666Y-73117619D01*
X231714285Y-73212857D01*
X231761904Y-73403333D01*
X231761904Y-73641428D01*
X231714285Y-73831904D01*
X231666666Y-73927142D01*
X231619047Y-73974761D01*
X231523809Y-74022380D01*
X231428571Y-74022380D01*
X231333333Y-73974761D01*
X231285714Y-73927142D01*
X231238095Y-73831904D01*
X231190476Y-73641428D01*
X231190476Y-73403333D01*
X231238095Y-73212857D01*
X231285714Y-73117619D01*
X231333333Y-73070000D01*
X231428571Y-73022380D01*
%TO.C,R8*%
X186333333Y-74022380D02*
X186000000Y-73546190D01*
X185761904Y-74022380D02*
X185761904Y-73022380D01*
X186142857Y-73022380D01*
X186238095Y-73070000D01*
X186285714Y-73117619D01*
X186333333Y-73212857D01*
X186333333Y-73355714D01*
X186285714Y-73450952D01*
X186238095Y-73498571D01*
X186142857Y-73546190D01*
X185761904Y-73546190D01*
X186904761Y-73450952D02*
X186809523Y-73403333D01*
X186761904Y-73355714D01*
X186714285Y-73260476D01*
X186714285Y-73212857D01*
X186761904Y-73117619D01*
X186809523Y-73070000D01*
X186904761Y-73022380D01*
X187095238Y-73022380D01*
X187190476Y-73070000D01*
X187238095Y-73117619D01*
X187285714Y-73212857D01*
X187285714Y-73260476D01*
X187238095Y-73355714D01*
X187190476Y-73403333D01*
X187095238Y-73450952D01*
X186904761Y-73450952D01*
X186809523Y-73498571D01*
X186761904Y-73546190D01*
X186714285Y-73641428D01*
X186714285Y-73831904D01*
X186761904Y-73927142D01*
X186809523Y-73974761D01*
X186904761Y-74022380D01*
X187095238Y-74022380D01*
X187190476Y-73974761D01*
X187238095Y-73927142D01*
X187285714Y-73831904D01*
X187285714Y-73641428D01*
X187238095Y-73546190D01*
X187190476Y-73498571D01*
X187095238Y-73450952D01*
%TO.C,D3*%
X75761904Y-78882380D02*
X75761904Y-77882380D01*
X76000000Y-77882380D01*
X76142857Y-77930000D01*
X76238095Y-78025238D01*
X76285714Y-78120476D01*
X76333333Y-78310952D01*
X76333333Y-78453809D01*
X76285714Y-78644285D01*
X76238095Y-78739523D01*
X76142857Y-78834761D01*
X76000000Y-78882380D01*
X75761904Y-78882380D01*
X76666666Y-77882380D02*
X77285714Y-77882380D01*
X76952380Y-78263333D01*
X77095238Y-78263333D01*
X77190476Y-78310952D01*
X77238095Y-78358571D01*
X77285714Y-78453809D01*
X77285714Y-78691904D01*
X77238095Y-78787142D01*
X77190476Y-78834761D01*
X77095238Y-78882380D01*
X76809523Y-78882380D01*
X76714285Y-78834761D01*
X76666666Y-78787142D01*
%TO.C,C8*%
X179833333Y-78857142D02*
X179785714Y-78904761D01*
X179642857Y-78952380D01*
X179547619Y-78952380D01*
X179404761Y-78904761D01*
X179309523Y-78809523D01*
X179261904Y-78714285D01*
X179214285Y-78523809D01*
X179214285Y-78380952D01*
X179261904Y-78190476D01*
X179309523Y-78095238D01*
X179404761Y-78000000D01*
X179547619Y-77952380D01*
X179642857Y-77952380D01*
X179785714Y-78000000D01*
X179833333Y-78047619D01*
X180404761Y-78380952D02*
X180309523Y-78333333D01*
X180261904Y-78285714D01*
X180214285Y-78190476D01*
X180214285Y-78142857D01*
X180261904Y-78047619D01*
X180309523Y-78000000D01*
X180404761Y-77952380D01*
X180595238Y-77952380D01*
X180690476Y-78000000D01*
X180738095Y-78047619D01*
X180785714Y-78142857D01*
X180785714Y-78190476D01*
X180738095Y-78285714D01*
X180690476Y-78333333D01*
X180595238Y-78380952D01*
X180404761Y-78380952D01*
X180309523Y-78428571D01*
X180261904Y-78476190D01*
X180214285Y-78571428D01*
X180214285Y-78761904D01*
X180261904Y-78857142D01*
X180309523Y-78904761D01*
X180404761Y-78952380D01*
X180595238Y-78952380D01*
X180690476Y-78904761D01*
X180738095Y-78857142D01*
X180785714Y-78761904D01*
X180785714Y-78571428D01*
X180738095Y-78476190D01*
X180690476Y-78428571D01*
X180595238Y-78380952D01*
%TO.C,U6*%
X138238095Y-72952380D02*
X138238095Y-73761904D01*
X138285714Y-73857142D01*
X138333333Y-73904761D01*
X138428571Y-73952380D01*
X138619047Y-73952380D01*
X138714285Y-73904761D01*
X138761904Y-73857142D01*
X138809523Y-73761904D01*
X138809523Y-72952380D01*
X139714285Y-72952380D02*
X139523809Y-72952380D01*
X139428571Y-73000000D01*
X139380952Y-73047619D01*
X139285714Y-73190476D01*
X139238095Y-73380952D01*
X139238095Y-73761904D01*
X139285714Y-73857142D01*
X139333333Y-73904761D01*
X139428571Y-73952380D01*
X139619047Y-73952380D01*
X139714285Y-73904761D01*
X139761904Y-73857142D01*
X139809523Y-73761904D01*
X139809523Y-73523809D01*
X139761904Y-73428571D01*
X139714285Y-73380952D01*
X139619047Y-73333333D01*
X139428571Y-73333333D01*
X139333333Y-73380952D01*
X139285714Y-73428571D01*
X139238095Y-73523809D01*
%TO.C,TP5*%
X255000000Y-74690595D02*
X254952380Y-74785833D01*
X254952380Y-74928690D01*
X255000000Y-75071547D01*
X255095238Y-75166785D01*
X255190476Y-75214404D01*
X255380952Y-75262023D01*
X255523809Y-75262023D01*
X255714285Y-75214404D01*
X255809523Y-75166785D01*
X255904761Y-75071547D01*
X255952380Y-74928690D01*
X255952380Y-74833452D01*
X255904761Y-74690595D01*
X255857142Y-74642976D01*
X255523809Y-74642976D01*
X255523809Y-74833452D01*
X255952380Y-74214404D02*
X254952380Y-74214404D01*
X255952380Y-73642976D01*
X254952380Y-73642976D01*
X255952380Y-73166785D02*
X254952380Y-73166785D01*
X254952380Y-72928690D01*
X255000000Y-72785833D01*
X255095238Y-72690595D01*
X255190476Y-72642976D01*
X255380952Y-72595357D01*
X255523809Y-72595357D01*
X255714285Y-72642976D01*
X255809523Y-72690595D01*
X255904761Y-72785833D01*
X255952380Y-72928690D01*
X255952380Y-73166785D01*
%TO.C,D8*%
X185761904Y-78882380D02*
X185761904Y-77882380D01*
X186000000Y-77882380D01*
X186142857Y-77930000D01*
X186238095Y-78025238D01*
X186285714Y-78120476D01*
X186333333Y-78310952D01*
X186333333Y-78453809D01*
X186285714Y-78644285D01*
X186238095Y-78739523D01*
X186142857Y-78834761D01*
X186000000Y-78882380D01*
X185761904Y-78882380D01*
X186904761Y-78310952D02*
X186809523Y-78263333D01*
X186761904Y-78215714D01*
X186714285Y-78120476D01*
X186714285Y-78072857D01*
X186761904Y-77977619D01*
X186809523Y-77930000D01*
X186904761Y-77882380D01*
X187095238Y-77882380D01*
X187190476Y-77930000D01*
X187238095Y-77977619D01*
X187285714Y-78072857D01*
X187285714Y-78120476D01*
X187238095Y-78215714D01*
X187190476Y-78263333D01*
X187095238Y-78310952D01*
X186904761Y-78310952D01*
X186809523Y-78358571D01*
X186761904Y-78406190D01*
X186714285Y-78501428D01*
X186714285Y-78691904D01*
X186761904Y-78787142D01*
X186809523Y-78834761D01*
X186904761Y-78882380D01*
X187095238Y-78882380D01*
X187190476Y-78834761D01*
X187238095Y-78787142D01*
X187285714Y-78691904D01*
X187285714Y-78501428D01*
X187238095Y-78406190D01*
X187190476Y-78358571D01*
X187095238Y-78310952D01*
%TO.C,TP3*%
X261952380Y-75214404D02*
X260952380Y-75214404D01*
X260952380Y-74976309D01*
X261000000Y-74833452D01*
X261095238Y-74738214D01*
X261190476Y-74690595D01*
X261380952Y-74642976D01*
X261523809Y-74642976D01*
X261714285Y-74690595D01*
X261809523Y-74738214D01*
X261904761Y-74833452D01*
X261952380Y-74976309D01*
X261952380Y-75214404D01*
X260952380Y-74023928D02*
X260952380Y-73833452D01*
X261000000Y-73738214D01*
X261095238Y-73642976D01*
X261285714Y-73595357D01*
X261619047Y-73595357D01*
X261809523Y-73642976D01*
X261904761Y-73738214D01*
X261952380Y-73833452D01*
X261952380Y-74023928D01*
X261904761Y-74119166D01*
X261809523Y-74214404D01*
X261619047Y-74262023D01*
X261285714Y-74262023D01*
X261095238Y-74214404D01*
X261000000Y-74119166D01*
X260952380Y-74023928D01*
%TO.C,U8*%
X182238095Y-72952380D02*
X182238095Y-73761904D01*
X182285714Y-73857142D01*
X182333333Y-73904761D01*
X182428571Y-73952380D01*
X182619047Y-73952380D01*
X182714285Y-73904761D01*
X182761904Y-73857142D01*
X182809523Y-73761904D01*
X182809523Y-72952380D01*
X183428571Y-73380952D02*
X183333333Y-73333333D01*
X183285714Y-73285714D01*
X183238095Y-73190476D01*
X183238095Y-73142857D01*
X183285714Y-73047619D01*
X183333333Y-73000000D01*
X183428571Y-72952380D01*
X183619047Y-72952380D01*
X183714285Y-73000000D01*
X183761904Y-73047619D01*
X183809523Y-73142857D01*
X183809523Y-73190476D01*
X183761904Y-73285714D01*
X183714285Y-73333333D01*
X183619047Y-73380952D01*
X183428571Y-73380952D01*
X183333333Y-73428571D01*
X183285714Y-73476190D01*
X183238095Y-73571428D01*
X183238095Y-73761904D01*
X183285714Y-73857142D01*
X183333333Y-73904761D01*
X183428571Y-73952380D01*
X183619047Y-73952380D01*
X183714285Y-73904761D01*
X183761904Y-73857142D01*
X183809523Y-73761904D01*
X183809523Y-73571428D01*
X183761904Y-73476190D01*
X183714285Y-73428571D01*
X183619047Y-73380952D01*
%TO.C,U1*%
X28238095Y-72952380D02*
X28238095Y-73761904D01*
X28285714Y-73857142D01*
X28333333Y-73904761D01*
X28428571Y-73952380D01*
X28619047Y-73952380D01*
X28714285Y-73904761D01*
X28761904Y-73857142D01*
X28809523Y-73761904D01*
X28809523Y-72952380D01*
X29809523Y-73952380D02*
X29238095Y-73952380D01*
X29523809Y-73952380D02*
X29523809Y-72952380D01*
X29428571Y-73095238D01*
X29333333Y-73190476D01*
X29238095Y-73238095D01*
%TO.C,R7*%
X164333333Y-74022380D02*
X164000000Y-73546190D01*
X163761904Y-74022380D02*
X163761904Y-73022380D01*
X164142857Y-73022380D01*
X164238095Y-73070000D01*
X164285714Y-73117619D01*
X164333333Y-73212857D01*
X164333333Y-73355714D01*
X164285714Y-73450952D01*
X164238095Y-73498571D01*
X164142857Y-73546190D01*
X163761904Y-73546190D01*
X164666666Y-73022380D02*
X165333333Y-73022380D01*
X164904761Y-74022380D01*
%TO.C,U3*%
X72238095Y-72952380D02*
X72238095Y-73761904D01*
X72285714Y-73857142D01*
X72333333Y-73904761D01*
X72428571Y-73952380D01*
X72619047Y-73952380D01*
X72714285Y-73904761D01*
X72761904Y-73857142D01*
X72809523Y-73761904D01*
X72809523Y-72952380D01*
X73190476Y-72952380D02*
X73809523Y-72952380D01*
X73476190Y-73333333D01*
X73619047Y-73333333D01*
X73714285Y-73380952D01*
X73761904Y-73428571D01*
X73809523Y-73523809D01*
X73809523Y-73761904D01*
X73761904Y-73857142D01*
X73714285Y-73904761D01*
X73619047Y-73952380D01*
X73333333Y-73952380D01*
X73238095Y-73904761D01*
X73190476Y-73857142D01*
%TO.C,U9*%
X204238095Y-72952380D02*
X204238095Y-73761904D01*
X204285714Y-73857142D01*
X204333333Y-73904761D01*
X204428571Y-73952380D01*
X204619047Y-73952380D01*
X204714285Y-73904761D01*
X204761904Y-73857142D01*
X204809523Y-73761904D01*
X204809523Y-72952380D01*
X205333333Y-73952380D02*
X205523809Y-73952380D01*
X205619047Y-73904761D01*
X205666666Y-73857142D01*
X205761904Y-73714285D01*
X205809523Y-73523809D01*
X205809523Y-73142857D01*
X205761904Y-73047619D01*
X205714285Y-73000000D01*
X205619047Y-72952380D01*
X205428571Y-72952380D01*
X205333333Y-73000000D01*
X205285714Y-73047619D01*
X205238095Y-73142857D01*
X205238095Y-73380952D01*
X205285714Y-73476190D01*
X205333333Y-73523809D01*
X205428571Y-73571428D01*
X205619047Y-73571428D01*
X205714285Y-73523809D01*
X205761904Y-73476190D01*
X205809523Y-73380952D01*
%TO.C,U12*%
X269761904Y-72952380D02*
X269761904Y-73761904D01*
X269809523Y-73857142D01*
X269857142Y-73904761D01*
X269952380Y-73952380D01*
X270142857Y-73952380D01*
X270238095Y-73904761D01*
X270285714Y-73857142D01*
X270333333Y-73761904D01*
X270333333Y-72952380D01*
X271333333Y-73952380D02*
X270761904Y-73952380D01*
X271047619Y-73952380D02*
X271047619Y-72952380D01*
X270952380Y-73095238D01*
X270857142Y-73190476D01*
X270761904Y-73238095D01*
X271714285Y-73047619D02*
X271761904Y-73000000D01*
X271857142Y-72952380D01*
X272095238Y-72952380D01*
X272190476Y-73000000D01*
X272238095Y-73047619D01*
X272285714Y-73142857D01*
X272285714Y-73238095D01*
X272238095Y-73380952D01*
X271666666Y-73952380D01*
X272285714Y-73952380D01*
%TO.C,R6*%
X142333333Y-74022380D02*
X142000000Y-73546190D01*
X141761904Y-74022380D02*
X141761904Y-73022380D01*
X142142857Y-73022380D01*
X142238095Y-73070000D01*
X142285714Y-73117619D01*
X142333333Y-73212857D01*
X142333333Y-73355714D01*
X142285714Y-73450952D01*
X142238095Y-73498571D01*
X142142857Y-73546190D01*
X141761904Y-73546190D01*
X143190476Y-73022380D02*
X143000000Y-73022380D01*
X142904761Y-73070000D01*
X142857142Y-73117619D01*
X142761904Y-73260476D01*
X142714285Y-73450952D01*
X142714285Y-73831904D01*
X142761904Y-73927142D01*
X142809523Y-73974761D01*
X142904761Y-74022380D01*
X143095238Y-74022380D01*
X143190476Y-73974761D01*
X143238095Y-73927142D01*
X143285714Y-73831904D01*
X143285714Y-73593809D01*
X143238095Y-73498571D01*
X143190476Y-73450952D01*
X143095238Y-73403333D01*
X142904761Y-73403333D01*
X142809523Y-73450952D01*
X142761904Y-73498571D01*
X142714285Y-73593809D01*
%TO.C,C1*%
X26333333Y-78857142D02*
X26285714Y-78904761D01*
X26142857Y-78952380D01*
X26047619Y-78952380D01*
X25904761Y-78904761D01*
X25809523Y-78809523D01*
X25761904Y-78714285D01*
X25714285Y-78523809D01*
X25714285Y-78380952D01*
X25761904Y-78190476D01*
X25809523Y-78095238D01*
X25904761Y-78000000D01*
X26047619Y-77952380D01*
X26142857Y-77952380D01*
X26285714Y-78000000D01*
X26333333Y-78047619D01*
X27285714Y-78952380D02*
X26714285Y-78952380D01*
X27000000Y-78952380D02*
X27000000Y-77952380D01*
X26904761Y-78095238D01*
X26809523Y-78190476D01*
X26714285Y-78238095D01*
%TO.C,C15*%
X261357142Y-78857142D02*
X261309523Y-78904761D01*
X261166666Y-78952380D01*
X261071428Y-78952380D01*
X260928571Y-78904761D01*
X260833333Y-78809523D01*
X260785714Y-78714285D01*
X260738095Y-78523809D01*
X260738095Y-78380952D01*
X260785714Y-78190476D01*
X260833333Y-78095238D01*
X260928571Y-78000000D01*
X261071428Y-77952380D01*
X261166666Y-77952380D01*
X261309523Y-78000000D01*
X261357142Y-78047619D01*
X262309523Y-78952380D02*
X261738095Y-78952380D01*
X262023809Y-78952380D02*
X262023809Y-77952380D01*
X261928571Y-78095238D01*
X261833333Y-78190476D01*
X261738095Y-78238095D01*
X263214285Y-77952380D02*
X262738095Y-77952380D01*
X262690476Y-78428571D01*
X262738095Y-78380952D01*
X262833333Y-78333333D01*
X263071428Y-78333333D01*
X263166666Y-78380952D01*
X263214285Y-78428571D01*
X263261904Y-78523809D01*
X263261904Y-78761904D01*
X263214285Y-78857142D01*
X263166666Y-78904761D01*
X263071428Y-78952380D01*
X262833333Y-78952380D01*
X262738095Y-78904761D01*
X262690476Y-78857142D01*
%TO.C,C5*%
X113833333Y-78857142D02*
X113785714Y-78904761D01*
X113642857Y-78952380D01*
X113547619Y-78952380D01*
X113404761Y-78904761D01*
X113309523Y-78809523D01*
X113261904Y-78714285D01*
X113214285Y-78523809D01*
X113214285Y-78380952D01*
X113261904Y-78190476D01*
X113309523Y-78095238D01*
X113404761Y-78000000D01*
X113547619Y-77952380D01*
X113642857Y-77952380D01*
X113785714Y-78000000D01*
X113833333Y-78047619D01*
X114738095Y-77952380D02*
X114261904Y-77952380D01*
X114214285Y-78428571D01*
X114261904Y-78380952D01*
X114357142Y-78333333D01*
X114595238Y-78333333D01*
X114690476Y-78380952D01*
X114738095Y-78428571D01*
X114785714Y-78523809D01*
X114785714Y-78761904D01*
X114738095Y-78857142D01*
X114690476Y-78904761D01*
X114595238Y-78952380D01*
X114357142Y-78952380D01*
X114261904Y-78904761D01*
X114214285Y-78857142D01*
%TO.C,D4*%
X97761904Y-78952380D02*
X97761904Y-77952380D01*
X98000000Y-77952380D01*
X98142857Y-78000000D01*
X98238095Y-78095238D01*
X98285714Y-78190476D01*
X98333333Y-78380952D01*
X98333333Y-78523809D01*
X98285714Y-78714285D01*
X98238095Y-78809523D01*
X98142857Y-78904761D01*
X98000000Y-78952380D01*
X97761904Y-78952380D01*
X99190476Y-78285714D02*
X99190476Y-78952380D01*
X98952380Y-77904761D02*
X98714285Y-78619047D01*
X99333333Y-78619047D01*
%TO.C,U2*%
X50238095Y-72952380D02*
X50238095Y-73761904D01*
X50285714Y-73857142D01*
X50333333Y-73904761D01*
X50428571Y-73952380D01*
X50619047Y-73952380D01*
X50714285Y-73904761D01*
X50761904Y-73857142D01*
X50809523Y-73761904D01*
X50809523Y-72952380D01*
X51238095Y-73047619D02*
X51285714Y-73000000D01*
X51380952Y-72952380D01*
X51619047Y-72952380D01*
X51714285Y-73000000D01*
X51761904Y-73047619D01*
X51809523Y-73142857D01*
X51809523Y-73238095D01*
X51761904Y-73380952D01*
X51190476Y-73952380D01*
X51809523Y-73952380D01*
%TO.C,C10*%
X223357142Y-78857142D02*
X223309523Y-78904761D01*
X223166666Y-78952380D01*
X223071428Y-78952380D01*
X222928571Y-78904761D01*
X222833333Y-78809523D01*
X222785714Y-78714285D01*
X222738095Y-78523809D01*
X222738095Y-78380952D01*
X222785714Y-78190476D01*
X222833333Y-78095238D01*
X222928571Y-78000000D01*
X223071428Y-77952380D01*
X223166666Y-77952380D01*
X223309523Y-78000000D01*
X223357142Y-78047619D01*
X224309523Y-78952380D02*
X223738095Y-78952380D01*
X224023809Y-78952380D02*
X224023809Y-77952380D01*
X223928571Y-78095238D01*
X223833333Y-78190476D01*
X223738095Y-78238095D01*
X224928571Y-77952380D02*
X225023809Y-77952380D01*
X225119047Y-78000000D01*
X225166666Y-78047619D01*
X225214285Y-78142857D01*
X225261904Y-78333333D01*
X225261904Y-78571428D01*
X225214285Y-78761904D01*
X225166666Y-78857142D01*
X225119047Y-78904761D01*
X225023809Y-78952380D01*
X224928571Y-78952380D01*
X224833333Y-78904761D01*
X224785714Y-78857142D01*
X224738095Y-78761904D01*
X224690476Y-78571428D01*
X224690476Y-78333333D01*
X224738095Y-78142857D01*
X224785714Y-78047619D01*
X224833333Y-78000000D01*
X224928571Y-77952380D01*
%TO.C,R9*%
X208333333Y-74022380D02*
X208000000Y-73546190D01*
X207761904Y-74022380D02*
X207761904Y-73022380D01*
X208142857Y-73022380D01*
X208238095Y-73070000D01*
X208285714Y-73117619D01*
X208333333Y-73212857D01*
X208333333Y-73355714D01*
X208285714Y-73450952D01*
X208238095Y-73498571D01*
X208142857Y-73546190D01*
X207761904Y-73546190D01*
X208809523Y-74022380D02*
X209000000Y-74022380D01*
X209095238Y-73974761D01*
X209142857Y-73927142D01*
X209238095Y-73784285D01*
X209285714Y-73593809D01*
X209285714Y-73212857D01*
X209238095Y-73117619D01*
X209190476Y-73070000D01*
X209095238Y-73022380D01*
X208904761Y-73022380D01*
X208809523Y-73070000D01*
X208761904Y-73117619D01*
X208714285Y-73212857D01*
X208714285Y-73450952D01*
X208761904Y-73546190D01*
X208809523Y-73593809D01*
X208904761Y-73641428D01*
X209095238Y-73641428D01*
X209190476Y-73593809D01*
X209238095Y-73546190D01*
X209285714Y-73450952D01*
%TO.C,R11*%
X251857142Y-74022380D02*
X251523809Y-73546190D01*
X251285714Y-74022380D02*
X251285714Y-73022380D01*
X251666666Y-73022380D01*
X251761904Y-73070000D01*
X251809523Y-73117619D01*
X251857142Y-73212857D01*
X251857142Y-73355714D01*
X251809523Y-73450952D01*
X251761904Y-73498571D01*
X251666666Y-73546190D01*
X251285714Y-73546190D01*
X252809523Y-74022380D02*
X252238095Y-74022380D01*
X252523809Y-74022380D02*
X252523809Y-73022380D01*
X252428571Y-73165238D01*
X252333333Y-73260476D01*
X252238095Y-73308095D01*
X253761904Y-74022380D02*
X253190476Y-74022380D01*
X253476190Y-74022380D02*
X253476190Y-73022380D01*
X253380952Y-73165238D01*
X253285714Y-73260476D01*
X253190476Y-73308095D01*
%TO.C,U5*%
X116238095Y-72952380D02*
X116238095Y-73761904D01*
X116285714Y-73857142D01*
X116333333Y-73904761D01*
X116428571Y-73952380D01*
X116619047Y-73952380D01*
X116714285Y-73904761D01*
X116761904Y-73857142D01*
X116809523Y-73761904D01*
X116809523Y-72952380D01*
X117761904Y-72952380D02*
X117285714Y-72952380D01*
X117238095Y-73428571D01*
X117285714Y-73380952D01*
X117380952Y-73333333D01*
X117619047Y-73333333D01*
X117714285Y-73380952D01*
X117761904Y-73428571D01*
X117809523Y-73523809D01*
X117809523Y-73761904D01*
X117761904Y-73857142D01*
X117714285Y-73904761D01*
X117619047Y-73952380D01*
X117380952Y-73952380D01*
X117285714Y-73904761D01*
X117238095Y-73857142D01*
%TO.C,U13*%
X106761904Y-72002380D02*
X106761904Y-72811904D01*
X106809523Y-72907142D01*
X106857142Y-72954761D01*
X106952380Y-73002380D01*
X107142857Y-73002380D01*
X107238095Y-72954761D01*
X107285714Y-72907142D01*
X107333333Y-72811904D01*
X107333333Y-72002380D01*
X108333333Y-73002380D02*
X107761904Y-73002380D01*
X108047619Y-73002380D02*
X108047619Y-72002380D01*
X107952380Y-72145238D01*
X107857142Y-72240476D01*
X107761904Y-72288095D01*
X108666666Y-72002380D02*
X109285714Y-72002380D01*
X108952380Y-72383333D01*
X109095238Y-72383333D01*
X109190476Y-72430952D01*
X109238095Y-72478571D01*
X109285714Y-72573809D01*
X109285714Y-72811904D01*
X109238095Y-72907142D01*
X109190476Y-72954761D01*
X109095238Y-73002380D01*
X108809523Y-73002380D01*
X108714285Y-72954761D01*
X108666666Y-72907142D01*
%TO.C,U11*%
X247761904Y-72952380D02*
X247761904Y-73761904D01*
X247809523Y-73857142D01*
X247857142Y-73904761D01*
X247952380Y-73952380D01*
X248142857Y-73952380D01*
X248238095Y-73904761D01*
X248285714Y-73857142D01*
X248333333Y-73761904D01*
X248333333Y-72952380D01*
X249333333Y-73952380D02*
X248761904Y-73952380D01*
X249047619Y-73952380D02*
X249047619Y-72952380D01*
X248952380Y-73095238D01*
X248857142Y-73190476D01*
X248761904Y-73238095D01*
X250285714Y-73952380D02*
X249714285Y-73952380D01*
X250000000Y-73952380D02*
X250000000Y-72952380D01*
X249904761Y-73095238D01*
X249809523Y-73190476D01*
X249714285Y-73238095D01*
%TO.C,TP4*%
X257670000Y-75452500D02*
X257670000Y-74642976D01*
X258952380Y-74738214D02*
X258952380Y-75214404D01*
X257952380Y-75214404D01*
X257670000Y-74642976D02*
X257670000Y-73595357D01*
X257952380Y-74214404D02*
X257952380Y-74023928D01*
X258000000Y-73928690D01*
X258095238Y-73833452D01*
X258285714Y-73785833D01*
X258619047Y-73785833D01*
X258809523Y-73833452D01*
X258904761Y-73928690D01*
X258952380Y-74023928D01*
X258952380Y-74214404D01*
X258904761Y-74309642D01*
X258809523Y-74404880D01*
X258619047Y-74452500D01*
X258285714Y-74452500D01*
X258095238Y-74404880D01*
X258000000Y-74309642D01*
X257952380Y-74214404D01*
X257670000Y-73595357D02*
X257670000Y-72738214D01*
X258666666Y-73404880D02*
X258666666Y-72928690D01*
X258952380Y-73500119D02*
X257952380Y-73166785D01*
X258952380Y-72833452D01*
X257670000Y-72738214D02*
X257670000Y-71738214D01*
X258952380Y-72500119D02*
X257952380Y-72500119D01*
X257952380Y-72262023D01*
X258000000Y-72119166D01*
X258095238Y-72023928D01*
X258190476Y-71976309D01*
X258380952Y-71928690D01*
X258523809Y-71928690D01*
X258714285Y-71976309D01*
X258809523Y-72023928D01*
X258904761Y-72119166D01*
X258952380Y-72262023D01*
X258952380Y-72500119D01*
%TO.C,D9*%
X207761904Y-78882380D02*
X207761904Y-77882380D01*
X208000000Y-77882380D01*
X208142857Y-77930000D01*
X208238095Y-78025238D01*
X208285714Y-78120476D01*
X208333333Y-78310952D01*
X208333333Y-78453809D01*
X208285714Y-78644285D01*
X208238095Y-78739523D01*
X208142857Y-78834761D01*
X208000000Y-78882380D01*
X207761904Y-78882380D01*
X208809523Y-78882380D02*
X209000000Y-78882380D01*
X209095238Y-78834761D01*
X209142857Y-78787142D01*
X209238095Y-78644285D01*
X209285714Y-78453809D01*
X209285714Y-78072857D01*
X209238095Y-77977619D01*
X209190476Y-77930000D01*
X209095238Y-77882380D01*
X208904761Y-77882380D01*
X208809523Y-77930000D01*
X208761904Y-77977619D01*
X208714285Y-78072857D01*
X208714285Y-78310952D01*
X208761904Y-78406190D01*
X208809523Y-78453809D01*
X208904761Y-78501428D01*
X209095238Y-78501428D01*
X209190476Y-78453809D01*
X209238095Y-78406190D01*
X209285714Y-78310952D01*
%TO.C,D1*%
X31761904Y-78882380D02*
X31761904Y-77882380D01*
X32000000Y-77882380D01*
X32142857Y-77930000D01*
X32238095Y-78025238D01*
X32285714Y-78120476D01*
X32333333Y-78310952D01*
X32333333Y-78453809D01*
X32285714Y-78644285D01*
X32238095Y-78739523D01*
X32142857Y-78834761D01*
X32000000Y-78882380D01*
X31761904Y-78882380D01*
X33285714Y-78882380D02*
X32714285Y-78882380D01*
X33000000Y-78882380D02*
X33000000Y-77882380D01*
X32904761Y-78025238D01*
X32809523Y-78120476D01*
X32714285Y-78168095D01*
%TO.C,D12*%
X273285714Y-78882380D02*
X273285714Y-77882380D01*
X273523809Y-77882380D01*
X273666666Y-77930000D01*
X273761904Y-78025238D01*
X273809523Y-78120476D01*
X273857142Y-78310952D01*
X273857142Y-78453809D01*
X273809523Y-78644285D01*
X273761904Y-78739523D01*
X273666666Y-78834761D01*
X273523809Y-78882380D01*
X273285714Y-78882380D01*
X274809523Y-78882380D02*
X274238095Y-78882380D01*
X274523809Y-78882380D02*
X274523809Y-77882380D01*
X274428571Y-78025238D01*
X274333333Y-78120476D01*
X274238095Y-78168095D01*
X275190476Y-77977619D02*
X275238095Y-77930000D01*
X275333333Y-77882380D01*
X275571428Y-77882380D01*
X275666666Y-77930000D01*
X275714285Y-77977619D01*
X275761904Y-78072857D01*
X275761904Y-78168095D01*
X275714285Y-78310952D01*
X275142857Y-78882380D01*
X275761904Y-78882380D01*
%TO.C,U10*%
X225761904Y-72952380D02*
X225761904Y-73761904D01*
X225809523Y-73857142D01*
X225857142Y-73904761D01*
X225952380Y-73952380D01*
X226142857Y-73952380D01*
X226238095Y-73904761D01*
X226285714Y-73857142D01*
X226333333Y-73761904D01*
X226333333Y-72952380D01*
X227333333Y-73952380D02*
X226761904Y-73952380D01*
X227047619Y-73952380D02*
X227047619Y-72952380D01*
X226952380Y-73095238D01*
X226857142Y-73190476D01*
X226761904Y-73238095D01*
X227952380Y-72952380D02*
X228047619Y-72952380D01*
X228142857Y-73000000D01*
X228190476Y-73047619D01*
X228238095Y-73142857D01*
X228285714Y-73333333D01*
X228285714Y-73571428D01*
X228238095Y-73761904D01*
X228190476Y-73857142D01*
X228142857Y-73904761D01*
X228047619Y-73952380D01*
X227952380Y-73952380D01*
X227857142Y-73904761D01*
X227809523Y-73857142D01*
X227761904Y-73761904D01*
X227714285Y-73571428D01*
X227714285Y-73333333D01*
X227761904Y-73142857D01*
X227809523Y-73047619D01*
X227857142Y-73000000D01*
X227952380Y-72952380D01*
%TO.C,C13*%
X188857142Y-77357142D02*
X188809523Y-77404761D01*
X188666666Y-77452380D01*
X188571428Y-77452380D01*
X188428571Y-77404761D01*
X188333333Y-77309523D01*
X188285714Y-77214285D01*
X188238095Y-77023809D01*
X188238095Y-76880952D01*
X188285714Y-76690476D01*
X188333333Y-76595238D01*
X188428571Y-76500000D01*
X188571428Y-76452380D01*
X188666666Y-76452380D01*
X188809523Y-76500000D01*
X188857142Y-76547619D01*
X189809523Y-77452380D02*
X189238095Y-77452380D01*
X189523809Y-77452380D02*
X189523809Y-76452380D01*
X189428571Y-76595238D01*
X189333333Y-76690476D01*
X189238095Y-76738095D01*
X190142857Y-76452380D02*
X190761904Y-76452380D01*
X190428571Y-76833333D01*
X190571428Y-76833333D01*
X190666666Y-76880952D01*
X190714285Y-76928571D01*
X190761904Y-77023809D01*
X190761904Y-77261904D01*
X190714285Y-77357142D01*
X190666666Y-77404761D01*
X190571428Y-77452380D01*
X190285714Y-77452380D01*
X190190476Y-77404761D01*
X190142857Y-77357142D01*
%TO.C,D7*%
X163761904Y-78882380D02*
X163761904Y-77882380D01*
X164000000Y-77882380D01*
X164142857Y-77930000D01*
X164238095Y-78025238D01*
X164285714Y-78120476D01*
X164333333Y-78310952D01*
X164333333Y-78453809D01*
X164285714Y-78644285D01*
X164238095Y-78739523D01*
X164142857Y-78834761D01*
X164000000Y-78882380D01*
X163761904Y-78882380D01*
X164666666Y-77882380D02*
X165333333Y-77882380D01*
X164904761Y-78882380D01*
%TO.C,C2*%
X47833333Y-78857142D02*
X47785714Y-78904761D01*
X47642857Y-78952380D01*
X47547619Y-78952380D01*
X47404761Y-78904761D01*
X47309523Y-78809523D01*
X47261904Y-78714285D01*
X47214285Y-78523809D01*
X47214285Y-78380952D01*
X47261904Y-78190476D01*
X47309523Y-78095238D01*
X47404761Y-78000000D01*
X47547619Y-77952380D01*
X47642857Y-77952380D01*
X47785714Y-78000000D01*
X47833333Y-78047619D01*
X48214285Y-78047619D02*
X48261904Y-78000000D01*
X48357142Y-77952380D01*
X48595238Y-77952380D01*
X48690476Y-78000000D01*
X48738095Y-78047619D01*
X48785714Y-78142857D01*
X48785714Y-78238095D01*
X48738095Y-78380952D01*
X48166666Y-78952380D01*
X48785714Y-78952380D01*
%TO.C,C14*%
X113857142Y-75357142D02*
X113809523Y-75404761D01*
X113666666Y-75452380D01*
X113571428Y-75452380D01*
X113428571Y-75404761D01*
X113333333Y-75309523D01*
X113285714Y-75214285D01*
X113238095Y-75023809D01*
X113238095Y-74880952D01*
X113285714Y-74690476D01*
X113333333Y-74595238D01*
X113428571Y-74500000D01*
X113571428Y-74452380D01*
X113666666Y-74452380D01*
X113809523Y-74500000D01*
X113857142Y-74547619D01*
X114809523Y-75452380D02*
X114238095Y-75452380D01*
X114523809Y-75452380D02*
X114523809Y-74452380D01*
X114428571Y-74595238D01*
X114333333Y-74690476D01*
X114238095Y-74738095D01*
X115666666Y-74785714D02*
X115666666Y-75452380D01*
X115428571Y-74404761D02*
X115190476Y-75119047D01*
X115809523Y-75119047D01*
%TO.C,R1*%
X32333333Y-74022380D02*
X32000000Y-73546190D01*
X31761904Y-74022380D02*
X31761904Y-73022380D01*
X32142857Y-73022380D01*
X32238095Y-73070000D01*
X32285714Y-73117619D01*
X32333333Y-73212857D01*
X32333333Y-73355714D01*
X32285714Y-73450952D01*
X32238095Y-73498571D01*
X32142857Y-73546190D01*
X31761904Y-73546190D01*
X33285714Y-74022380D02*
X32714285Y-74022380D01*
X33000000Y-74022380D02*
X33000000Y-73022380D01*
X32904761Y-73165238D01*
X32809523Y-73260476D01*
X32714285Y-73308095D01*
%TO.C,R2*%
X54333333Y-74022380D02*
X54000000Y-73546190D01*
X53761904Y-74022380D02*
X53761904Y-73022380D01*
X54142857Y-73022380D01*
X54238095Y-73070000D01*
X54285714Y-73117619D01*
X54333333Y-73212857D01*
X54333333Y-73355714D01*
X54285714Y-73450952D01*
X54238095Y-73498571D01*
X54142857Y-73546190D01*
X53761904Y-73546190D01*
X54714285Y-73117619D02*
X54761904Y-73070000D01*
X54857142Y-73022380D01*
X55095238Y-73022380D01*
X55190476Y-73070000D01*
X55238095Y-73117619D01*
X55285714Y-73212857D01*
X55285714Y-73308095D01*
X55238095Y-73450952D01*
X54666666Y-74022380D01*
X55285714Y-74022380D01*
%TO.C,C11*%
X245357142Y-78857142D02*
X245309523Y-78904761D01*
X245166666Y-78952380D01*
X245071428Y-78952380D01*
X244928571Y-78904761D01*
X244833333Y-78809523D01*
X244785714Y-78714285D01*
X244738095Y-78523809D01*
X244738095Y-78380952D01*
X244785714Y-78190476D01*
X244833333Y-78095238D01*
X244928571Y-78000000D01*
X245071428Y-77952380D01*
X245166666Y-77952380D01*
X245309523Y-78000000D01*
X245357142Y-78047619D01*
X246309523Y-78952380D02*
X245738095Y-78952380D01*
X246023809Y-78952380D02*
X246023809Y-77952380D01*
X245928571Y-78095238D01*
X245833333Y-78190476D01*
X245738095Y-78238095D01*
X247261904Y-78952380D02*
X246690476Y-78952380D01*
X246976190Y-78952380D02*
X246976190Y-77952380D01*
X246880952Y-78095238D01*
X246785714Y-78190476D01*
X246690476Y-78238095D01*
%TO.C,C12*%
X267357142Y-78857142D02*
X267309523Y-78904761D01*
X267166666Y-78952380D01*
X267071428Y-78952380D01*
X266928571Y-78904761D01*
X266833333Y-78809523D01*
X266785714Y-78714285D01*
X266738095Y-78523809D01*
X266738095Y-78380952D01*
X266785714Y-78190476D01*
X266833333Y-78095238D01*
X266928571Y-78000000D01*
X267071428Y-77952380D01*
X267166666Y-77952380D01*
X267309523Y-78000000D01*
X267357142Y-78047619D01*
X268309523Y-78952380D02*
X267738095Y-78952380D01*
X268023809Y-78952380D02*
X268023809Y-77952380D01*
X267928571Y-78095238D01*
X267833333Y-78190476D01*
X267738095Y-78238095D01*
X268690476Y-78047619D02*
X268738095Y-78000000D01*
X268833333Y-77952380D01*
X269071428Y-77952380D01*
X269166666Y-78000000D01*
X269214285Y-78047619D01*
X269261904Y-78142857D01*
X269261904Y-78238095D01*
X269214285Y-78380952D01*
X268642857Y-78952380D01*
X269261904Y-78952380D01*
%TO.C,D5*%
X119761904Y-78882380D02*
X119761904Y-77882380D01*
X120000000Y-77882380D01*
X120142857Y-77930000D01*
X120238095Y-78025238D01*
X120285714Y-78120476D01*
X120333333Y-78310952D01*
X120333333Y-78453809D01*
X120285714Y-78644285D01*
X120238095Y-78739523D01*
X120142857Y-78834761D01*
X120000000Y-78882380D01*
X119761904Y-78882380D01*
X121238095Y-77882380D02*
X120761904Y-77882380D01*
X120714285Y-78358571D01*
X120761904Y-78310952D01*
X120857142Y-78263333D01*
X121095238Y-78263333D01*
X121190476Y-78310952D01*
X121238095Y-78358571D01*
X121285714Y-78453809D01*
X121285714Y-78691904D01*
X121238095Y-78787142D01*
X121190476Y-78834761D01*
X121095238Y-78882380D01*
X120857142Y-78882380D01*
X120761904Y-78834761D01*
X120714285Y-78787142D01*
%TO.C,R3*%
X76333333Y-74022380D02*
X76000000Y-73546190D01*
X75761904Y-74022380D02*
X75761904Y-73022380D01*
X76142857Y-73022380D01*
X76238095Y-73070000D01*
X76285714Y-73117619D01*
X76333333Y-73212857D01*
X76333333Y-73355714D01*
X76285714Y-73450952D01*
X76238095Y-73498571D01*
X76142857Y-73546190D01*
X75761904Y-73546190D01*
X76666666Y-73022380D02*
X77285714Y-73022380D01*
X76952380Y-73403333D01*
X77095238Y-73403333D01*
X77190476Y-73450952D01*
X77238095Y-73498571D01*
X77285714Y-73593809D01*
X77285714Y-73831904D01*
X77238095Y-73927142D01*
X77190476Y-73974761D01*
X77095238Y-74022380D01*
X76809523Y-74022380D01*
X76714285Y-73974761D01*
X76666666Y-73927142D01*
%TO.C,R4*%
X98333333Y-74022380D02*
X98000000Y-73546190D01*
X97761904Y-74022380D02*
X97761904Y-73022380D01*
X98142857Y-73022380D01*
X98238095Y-73070000D01*
X98285714Y-73117619D01*
X98333333Y-73212857D01*
X98333333Y-73355714D01*
X98285714Y-73450952D01*
X98238095Y-73498571D01*
X98142857Y-73546190D01*
X97761904Y-73546190D01*
X99190476Y-73355714D02*
X99190476Y-74022380D01*
X98952380Y-72974761D02*
X98714285Y-73689047D01*
X99333333Y-73689047D01*
D12*
%TO.C,D6*%
X143985000Y-76265000D02*
X141700000Y-76265000D01*
X143985000Y-77735000D02*
X143985000Y-76265000D01*
X141700000Y-77735000D02*
X143985000Y-77735000D01*
%TO.C,C4*%
X94859420Y-79010000D02*
X95140580Y-79010000D01*
X94859420Y-77990000D02*
X95140580Y-77990000D01*
%TO.C,C7*%
X160859420Y-77990000D02*
X161140580Y-77990000D01*
X160859420Y-79010000D02*
X161140580Y-79010000D01*
%TO.C,TP2*%
X265450000Y-76500000D02*
G75*
G03*
X265450000Y-76500000I-950000J0D01*
G01*
%TO.C,C3*%
X72859420Y-79010000D02*
X73140580Y-79010000D01*
X72859420Y-77990000D02*
X73140580Y-77990000D01*
%TO.C,R5*%
X120262742Y-75522500D02*
X120737258Y-75522500D01*
X120262742Y-74477500D02*
X120737258Y-74477500D01*
%TO.C,D10*%
X229700000Y-77735000D02*
X231985000Y-77735000D01*
X231985000Y-77735000D02*
X231985000Y-76265000D01*
X231985000Y-76265000D02*
X229700000Y-76265000D01*
%TO.C,R12*%
X274262742Y-75522500D02*
X274737258Y-75522500D01*
X274262742Y-74477500D02*
X274737258Y-74477500D01*
%TO.C,D11*%
X253985000Y-77735000D02*
X253985000Y-76265000D01*
X251700000Y-77735000D02*
X253985000Y-77735000D01*
X253985000Y-76265000D02*
X251700000Y-76265000D01*
%TO.C,D2*%
X55985000Y-77735000D02*
X55985000Y-76265000D01*
X55985000Y-76265000D02*
X53700000Y-76265000D01*
X53700000Y-77735000D02*
X55985000Y-77735000D01*
%TO.C,TP1*%
X268450000Y-76500000D02*
G75*
G03*
X268450000Y-76500000I-950000J0D01*
G01*
%TO.C,U14*%
X196000000Y-78735000D02*
X193800000Y-78735000D01*
X196000000Y-73265000D02*
X193800000Y-73265000D01*
X196000000Y-78735000D02*
X199600000Y-78735000D01*
X196000000Y-73265000D02*
X198200000Y-73265000D01*
%TO.C,U4*%
X95000000Y-74440000D02*
X95650000Y-74440000D01*
X95000000Y-74440000D02*
X94350000Y-74440000D01*
X95000000Y-77560000D02*
X94350000Y-77560000D01*
X95000000Y-77560000D02*
X96675000Y-77560000D01*
%TO.C,C9*%
X204859420Y-79010000D02*
X205140580Y-79010000D01*
X204859420Y-77990000D02*
X205140580Y-77990000D01*
%TO.C,U7*%
X161000000Y-74440000D02*
X161650000Y-74440000D01*
X161000000Y-77560000D02*
X162675000Y-77560000D01*
X161000000Y-77560000D02*
X160350000Y-77560000D01*
X161000000Y-74440000D02*
X160350000Y-74440000D01*
%TO.C,C6*%
X138859420Y-79010000D02*
X139140580Y-79010000D01*
X138859420Y-77990000D02*
X139140580Y-77990000D01*
%TO.C,R10*%
X230262742Y-75522500D02*
X230737258Y-75522500D01*
X230262742Y-74477500D02*
X230737258Y-74477500D01*
%TO.C,R8*%
X186262742Y-75522500D02*
X186737258Y-75522500D01*
X186262742Y-74477500D02*
X186737258Y-74477500D01*
%TO.C,D3*%
X77985000Y-77735000D02*
X77985000Y-76265000D01*
X75700000Y-77735000D02*
X77985000Y-77735000D01*
X77985000Y-76265000D02*
X75700000Y-76265000D01*
%TO.C,C8*%
X182859420Y-79010000D02*
X183140580Y-79010000D01*
X182859420Y-77990000D02*
X183140580Y-77990000D01*
%TO.C,U6*%
X139000000Y-77560000D02*
X138350000Y-77560000D01*
X139000000Y-74440000D02*
X139650000Y-74440000D01*
X139000000Y-77560000D02*
X140675000Y-77560000D01*
X139000000Y-74440000D02*
X138350000Y-74440000D01*
%TO.C,TP5*%
X256450000Y-76500000D02*
G75*
G03*
X256450000Y-76500000I-950000J0D01*
G01*
%TO.C,D8*%
X187985000Y-77735000D02*
X187985000Y-76265000D01*
X185700000Y-77735000D02*
X187985000Y-77735000D01*
X187985000Y-76265000D02*
X185700000Y-76265000D01*
%TO.C,TP3*%
X262450000Y-76500000D02*
G75*
G03*
X262450000Y-76500000I-950000J0D01*
G01*
%TO.C,U8*%
X183000000Y-74440000D02*
X183650000Y-74440000D01*
X183000000Y-77560000D02*
X182350000Y-77560000D01*
X183000000Y-74440000D02*
X182350000Y-74440000D01*
X183000000Y-77560000D02*
X184675000Y-77560000D01*
%TO.C,U1*%
X29000000Y-77560000D02*
X30675000Y-77560000D01*
X29000000Y-74440000D02*
X28350000Y-74440000D01*
X29000000Y-74440000D02*
X29650000Y-74440000D01*
X29000000Y-77560000D02*
X28350000Y-77560000D01*
%TO.C,R7*%
X164262742Y-74477500D02*
X164737258Y-74477500D01*
X164262742Y-75522500D02*
X164737258Y-75522500D01*
%TO.C,U3*%
X73000000Y-77560000D02*
X72350000Y-77560000D01*
X73000000Y-74440000D02*
X72350000Y-74440000D01*
X73000000Y-77560000D02*
X74675000Y-77560000D01*
X73000000Y-74440000D02*
X73650000Y-74440000D01*
%TO.C,U9*%
X205000000Y-74440000D02*
X204350000Y-74440000D01*
X205000000Y-74440000D02*
X205650000Y-74440000D01*
X205000000Y-77560000D02*
X204350000Y-77560000D01*
X205000000Y-77560000D02*
X206675000Y-77560000D01*
%TO.C,U12*%
X271000000Y-74440000D02*
X271650000Y-74440000D01*
X271000000Y-77560000D02*
X272675000Y-77560000D01*
X271000000Y-74440000D02*
X270350000Y-74440000D01*
X271000000Y-77560000D02*
X270350000Y-77560000D01*
%TO.C,R6*%
X142262742Y-75522500D02*
X142737258Y-75522500D01*
X142262742Y-74477500D02*
X142737258Y-74477500D01*
%TO.C,C1*%
X28859420Y-79010000D02*
X29140580Y-79010000D01*
X28859420Y-77990000D02*
X29140580Y-77990000D01*
%TO.C,C15*%
X264859420Y-77990000D02*
X265140580Y-77990000D01*
X264859420Y-79010000D02*
X265140580Y-79010000D01*
%TO.C,C5*%
X116859420Y-79010000D02*
X117140580Y-79010000D01*
X116859420Y-77990000D02*
X117140580Y-77990000D01*
%TO.C,D4*%
X99985000Y-77735000D02*
X99985000Y-76265000D01*
X97700000Y-77735000D02*
X99985000Y-77735000D01*
X99985000Y-76265000D02*
X97700000Y-76265000D01*
%TO.C,U2*%
X51000000Y-77560000D02*
X50350000Y-77560000D01*
X51000000Y-74440000D02*
X51650000Y-74440000D01*
X51000000Y-74440000D02*
X50350000Y-74440000D01*
X51000000Y-77560000D02*
X52675000Y-77560000D01*
%TO.C,C10*%
X226859420Y-77990000D02*
X227140580Y-77990000D01*
X226859420Y-79010000D02*
X227140580Y-79010000D01*
%TO.C,R9*%
X208262742Y-74477500D02*
X208737258Y-74477500D01*
X208262742Y-75522500D02*
X208737258Y-75522500D01*
%TO.C,R11*%
X252262742Y-75522500D02*
X252737258Y-75522500D01*
X252262742Y-74477500D02*
X252737258Y-74477500D01*
%TO.C,U5*%
X117000000Y-74440000D02*
X117650000Y-74440000D01*
X117000000Y-77560000D02*
X118675000Y-77560000D01*
X117000000Y-74440000D02*
X116350000Y-74440000D01*
X117000000Y-77560000D02*
X116350000Y-77560000D01*
%TO.C,U13*%
X108000000Y-78735000D02*
X110200000Y-78735000D01*
X108000000Y-78735000D02*
X105800000Y-78735000D01*
X108000000Y-73265000D02*
X110200000Y-73265000D01*
X108000000Y-73265000D02*
X104400000Y-73265000D01*
%TO.C,U11*%
X249000000Y-77560000D02*
X250675000Y-77560000D01*
X249000000Y-74440000D02*
X248350000Y-74440000D01*
X249000000Y-77560000D02*
X248350000Y-77560000D01*
X249000000Y-74440000D02*
X249650000Y-74440000D01*
%TO.C,TP4*%
X259450000Y-76500000D02*
G75*
G03*
X259450000Y-76500000I-950000J0D01*
G01*
%TO.C,D9*%
X209985000Y-76265000D02*
X207700000Y-76265000D01*
X207700000Y-77735000D02*
X209985000Y-77735000D01*
X209985000Y-77735000D02*
X209985000Y-76265000D01*
%TO.C,D1*%
X33985000Y-76265000D02*
X31700000Y-76265000D01*
X33985000Y-77735000D02*
X33985000Y-76265000D01*
X31700000Y-77735000D02*
X33985000Y-77735000D01*
%TO.C,D12*%
X275985000Y-76265000D02*
X273700000Y-76265000D01*
X275985000Y-77735000D02*
X275985000Y-76265000D01*
X273700000Y-77735000D02*
X275985000Y-77735000D01*
%TO.C,U10*%
X227000000Y-74440000D02*
X227650000Y-74440000D01*
X227000000Y-77560000D02*
X226350000Y-77560000D01*
X227000000Y-74440000D02*
X226350000Y-74440000D01*
X227000000Y-77560000D02*
X228675000Y-77560000D01*
%TO.C,C13*%
X189640580Y-79010000D02*
X189359420Y-79010000D01*
X189640580Y-77990000D02*
X189359420Y-77990000D01*
%TO.C,D7*%
X163700000Y-77735000D02*
X165985000Y-77735000D01*
X165985000Y-77735000D02*
X165985000Y-76265000D01*
X165985000Y-76265000D02*
X163700000Y-76265000D01*
%TO.C,C2*%
X50859420Y-77990000D02*
X51140580Y-77990000D01*
X50859420Y-79010000D02*
X51140580Y-79010000D01*
%TO.C,C14*%
X114359420Y-74010000D02*
X114640580Y-74010000D01*
X114359420Y-72990000D02*
X114640580Y-72990000D01*
%TO.C,R1*%
X32262742Y-75522500D02*
X32737258Y-75522500D01*
X32262742Y-74477500D02*
X32737258Y-74477500D01*
%TO.C,R2*%
X54262742Y-74477500D02*
X54737258Y-74477500D01*
X54262742Y-75522500D02*
X54737258Y-75522500D01*
%TO.C,C11*%
X248859420Y-77990000D02*
X249140580Y-77990000D01*
X248859420Y-79010000D02*
X249140580Y-79010000D01*
%TO.C,C12*%
X270859420Y-77990000D02*
X271140580Y-77990000D01*
X270859420Y-79010000D02*
X271140580Y-79010000D01*
%TO.C,D5*%
X119700000Y-77735000D02*
X121985000Y-77735000D01*
X121985000Y-76265000D02*
X119700000Y-76265000D01*
X121985000Y-77735000D02*
X121985000Y-76265000D01*
%TO.C,R3*%
X76262742Y-75522500D02*
X76737258Y-75522500D01*
X76262742Y-74477500D02*
X76737258Y-74477500D01*
%TO.C,R4*%
X98262742Y-74477500D02*
X98737258Y-74477500D01*
X98262742Y-75522500D02*
X98737258Y-75522500D01*
%TD*%
M02*
