%TF.GenerationSoftware,KiCad,Pcbnew,5.99.0-76a6177eb7*%
%TF.CreationDate,2022-05-04T15:01:28+02:00*%
%TF.ProjectId,kicker-counter,6b69636b-6572-42d6-936f-756e7465722e,0.1.0*%
%TF.SameCoordinates,Original*%
%TF.FileFunction,Legend,Bot*%
%TF.FilePolarity,Positive*%
%FSLAX46Y46*%
G04 Gerber Fmt 4.6, Leading zero omitted, Abs format (unit mm)*
G04 Created by KiCad (PCBNEW 5.99.0-76a6177eb7) date 2022-05-04 15:01:28*
%MOMM*%
%LPD*%
G01*
G04 APERTURE LIST*
%ADD10C,0.150000*%
%ADD11C,0.120000*%
G04 APERTURE END LIST*
D10*
%TO.C,JP2*%
X201333333Y-72152380D02*
X201333333Y-72866666D01*
X201380952Y-73009523D01*
X201476190Y-73104761D01*
X201619047Y-73152380D01*
X201714285Y-73152380D01*
X200857142Y-73152380D02*
X200857142Y-72152380D01*
X200476190Y-72152380D01*
X200380952Y-72200000D01*
X200333333Y-72247619D01*
X200285714Y-72342857D01*
X200285714Y-72485714D01*
X200333333Y-72580952D01*
X200380952Y-72628571D01*
X200476190Y-72676190D01*
X200857142Y-72676190D01*
X199904761Y-72247619D02*
X199857142Y-72200000D01*
X199761904Y-72152380D01*
X199523809Y-72152380D01*
X199428571Y-72200000D01*
X199380952Y-72247619D01*
X199333333Y-72342857D01*
X199333333Y-72438095D01*
X199380952Y-72580952D01*
X199952380Y-73152380D01*
X199333333Y-73152380D01*
%TO.C,JP1*%
X106333333Y-77252380D02*
X106333333Y-77966666D01*
X106380952Y-78109523D01*
X106476190Y-78204761D01*
X106619047Y-78252380D01*
X106714285Y-78252380D01*
X105857142Y-78252380D02*
X105857142Y-77252380D01*
X105476190Y-77252380D01*
X105380952Y-77300000D01*
X105333333Y-77347619D01*
X105285714Y-77442857D01*
X105285714Y-77585714D01*
X105333333Y-77680952D01*
X105380952Y-77728571D01*
X105476190Y-77776190D01*
X105857142Y-77776190D01*
X104333333Y-78252380D02*
X104904761Y-78252380D01*
X104619047Y-78252380D02*
X104619047Y-77252380D01*
X104714285Y-77395238D01*
X104809523Y-77490476D01*
X104904761Y-77538095D01*
D11*
%TO.C,JP2*%
X199100000Y-74200000D02*
X199100000Y-74800000D01*
X201200000Y-73500000D02*
X199800000Y-73500000D01*
X199800000Y-75500000D02*
X201200000Y-75500000D01*
X201900000Y-74800000D02*
X201900000Y-74200000D01*
X201200000Y-75500000D02*
G75*
G03*
X201900000Y-74800000I0J700000D01*
G01*
X199100000Y-74800000D02*
G75*
G03*
X199800000Y-75500000I700000J0D01*
G01*
X201900000Y-74200000D02*
G75*
G03*
X201200000Y-73500000I-700000J0D01*
G01*
X199800000Y-73500000D02*
G75*
G03*
X199100000Y-74200000I0J-700000D01*
G01*
%TO.C,JP1*%
X104800000Y-77000000D02*
X106200000Y-77000000D01*
X104100000Y-75700000D02*
X104100000Y-76300000D01*
X106200000Y-75000000D02*
X104800000Y-75000000D01*
X106900000Y-76300000D02*
X106900000Y-75700000D01*
X104100000Y-76300000D02*
G75*
G03*
X104800000Y-77000000I700000J0D01*
G01*
X104800000Y-75000000D02*
G75*
G03*
X104100000Y-75700000I0J-700000D01*
G01*
X106200000Y-77000000D02*
G75*
G03*
X106900000Y-76300000I0J700000D01*
G01*
X106900000Y-75700000D02*
G75*
G03*
X106200000Y-75000000I-700000J0D01*
G01*
%TD*%
M02*
