%TF.GenerationSoftware,KiCad,Pcbnew,5.99.0-76a6177eb7*%
%TF.CreationDate,2022-05-04T15:01:29+02:00*%
%TF.ProjectId,kicker-counter,6b69636b-6572-42d6-936f-756e7465722e,0.1.0*%
%TF.SameCoordinates,Original*%
%TF.FileFunction,Soldermask,Top*%
%TF.FilePolarity,Negative*%
%FSLAX46Y46*%
G04 Gerber Fmt 4.6, Leading zero omitted, Abs format (unit mm)*
G04 Created by KiCad (PCBNEW 5.99.0-76a6177eb7) date 2022-05-04 15:01:29*
%MOMM*%
%LPD*%
G01*
G04 APERTURE LIST*
G04 Aperture macros list*
%AMRoundRect*
0 Rectangle with rounded corners*
0 $1 Rounding radius*
0 $2 $3 $4 $5 $6 $7 $8 $9 X,Y pos of 4 corners*
0 Add a 4 corners polygon primitive as box body*
4,1,4,$2,$3,$4,$5,$6,$7,$8,$9,$2,$3,0*
0 Add four circle primitives for the rounded corners*
1,1,$1+$1,$2,$3*
1,1,$1+$1,$4,$5*
1,1,$1+$1,$6,$7*
1,1,$1+$1,$8,$9*
0 Add four rect primitives between the rounded corners*
20,1,$1+$1,$2,$3,$4,$5,0*
20,1,$1+$1,$4,$5,$6,$7,0*
20,1,$1+$1,$6,$7,$8,$9,0*
20,1,$1+$1,$8,$9,$2,$3,0*%
G04 Aperture macros list end*
%ADD10RoundRect,0.268750X0.218750X0.256250X-0.218750X0.256250X-0.218750X-0.256250X0.218750X-0.256250X0*%
%ADD11RoundRect,0.275000X-0.225000X-0.250000X0.225000X-0.250000X0.225000X0.250000X-0.225000X0.250000X0*%
%ADD12C,1.600000*%
%ADD13RoundRect,0.250000X-0.200000X-0.275000X0.200000X-0.275000X0.200000X0.275000X-0.200000X0.275000X0*%
%ADD14RoundRect,0.150000X0.637500X0.100000X-0.637500X0.100000X-0.637500X-0.100000X0.637500X-0.100000X0*%
%ADD15RoundRect,0.200000X0.587500X0.150000X-0.587500X0.150000X-0.587500X-0.150000X0.587500X-0.150000X0*%
%ADD16RoundRect,0.150000X-0.637500X-0.100000X0.637500X-0.100000X0.637500X0.100000X-0.637500X0.100000X0*%
%ADD17RoundRect,0.275000X0.225000X0.250000X-0.225000X0.250000X-0.225000X-0.250000X0.225000X-0.250000X0*%
G04 APERTURE END LIST*
D10*
%TO.C,D6*%
X143287500Y-77000000D03*
X141712500Y-77000000D03*
%TD*%
D11*
%TO.C,C4*%
X94225000Y-78500000D03*
X95775000Y-78500000D03*
%TD*%
%TO.C,C7*%
X160225000Y-78500000D03*
X161775000Y-78500000D03*
%TD*%
D12*
%TO.C,TP2*%
X264500000Y-76500000D03*
%TD*%
D11*
%TO.C,C3*%
X72225000Y-78500000D03*
X73775000Y-78500000D03*
%TD*%
D13*
%TO.C,R5*%
X119675000Y-75000000D03*
X121325000Y-75000000D03*
%TD*%
D10*
%TO.C,D10*%
X231287500Y-77000000D03*
X229712500Y-77000000D03*
%TD*%
D13*
%TO.C,R12*%
X273675000Y-75000000D03*
X275325000Y-75000000D03*
%TD*%
D10*
%TO.C,D11*%
X253287500Y-77000000D03*
X251712500Y-77000000D03*
%TD*%
%TO.C,D2*%
X55287500Y-77000000D03*
X53712500Y-77000000D03*
%TD*%
D12*
%TO.C,TP1*%
X267500000Y-76500000D03*
%TD*%
D14*
%TO.C,U14*%
X198862500Y-78275000D03*
X198862500Y-77625000D03*
X198862500Y-76975000D03*
X198862500Y-76325000D03*
X198862500Y-75675000D03*
X198862500Y-75025000D03*
X198862500Y-74375000D03*
X198862500Y-73725000D03*
X193137500Y-73725000D03*
X193137500Y-74375000D03*
X193137500Y-75025000D03*
X193137500Y-75675000D03*
X193137500Y-76325000D03*
X193137500Y-76975000D03*
X193137500Y-77625000D03*
X193137500Y-78275000D03*
%TD*%
D15*
%TO.C,U4*%
X95937500Y-76950000D03*
X95937500Y-75050000D03*
X94062500Y-76000000D03*
%TD*%
D11*
%TO.C,C9*%
X204225000Y-78500000D03*
X205775000Y-78500000D03*
%TD*%
D15*
%TO.C,U7*%
X161937500Y-76950000D03*
X161937500Y-75050000D03*
X160062500Y-76000000D03*
%TD*%
D11*
%TO.C,C6*%
X138225000Y-78500000D03*
X139775000Y-78500000D03*
%TD*%
D13*
%TO.C,R10*%
X229675000Y-75000000D03*
X231325000Y-75000000D03*
%TD*%
%TO.C,R8*%
X185675000Y-75000000D03*
X187325000Y-75000000D03*
%TD*%
D10*
%TO.C,D3*%
X77287500Y-77000000D03*
X75712500Y-77000000D03*
%TD*%
D11*
%TO.C,C8*%
X182225000Y-78500000D03*
X183775000Y-78500000D03*
%TD*%
D15*
%TO.C,U6*%
X139937500Y-76950000D03*
X139937500Y-75050000D03*
X138062500Y-76000000D03*
%TD*%
D12*
%TO.C,TP5*%
X255500000Y-76500000D03*
%TD*%
D10*
%TO.C,D8*%
X187287500Y-77000000D03*
X185712500Y-77000000D03*
%TD*%
D12*
%TO.C,TP3*%
X261500000Y-76500000D03*
%TD*%
D15*
%TO.C,U8*%
X183937500Y-76950000D03*
X183937500Y-75050000D03*
X182062500Y-76000000D03*
%TD*%
%TO.C,U1*%
X29937500Y-76950000D03*
X29937500Y-75050000D03*
X28062500Y-76000000D03*
%TD*%
D13*
%TO.C,R7*%
X163675000Y-75000000D03*
X165325000Y-75000000D03*
%TD*%
D15*
%TO.C,U3*%
X73937500Y-76950000D03*
X73937500Y-75050000D03*
X72062500Y-76000000D03*
%TD*%
%TO.C,U9*%
X205937500Y-76950000D03*
X205937500Y-75050000D03*
X204062500Y-76000000D03*
%TD*%
%TO.C,U12*%
X271937500Y-76950000D03*
X271937500Y-75050000D03*
X270062500Y-76000000D03*
%TD*%
D13*
%TO.C,R6*%
X141675000Y-75000000D03*
X143325000Y-75000000D03*
%TD*%
D11*
%TO.C,C1*%
X28225000Y-78500000D03*
X29775000Y-78500000D03*
%TD*%
%TO.C,C15*%
X264225000Y-78500000D03*
X265775000Y-78500000D03*
%TD*%
%TO.C,C5*%
X116225000Y-78500000D03*
X117775000Y-78500000D03*
%TD*%
D10*
%TO.C,D4*%
X99287500Y-77000000D03*
X97712500Y-77000000D03*
%TD*%
D15*
%TO.C,U2*%
X51937500Y-76950000D03*
X51937500Y-75050000D03*
X50062500Y-76000000D03*
%TD*%
D11*
%TO.C,C10*%
X226225000Y-78500000D03*
X227775000Y-78500000D03*
%TD*%
D13*
%TO.C,R9*%
X207675000Y-75000000D03*
X209325000Y-75000000D03*
%TD*%
%TO.C,R11*%
X251675000Y-75000000D03*
X253325000Y-75000000D03*
%TD*%
D15*
%TO.C,U5*%
X117937500Y-76950000D03*
X117937500Y-75050000D03*
X116062500Y-76000000D03*
%TD*%
D16*
%TO.C,U13*%
X105137500Y-73725000D03*
X105137500Y-74375000D03*
X105137500Y-75025000D03*
X105137500Y-75675000D03*
X105137500Y-76325000D03*
X105137500Y-76975000D03*
X105137500Y-77625000D03*
X105137500Y-78275000D03*
X110862500Y-78275000D03*
X110862500Y-77625000D03*
X110862500Y-76975000D03*
X110862500Y-76325000D03*
X110862500Y-75675000D03*
X110862500Y-75025000D03*
X110862500Y-74375000D03*
X110862500Y-73725000D03*
%TD*%
D15*
%TO.C,U11*%
X249937500Y-76950000D03*
X249937500Y-75050000D03*
X248062500Y-76000000D03*
%TD*%
D12*
%TO.C,TP4*%
X258500000Y-76500000D03*
%TD*%
D10*
%TO.C,D9*%
X209287500Y-77000000D03*
X207712500Y-77000000D03*
%TD*%
%TO.C,D1*%
X33287500Y-77000000D03*
X31712500Y-77000000D03*
%TD*%
%TO.C,D12*%
X275287500Y-77000000D03*
X273712500Y-77000000D03*
%TD*%
D15*
%TO.C,U10*%
X227937500Y-76950000D03*
X227937500Y-75050000D03*
X226062500Y-76000000D03*
%TD*%
D17*
%TO.C,C13*%
X190275000Y-78500000D03*
X188725000Y-78500000D03*
%TD*%
D10*
%TO.C,D7*%
X165287500Y-77000000D03*
X163712500Y-77000000D03*
%TD*%
D11*
%TO.C,C2*%
X50225000Y-78500000D03*
X51775000Y-78500000D03*
%TD*%
%TO.C,C14*%
X113725000Y-73500000D03*
X115275000Y-73500000D03*
%TD*%
D13*
%TO.C,R1*%
X31675000Y-75000000D03*
X33325000Y-75000000D03*
%TD*%
%TO.C,R2*%
X53675000Y-75000000D03*
X55325000Y-75000000D03*
%TD*%
D11*
%TO.C,C11*%
X248225000Y-78500000D03*
X249775000Y-78500000D03*
%TD*%
%TO.C,C12*%
X270225000Y-78500000D03*
X271775000Y-78500000D03*
%TD*%
D10*
%TO.C,D5*%
X121287500Y-77000000D03*
X119712500Y-77000000D03*
%TD*%
D13*
%TO.C,R3*%
X75675000Y-75000000D03*
X77325000Y-75000000D03*
%TD*%
%TO.C,R4*%
X97675000Y-75000000D03*
X99325000Y-75000000D03*
%TD*%
G36*
X199553982Y-77863243D02*
G01*
X199554372Y-77865205D01*
X199553589Y-77866225D01*
X199550422Y-77868341D01*
X199512757Y-77916117D01*
X199510382Y-77976572D01*
X199544159Y-78027124D01*
X199550184Y-78031500D01*
X199553589Y-78033775D01*
X199554474Y-78035569D01*
X199553363Y-78037232D01*
X199552088Y-78037400D01*
X199499801Y-78027000D01*
X198225199Y-78027000D01*
X198172912Y-78037400D01*
X198171018Y-78036757D01*
X198170628Y-78034795D01*
X198171411Y-78033775D01*
X198174578Y-78031659D01*
X198212243Y-77983883D01*
X198214618Y-77923428D01*
X198180841Y-77872876D01*
X198174816Y-77868500D01*
X198171411Y-77866225D01*
X198170526Y-77864431D01*
X198171637Y-77862768D01*
X198172912Y-77862600D01*
X198225199Y-77873000D01*
X199499801Y-77873000D01*
X199552088Y-77862600D01*
X199553982Y-77863243D01*
G37*
G36*
X105828982Y-77863243D02*
G01*
X105829372Y-77865205D01*
X105828589Y-77866225D01*
X105825422Y-77868341D01*
X105787757Y-77916117D01*
X105785382Y-77976572D01*
X105819159Y-78027124D01*
X105825184Y-78031500D01*
X105828589Y-78033775D01*
X105829474Y-78035569D01*
X105828363Y-78037232D01*
X105827088Y-78037400D01*
X105774801Y-78027000D01*
X104500199Y-78027000D01*
X104447912Y-78037400D01*
X104446018Y-78036757D01*
X104445628Y-78034795D01*
X104446411Y-78033775D01*
X104449578Y-78031659D01*
X104487243Y-77983883D01*
X104489618Y-77923428D01*
X104455841Y-77872876D01*
X104449816Y-77868500D01*
X104446411Y-77866225D01*
X104445526Y-77864431D01*
X104446637Y-77862768D01*
X104447912Y-77862600D01*
X104500199Y-77873000D01*
X105774801Y-77873000D01*
X105827088Y-77862600D01*
X105828982Y-77863243D01*
G37*
G36*
X193828982Y-77863243D02*
G01*
X193829372Y-77865205D01*
X193828589Y-77866225D01*
X193825422Y-77868341D01*
X193787757Y-77916117D01*
X193785382Y-77976572D01*
X193819159Y-78027124D01*
X193825184Y-78031500D01*
X193828589Y-78033775D01*
X193829474Y-78035569D01*
X193828363Y-78037232D01*
X193827088Y-78037400D01*
X193774801Y-78027000D01*
X192500199Y-78027000D01*
X192447912Y-78037400D01*
X192446018Y-78036757D01*
X192445628Y-78034795D01*
X192446411Y-78033775D01*
X192449578Y-78031659D01*
X192487243Y-77983883D01*
X192489618Y-77923428D01*
X192455841Y-77872876D01*
X192449816Y-77868500D01*
X192446411Y-77866225D01*
X192445526Y-77864431D01*
X192446637Y-77862768D01*
X192447912Y-77862600D01*
X192500199Y-77873000D01*
X193774801Y-77873000D01*
X193827088Y-77862600D01*
X193828982Y-77863243D01*
G37*
G36*
X111553982Y-77863243D02*
G01*
X111554372Y-77865205D01*
X111553589Y-77866225D01*
X111550422Y-77868341D01*
X111512757Y-77916117D01*
X111510382Y-77976572D01*
X111544159Y-78027124D01*
X111550184Y-78031500D01*
X111553589Y-78033775D01*
X111554474Y-78035569D01*
X111553363Y-78037232D01*
X111552088Y-78037400D01*
X111499801Y-78027000D01*
X110225199Y-78027000D01*
X110172912Y-78037400D01*
X110171018Y-78036757D01*
X110170628Y-78034795D01*
X110171411Y-78033775D01*
X110174578Y-78031659D01*
X110212243Y-77983883D01*
X110214618Y-77923428D01*
X110180841Y-77872876D01*
X110174816Y-77868500D01*
X110171411Y-77866225D01*
X110170526Y-77864431D01*
X110171637Y-77862768D01*
X110172912Y-77862600D01*
X110225199Y-77873000D01*
X111499801Y-77873000D01*
X111552088Y-77862600D01*
X111553982Y-77863243D01*
G37*
G36*
X199553982Y-77213243D02*
G01*
X199554372Y-77215205D01*
X199553589Y-77216225D01*
X199550422Y-77218341D01*
X199512757Y-77266117D01*
X199510382Y-77326572D01*
X199544159Y-77377124D01*
X199550184Y-77381500D01*
X199553589Y-77383775D01*
X199554474Y-77385569D01*
X199553363Y-77387232D01*
X199552088Y-77387400D01*
X199499801Y-77377000D01*
X198225199Y-77377000D01*
X198172912Y-77387400D01*
X198171018Y-77386757D01*
X198170628Y-77384795D01*
X198171411Y-77383775D01*
X198174578Y-77381659D01*
X198212243Y-77333883D01*
X198214618Y-77273428D01*
X198180841Y-77222876D01*
X198174816Y-77218500D01*
X198171411Y-77216225D01*
X198170526Y-77214431D01*
X198171637Y-77212768D01*
X198172912Y-77212600D01*
X198225199Y-77223000D01*
X199499801Y-77223000D01*
X199552088Y-77212600D01*
X199553982Y-77213243D01*
G37*
G36*
X193828982Y-77213243D02*
G01*
X193829372Y-77215205D01*
X193828589Y-77216225D01*
X193825422Y-77218341D01*
X193787757Y-77266117D01*
X193785382Y-77326572D01*
X193819159Y-77377124D01*
X193825184Y-77381500D01*
X193828589Y-77383775D01*
X193829474Y-77385569D01*
X193828363Y-77387232D01*
X193827088Y-77387400D01*
X193774801Y-77377000D01*
X192500199Y-77377000D01*
X192447912Y-77387400D01*
X192446018Y-77386757D01*
X192445628Y-77384795D01*
X192446411Y-77383775D01*
X192449578Y-77381659D01*
X192487243Y-77333883D01*
X192489618Y-77273428D01*
X192455841Y-77222876D01*
X192449816Y-77218500D01*
X192446411Y-77216225D01*
X192445526Y-77214431D01*
X192446637Y-77212768D01*
X192447912Y-77212600D01*
X192500199Y-77223000D01*
X193774801Y-77223000D01*
X193827088Y-77212600D01*
X193828982Y-77213243D01*
G37*
G36*
X105828982Y-77213243D02*
G01*
X105829372Y-77215205D01*
X105828589Y-77216225D01*
X105825422Y-77218341D01*
X105787757Y-77266117D01*
X105785382Y-77326572D01*
X105819159Y-77377124D01*
X105825184Y-77381500D01*
X105828589Y-77383775D01*
X105829474Y-77385569D01*
X105828363Y-77387232D01*
X105827088Y-77387400D01*
X105774801Y-77377000D01*
X104500199Y-77377000D01*
X104447912Y-77387400D01*
X104446018Y-77386757D01*
X104445628Y-77384795D01*
X104446411Y-77383775D01*
X104449578Y-77381659D01*
X104487243Y-77333883D01*
X104489618Y-77273428D01*
X104455841Y-77222876D01*
X104449816Y-77218500D01*
X104446411Y-77216225D01*
X104445526Y-77214431D01*
X104446637Y-77212768D01*
X104447912Y-77212600D01*
X104500199Y-77223000D01*
X105774801Y-77223000D01*
X105827088Y-77212600D01*
X105828982Y-77213243D01*
G37*
G36*
X111553982Y-77213243D02*
G01*
X111554372Y-77215205D01*
X111553589Y-77216225D01*
X111550422Y-77218341D01*
X111512757Y-77266117D01*
X111510382Y-77326572D01*
X111544159Y-77377124D01*
X111550184Y-77381500D01*
X111553589Y-77383775D01*
X111554474Y-77385569D01*
X111553363Y-77387232D01*
X111552088Y-77387400D01*
X111499801Y-77377000D01*
X110225199Y-77377000D01*
X110172912Y-77387400D01*
X110171018Y-77386757D01*
X110170628Y-77384795D01*
X110171411Y-77383775D01*
X110174578Y-77381659D01*
X110212243Y-77333883D01*
X110214618Y-77273428D01*
X110180841Y-77222876D01*
X110174816Y-77218500D01*
X110171411Y-77216225D01*
X110170526Y-77214431D01*
X110171637Y-77212768D01*
X110172912Y-77212600D01*
X110225199Y-77223000D01*
X111499801Y-77223000D01*
X111552088Y-77212600D01*
X111553982Y-77213243D01*
G37*
G36*
X199553982Y-76563243D02*
G01*
X199554372Y-76565205D01*
X199553589Y-76566225D01*
X199550422Y-76568341D01*
X199512757Y-76616117D01*
X199510382Y-76676572D01*
X199544159Y-76727124D01*
X199550184Y-76731500D01*
X199553589Y-76733775D01*
X199554474Y-76735569D01*
X199553363Y-76737232D01*
X199552088Y-76737400D01*
X199499801Y-76727000D01*
X198225199Y-76727000D01*
X198172912Y-76737400D01*
X198171018Y-76736757D01*
X198170628Y-76734795D01*
X198171411Y-76733775D01*
X198174578Y-76731659D01*
X198212243Y-76683883D01*
X198214618Y-76623428D01*
X198180841Y-76572876D01*
X198174816Y-76568500D01*
X198171411Y-76566225D01*
X198170526Y-76564431D01*
X198171637Y-76562768D01*
X198172912Y-76562600D01*
X198225199Y-76573000D01*
X199499801Y-76573000D01*
X199552088Y-76562600D01*
X199553982Y-76563243D01*
G37*
G36*
X193828982Y-76563243D02*
G01*
X193829372Y-76565205D01*
X193828589Y-76566225D01*
X193825422Y-76568341D01*
X193787757Y-76616117D01*
X193785382Y-76676572D01*
X193819159Y-76727124D01*
X193825184Y-76731500D01*
X193828589Y-76733775D01*
X193829474Y-76735569D01*
X193828363Y-76737232D01*
X193827088Y-76737400D01*
X193774801Y-76727000D01*
X192500199Y-76727000D01*
X192447912Y-76737400D01*
X192446018Y-76736757D01*
X192445628Y-76734795D01*
X192446411Y-76733775D01*
X192449578Y-76731659D01*
X192487243Y-76683883D01*
X192489618Y-76623428D01*
X192455841Y-76572876D01*
X192449816Y-76568500D01*
X192446411Y-76566225D01*
X192445526Y-76564431D01*
X192446637Y-76562768D01*
X192447912Y-76562600D01*
X192500199Y-76573000D01*
X193774801Y-76573000D01*
X193827088Y-76562600D01*
X193828982Y-76563243D01*
G37*
G36*
X105828982Y-76563243D02*
G01*
X105829372Y-76565205D01*
X105828589Y-76566225D01*
X105825422Y-76568341D01*
X105787757Y-76616117D01*
X105785382Y-76676572D01*
X105819159Y-76727124D01*
X105825184Y-76731500D01*
X105828589Y-76733775D01*
X105829474Y-76735569D01*
X105828363Y-76737232D01*
X105827088Y-76737400D01*
X105774801Y-76727000D01*
X104500199Y-76727000D01*
X104447912Y-76737400D01*
X104446018Y-76736757D01*
X104445628Y-76734795D01*
X104446411Y-76733775D01*
X104449578Y-76731659D01*
X104487243Y-76683883D01*
X104489618Y-76623428D01*
X104455841Y-76572876D01*
X104449816Y-76568500D01*
X104446411Y-76566225D01*
X104445526Y-76564431D01*
X104446637Y-76562768D01*
X104447912Y-76562600D01*
X104500199Y-76573000D01*
X105774801Y-76573000D01*
X105827088Y-76562600D01*
X105828982Y-76563243D01*
G37*
G36*
X111553982Y-76563243D02*
G01*
X111554372Y-76565205D01*
X111553589Y-76566225D01*
X111550422Y-76568341D01*
X111512757Y-76616117D01*
X111510382Y-76676572D01*
X111544159Y-76727124D01*
X111550184Y-76731500D01*
X111553589Y-76733775D01*
X111554474Y-76735569D01*
X111553363Y-76737232D01*
X111552088Y-76737400D01*
X111499801Y-76727000D01*
X110225199Y-76727000D01*
X110172912Y-76737400D01*
X110171018Y-76736757D01*
X110170628Y-76734795D01*
X110171411Y-76733775D01*
X110174578Y-76731659D01*
X110212243Y-76683883D01*
X110214618Y-76623428D01*
X110180841Y-76572876D01*
X110174816Y-76568500D01*
X110171411Y-76566225D01*
X110170526Y-76564431D01*
X110171637Y-76562768D01*
X110172912Y-76562600D01*
X110225199Y-76573000D01*
X111499801Y-76573000D01*
X111552088Y-76562600D01*
X111553982Y-76563243D01*
G37*
G36*
X199553982Y-75913243D02*
G01*
X199554372Y-75915205D01*
X199553589Y-75916225D01*
X199550422Y-75918341D01*
X199512757Y-75966117D01*
X199510382Y-76026572D01*
X199544159Y-76077124D01*
X199550184Y-76081500D01*
X199553589Y-76083775D01*
X199554474Y-76085569D01*
X199553363Y-76087232D01*
X199552088Y-76087400D01*
X199499801Y-76077000D01*
X198225199Y-76077000D01*
X198172912Y-76087400D01*
X198171018Y-76086757D01*
X198170628Y-76084795D01*
X198171411Y-76083775D01*
X198174578Y-76081659D01*
X198212243Y-76033883D01*
X198214618Y-75973428D01*
X198180841Y-75922876D01*
X198174816Y-75918500D01*
X198171411Y-75916225D01*
X198170526Y-75914431D01*
X198171637Y-75912768D01*
X198172912Y-75912600D01*
X198225199Y-75923000D01*
X199499801Y-75923000D01*
X199552088Y-75912600D01*
X199553982Y-75913243D01*
G37*
G36*
X193828982Y-75913243D02*
G01*
X193829372Y-75915205D01*
X193828589Y-75916225D01*
X193825422Y-75918341D01*
X193787757Y-75966117D01*
X193785382Y-76026572D01*
X193819159Y-76077124D01*
X193825184Y-76081500D01*
X193828589Y-76083775D01*
X193829474Y-76085569D01*
X193828363Y-76087232D01*
X193827088Y-76087400D01*
X193774801Y-76077000D01*
X192500199Y-76077000D01*
X192447912Y-76087400D01*
X192446018Y-76086757D01*
X192445628Y-76084795D01*
X192446411Y-76083775D01*
X192449578Y-76081659D01*
X192487243Y-76033883D01*
X192489618Y-75973428D01*
X192455841Y-75922876D01*
X192449816Y-75918500D01*
X192446411Y-75916225D01*
X192445526Y-75914431D01*
X192446637Y-75912768D01*
X192447912Y-75912600D01*
X192500199Y-75923000D01*
X193774801Y-75923000D01*
X193827088Y-75912600D01*
X193828982Y-75913243D01*
G37*
G36*
X111553982Y-75913243D02*
G01*
X111554372Y-75915205D01*
X111553589Y-75916225D01*
X111550422Y-75918341D01*
X111512757Y-75966117D01*
X111510382Y-76026572D01*
X111544159Y-76077124D01*
X111550184Y-76081500D01*
X111553589Y-76083775D01*
X111554474Y-76085569D01*
X111553363Y-76087232D01*
X111552088Y-76087400D01*
X111499801Y-76077000D01*
X110225199Y-76077000D01*
X110172912Y-76087400D01*
X110171018Y-76086757D01*
X110170628Y-76084795D01*
X110171411Y-76083775D01*
X110174578Y-76081659D01*
X110212243Y-76033883D01*
X110214618Y-75973428D01*
X110180841Y-75922876D01*
X110174816Y-75918500D01*
X110171411Y-75916225D01*
X110170526Y-75914431D01*
X110171637Y-75912768D01*
X110172912Y-75912600D01*
X110225199Y-75923000D01*
X111499801Y-75923000D01*
X111552088Y-75912600D01*
X111553982Y-75913243D01*
G37*
G36*
X105828982Y-75913243D02*
G01*
X105829372Y-75915205D01*
X105828589Y-75916225D01*
X105825422Y-75918341D01*
X105787757Y-75966117D01*
X105785382Y-76026572D01*
X105819159Y-76077124D01*
X105825184Y-76081500D01*
X105828589Y-76083775D01*
X105829474Y-76085569D01*
X105828363Y-76087232D01*
X105827088Y-76087400D01*
X105774801Y-76077000D01*
X104500199Y-76077000D01*
X104447912Y-76087400D01*
X104446018Y-76086757D01*
X104445628Y-76084795D01*
X104446411Y-76083775D01*
X104449578Y-76081659D01*
X104487243Y-76033883D01*
X104489618Y-75973428D01*
X104455841Y-75922876D01*
X104449816Y-75918500D01*
X104446411Y-75916225D01*
X104445526Y-75914431D01*
X104446637Y-75912768D01*
X104447912Y-75912600D01*
X104500199Y-75923000D01*
X105774801Y-75923000D01*
X105827088Y-75912600D01*
X105828982Y-75913243D01*
G37*
G36*
X111553982Y-75263243D02*
G01*
X111554372Y-75265205D01*
X111553589Y-75266225D01*
X111550422Y-75268341D01*
X111512757Y-75316117D01*
X111510382Y-75376572D01*
X111544159Y-75427124D01*
X111550184Y-75431500D01*
X111553589Y-75433775D01*
X111554474Y-75435569D01*
X111553363Y-75437232D01*
X111552088Y-75437400D01*
X111499801Y-75427000D01*
X110225199Y-75427000D01*
X110172912Y-75437400D01*
X110171018Y-75436757D01*
X110170628Y-75434795D01*
X110171411Y-75433775D01*
X110174578Y-75431659D01*
X110212243Y-75383883D01*
X110214618Y-75323428D01*
X110180841Y-75272876D01*
X110174816Y-75268500D01*
X110171411Y-75266225D01*
X110170526Y-75264431D01*
X110171637Y-75262768D01*
X110172912Y-75262600D01*
X110225199Y-75273000D01*
X111499801Y-75273000D01*
X111552088Y-75262600D01*
X111553982Y-75263243D01*
G37*
G36*
X105828982Y-75263243D02*
G01*
X105829372Y-75265205D01*
X105828589Y-75266225D01*
X105825422Y-75268341D01*
X105787757Y-75316117D01*
X105785382Y-75376572D01*
X105819159Y-75427124D01*
X105825184Y-75431500D01*
X105828589Y-75433775D01*
X105829474Y-75435569D01*
X105828363Y-75437232D01*
X105827088Y-75437400D01*
X105774801Y-75427000D01*
X104500199Y-75427000D01*
X104447912Y-75437400D01*
X104446018Y-75436757D01*
X104445628Y-75434795D01*
X104446411Y-75433775D01*
X104449578Y-75431659D01*
X104487243Y-75383883D01*
X104489618Y-75323428D01*
X104455841Y-75272876D01*
X104449816Y-75268500D01*
X104446411Y-75266225D01*
X104445526Y-75264431D01*
X104446637Y-75262768D01*
X104447912Y-75262600D01*
X104500199Y-75273000D01*
X105774801Y-75273000D01*
X105827088Y-75262600D01*
X105828982Y-75263243D01*
G37*
G36*
X199553982Y-75263243D02*
G01*
X199554372Y-75265205D01*
X199553589Y-75266225D01*
X199550422Y-75268341D01*
X199512757Y-75316117D01*
X199510382Y-75376572D01*
X199544159Y-75427124D01*
X199550184Y-75431500D01*
X199553589Y-75433775D01*
X199554474Y-75435569D01*
X199553363Y-75437232D01*
X199552088Y-75437400D01*
X199499801Y-75427000D01*
X198225199Y-75427000D01*
X198172912Y-75437400D01*
X198171018Y-75436757D01*
X198170628Y-75434795D01*
X198171411Y-75433775D01*
X198174578Y-75431659D01*
X198212243Y-75383883D01*
X198214618Y-75323428D01*
X198180841Y-75272876D01*
X198174816Y-75268500D01*
X198171411Y-75266225D01*
X198170526Y-75264431D01*
X198171637Y-75262768D01*
X198172912Y-75262600D01*
X198225199Y-75273000D01*
X199499801Y-75273000D01*
X199552088Y-75262600D01*
X199553982Y-75263243D01*
G37*
G36*
X193828982Y-75263243D02*
G01*
X193829372Y-75265205D01*
X193828589Y-75266225D01*
X193825422Y-75268341D01*
X193787757Y-75316117D01*
X193785382Y-75376572D01*
X193819159Y-75427124D01*
X193825184Y-75431500D01*
X193828589Y-75433775D01*
X193829474Y-75435569D01*
X193828363Y-75437232D01*
X193827088Y-75437400D01*
X193774801Y-75427000D01*
X192500199Y-75427000D01*
X192447912Y-75437400D01*
X192446018Y-75436757D01*
X192445628Y-75434795D01*
X192446411Y-75433775D01*
X192449578Y-75431659D01*
X192487243Y-75383883D01*
X192489618Y-75323428D01*
X192455841Y-75272876D01*
X192449816Y-75268500D01*
X192446411Y-75266225D01*
X192445526Y-75264431D01*
X192446637Y-75262768D01*
X192447912Y-75262600D01*
X192500199Y-75273000D01*
X193774801Y-75273000D01*
X193827088Y-75262600D01*
X193828982Y-75263243D01*
G37*
G36*
X111553982Y-74613243D02*
G01*
X111554372Y-74615205D01*
X111553589Y-74616225D01*
X111550422Y-74618341D01*
X111512757Y-74666117D01*
X111510382Y-74726572D01*
X111544159Y-74777124D01*
X111550184Y-74781500D01*
X111553589Y-74783775D01*
X111554474Y-74785569D01*
X111553363Y-74787232D01*
X111552088Y-74787400D01*
X111499801Y-74777000D01*
X110225199Y-74777000D01*
X110172912Y-74787400D01*
X110171018Y-74786757D01*
X110170628Y-74784795D01*
X110171411Y-74783775D01*
X110174578Y-74781659D01*
X110212243Y-74733883D01*
X110214618Y-74673428D01*
X110180841Y-74622876D01*
X110174816Y-74618500D01*
X110171411Y-74616225D01*
X110170526Y-74614431D01*
X110171637Y-74612768D01*
X110172912Y-74612600D01*
X110225199Y-74623000D01*
X111499801Y-74623000D01*
X111552088Y-74612600D01*
X111553982Y-74613243D01*
G37*
G36*
X105828982Y-74613243D02*
G01*
X105829372Y-74615205D01*
X105828589Y-74616225D01*
X105825422Y-74618341D01*
X105787757Y-74666117D01*
X105785382Y-74726572D01*
X105819159Y-74777124D01*
X105825184Y-74781500D01*
X105828589Y-74783775D01*
X105829474Y-74785569D01*
X105828363Y-74787232D01*
X105827088Y-74787400D01*
X105774801Y-74777000D01*
X104500199Y-74777000D01*
X104447912Y-74787400D01*
X104446018Y-74786757D01*
X104445628Y-74784795D01*
X104446411Y-74783775D01*
X104449578Y-74781659D01*
X104487243Y-74733883D01*
X104489618Y-74673428D01*
X104455841Y-74622876D01*
X104449816Y-74618500D01*
X104446411Y-74616225D01*
X104445526Y-74614431D01*
X104446637Y-74612768D01*
X104447912Y-74612600D01*
X104500199Y-74623000D01*
X105774801Y-74623000D01*
X105827088Y-74612600D01*
X105828982Y-74613243D01*
G37*
G36*
X199553982Y-74613243D02*
G01*
X199554372Y-74615205D01*
X199553589Y-74616225D01*
X199550422Y-74618341D01*
X199512757Y-74666117D01*
X199510382Y-74726572D01*
X199544159Y-74777124D01*
X199550184Y-74781500D01*
X199553589Y-74783775D01*
X199554474Y-74785569D01*
X199553363Y-74787232D01*
X199552088Y-74787400D01*
X199499801Y-74777000D01*
X198225199Y-74777000D01*
X198172912Y-74787400D01*
X198171018Y-74786757D01*
X198170628Y-74784795D01*
X198171411Y-74783775D01*
X198174578Y-74781659D01*
X198212243Y-74733883D01*
X198214618Y-74673428D01*
X198180841Y-74622876D01*
X198174816Y-74618500D01*
X198171411Y-74616225D01*
X198170526Y-74614431D01*
X198171637Y-74612768D01*
X198172912Y-74612600D01*
X198225199Y-74623000D01*
X199499801Y-74623000D01*
X199552088Y-74612600D01*
X199553982Y-74613243D01*
G37*
G36*
X193828982Y-74613243D02*
G01*
X193829372Y-74615205D01*
X193828589Y-74616225D01*
X193825422Y-74618341D01*
X193787757Y-74666117D01*
X193785382Y-74726572D01*
X193819159Y-74777124D01*
X193825184Y-74781500D01*
X193828589Y-74783775D01*
X193829474Y-74785569D01*
X193828363Y-74787232D01*
X193827088Y-74787400D01*
X193774801Y-74777000D01*
X192500199Y-74777000D01*
X192447912Y-74787400D01*
X192446018Y-74786757D01*
X192445628Y-74784795D01*
X192446411Y-74783775D01*
X192449578Y-74781659D01*
X192487243Y-74733883D01*
X192489618Y-74673428D01*
X192455841Y-74622876D01*
X192449816Y-74618500D01*
X192446411Y-74616225D01*
X192445526Y-74614431D01*
X192446637Y-74612768D01*
X192447912Y-74612600D01*
X192500199Y-74623000D01*
X193774801Y-74623000D01*
X193827088Y-74612600D01*
X193828982Y-74613243D01*
G37*
G36*
X193828982Y-73963243D02*
G01*
X193829372Y-73965205D01*
X193828589Y-73966225D01*
X193825422Y-73968341D01*
X193787757Y-74016117D01*
X193785382Y-74076572D01*
X193819159Y-74127124D01*
X193825184Y-74131500D01*
X193828589Y-74133775D01*
X193829474Y-74135569D01*
X193828363Y-74137232D01*
X193827088Y-74137400D01*
X193774801Y-74127000D01*
X192500199Y-74127000D01*
X192447912Y-74137400D01*
X192446018Y-74136757D01*
X192445628Y-74134795D01*
X192446411Y-74133775D01*
X192449578Y-74131659D01*
X192487243Y-74083883D01*
X192489618Y-74023428D01*
X192455841Y-73972876D01*
X192449816Y-73968500D01*
X192446411Y-73966225D01*
X192445526Y-73964431D01*
X192446637Y-73962768D01*
X192447912Y-73962600D01*
X192500199Y-73973000D01*
X193774801Y-73973000D01*
X193827088Y-73962600D01*
X193828982Y-73963243D01*
G37*
G36*
X105828982Y-73963243D02*
G01*
X105829372Y-73965205D01*
X105828589Y-73966225D01*
X105825422Y-73968341D01*
X105787757Y-74016117D01*
X105785382Y-74076572D01*
X105819159Y-74127124D01*
X105825184Y-74131500D01*
X105828589Y-74133775D01*
X105829474Y-74135569D01*
X105828363Y-74137232D01*
X105827088Y-74137400D01*
X105774801Y-74127000D01*
X104500199Y-74127000D01*
X104447912Y-74137400D01*
X104446018Y-74136757D01*
X104445628Y-74134795D01*
X104446411Y-74133775D01*
X104449578Y-74131659D01*
X104487243Y-74083883D01*
X104489618Y-74023428D01*
X104455841Y-73972876D01*
X104449816Y-73968500D01*
X104446411Y-73966225D01*
X104445526Y-73964431D01*
X104446637Y-73962768D01*
X104447912Y-73962600D01*
X104500199Y-73973000D01*
X105774801Y-73973000D01*
X105827088Y-73962600D01*
X105828982Y-73963243D01*
G37*
G36*
X199553982Y-73963243D02*
G01*
X199554372Y-73965205D01*
X199553589Y-73966225D01*
X199550422Y-73968341D01*
X199512757Y-74016117D01*
X199510382Y-74076572D01*
X199544159Y-74127124D01*
X199550184Y-74131500D01*
X199553589Y-74133775D01*
X199554474Y-74135569D01*
X199553363Y-74137232D01*
X199552088Y-74137400D01*
X199499801Y-74127000D01*
X198225199Y-74127000D01*
X198172912Y-74137400D01*
X198171018Y-74136757D01*
X198170628Y-74134795D01*
X198171411Y-74133775D01*
X198174578Y-74131659D01*
X198212243Y-74083883D01*
X198214618Y-74023428D01*
X198180841Y-73972876D01*
X198174816Y-73968500D01*
X198171411Y-73966225D01*
X198170526Y-73964431D01*
X198171637Y-73962768D01*
X198172912Y-73962600D01*
X198225199Y-73973000D01*
X199499801Y-73973000D01*
X199552088Y-73962600D01*
X199553982Y-73963243D01*
G37*
G36*
X111553982Y-73963243D02*
G01*
X111554372Y-73965205D01*
X111553589Y-73966225D01*
X111550422Y-73968341D01*
X111512757Y-74016117D01*
X111510382Y-74076572D01*
X111544159Y-74127124D01*
X111550184Y-74131500D01*
X111553589Y-74133775D01*
X111554474Y-74135569D01*
X111553363Y-74137232D01*
X111552088Y-74137400D01*
X111499801Y-74127000D01*
X110225199Y-74127000D01*
X110172912Y-74137400D01*
X110171018Y-74136757D01*
X110170628Y-74134795D01*
X110171411Y-74133775D01*
X110174578Y-74131659D01*
X110212243Y-74083883D01*
X110214618Y-74023428D01*
X110180841Y-73972876D01*
X110174816Y-73968500D01*
X110171411Y-73966225D01*
X110170526Y-73964431D01*
X110171637Y-73962768D01*
X110172912Y-73962600D01*
X110225199Y-73973000D01*
X111499801Y-73973000D01*
X111552088Y-73962600D01*
X111553982Y-73963243D01*
G37*
M02*
