%TF.GenerationSoftware,KiCad,Pcbnew,5.99.0-76a6177eb7*%
%TF.CreationDate,2022-05-04T15:01:27+02:00*%
%TF.ProjectId,kicker-counter,6b69636b-6572-42d6-936f-756e7465722e,0.1.0*%
%TF.SameCoordinates,Original*%
%TF.FileFunction,Paste,Top*%
%TF.FilePolarity,Positive*%
%FSLAX46Y46*%
G04 Gerber Fmt 4.6, Leading zero omitted, Abs format (unit mm)*
G04 Created by KiCad (PCBNEW 5.99.0-76a6177eb7) date 2022-05-04 15:01:27*
%MOMM*%
%LPD*%
G01*
G04 APERTURE LIST*
G04 Aperture macros list*
%AMRoundRect*
0 Rectangle with rounded corners*
0 $1 Rounding radius*
0 $2 $3 $4 $5 $6 $7 $8 $9 X,Y pos of 4 corners*
0 Add a 4 corners polygon primitive as box body*
4,1,4,$2,$3,$4,$5,$6,$7,$8,$9,$2,$3,0*
0 Add four circle primitives for the rounded corners*
1,1,$1+$1,$2,$3*
1,1,$1+$1,$4,$5*
1,1,$1+$1,$6,$7*
1,1,$1+$1,$8,$9*
0 Add four rect primitives between the rounded corners*
20,1,$1+$1,$2,$3,$4,$5,0*
20,1,$1+$1,$4,$5,$6,$7,0*
20,1,$1+$1,$6,$7,$8,$9,0*
20,1,$1+$1,$8,$9,$2,$3,0*%
G04 Aperture macros list end*
%ADD10RoundRect,0.218750X0.218750X0.256250X-0.218750X0.256250X-0.218750X-0.256250X0.218750X-0.256250X0*%
%ADD11RoundRect,0.225000X-0.225000X-0.250000X0.225000X-0.250000X0.225000X0.250000X-0.225000X0.250000X0*%
%ADD12RoundRect,0.200000X-0.200000X-0.275000X0.200000X-0.275000X0.200000X0.275000X-0.200000X0.275000X0*%
%ADD13RoundRect,0.100000X0.637500X0.100000X-0.637500X0.100000X-0.637500X-0.100000X0.637500X-0.100000X0*%
%ADD14RoundRect,0.150000X0.587500X0.150000X-0.587500X0.150000X-0.587500X-0.150000X0.587500X-0.150000X0*%
%ADD15RoundRect,0.100000X-0.637500X-0.100000X0.637500X-0.100000X0.637500X0.100000X-0.637500X0.100000X0*%
%ADD16RoundRect,0.225000X0.225000X0.250000X-0.225000X0.250000X-0.225000X-0.250000X0.225000X-0.250000X0*%
G04 APERTURE END LIST*
D10*
%TO.C,D6*%
X143287500Y-77000000D03*
X141712500Y-77000000D03*
%TD*%
D11*
%TO.C,C4*%
X94225000Y-78500000D03*
X95775000Y-78500000D03*
%TD*%
%TO.C,C7*%
X160225000Y-78500000D03*
X161775000Y-78500000D03*
%TD*%
%TO.C,C3*%
X72225000Y-78500000D03*
X73775000Y-78500000D03*
%TD*%
D12*
%TO.C,R5*%
X119675000Y-75000000D03*
X121325000Y-75000000D03*
%TD*%
D10*
%TO.C,D10*%
X231287500Y-77000000D03*
X229712500Y-77000000D03*
%TD*%
D12*
%TO.C,R12*%
X273675000Y-75000000D03*
X275325000Y-75000000D03*
%TD*%
D10*
%TO.C,D11*%
X253287500Y-77000000D03*
X251712500Y-77000000D03*
%TD*%
%TO.C,D2*%
X55287500Y-77000000D03*
X53712500Y-77000000D03*
%TD*%
D13*
%TO.C,U14*%
X198862500Y-78275000D03*
X198862500Y-77625000D03*
X198862500Y-76975000D03*
X198862500Y-76325000D03*
X198862500Y-75675000D03*
X198862500Y-75025000D03*
X198862500Y-74375000D03*
X198862500Y-73725000D03*
X193137500Y-73725000D03*
X193137500Y-74375000D03*
X193137500Y-75025000D03*
X193137500Y-75675000D03*
X193137500Y-76325000D03*
X193137500Y-76975000D03*
X193137500Y-77625000D03*
X193137500Y-78275000D03*
%TD*%
D14*
%TO.C,U4*%
X95937500Y-76950000D03*
X95937500Y-75050000D03*
X94062500Y-76000000D03*
%TD*%
D11*
%TO.C,C9*%
X204225000Y-78500000D03*
X205775000Y-78500000D03*
%TD*%
D14*
%TO.C,U7*%
X161937500Y-76950000D03*
X161937500Y-75050000D03*
X160062500Y-76000000D03*
%TD*%
D11*
%TO.C,C6*%
X138225000Y-78500000D03*
X139775000Y-78500000D03*
%TD*%
D12*
%TO.C,R10*%
X229675000Y-75000000D03*
X231325000Y-75000000D03*
%TD*%
%TO.C,R8*%
X185675000Y-75000000D03*
X187325000Y-75000000D03*
%TD*%
D10*
%TO.C,D3*%
X77287500Y-77000000D03*
X75712500Y-77000000D03*
%TD*%
D11*
%TO.C,C8*%
X182225000Y-78500000D03*
X183775000Y-78500000D03*
%TD*%
D14*
%TO.C,U6*%
X139937500Y-76950000D03*
X139937500Y-75050000D03*
X138062500Y-76000000D03*
%TD*%
D10*
%TO.C,D8*%
X187287500Y-77000000D03*
X185712500Y-77000000D03*
%TD*%
D14*
%TO.C,U8*%
X183937500Y-76950000D03*
X183937500Y-75050000D03*
X182062500Y-76000000D03*
%TD*%
%TO.C,U1*%
X29937500Y-76950000D03*
X29937500Y-75050000D03*
X28062500Y-76000000D03*
%TD*%
D12*
%TO.C,R7*%
X163675000Y-75000000D03*
X165325000Y-75000000D03*
%TD*%
D14*
%TO.C,U3*%
X73937500Y-76950000D03*
X73937500Y-75050000D03*
X72062500Y-76000000D03*
%TD*%
%TO.C,U9*%
X205937500Y-76950000D03*
X205937500Y-75050000D03*
X204062500Y-76000000D03*
%TD*%
%TO.C,U12*%
X271937500Y-76950000D03*
X271937500Y-75050000D03*
X270062500Y-76000000D03*
%TD*%
D12*
%TO.C,R6*%
X141675000Y-75000000D03*
X143325000Y-75000000D03*
%TD*%
D11*
%TO.C,C1*%
X28225000Y-78500000D03*
X29775000Y-78500000D03*
%TD*%
%TO.C,C15*%
X264225000Y-78500000D03*
X265775000Y-78500000D03*
%TD*%
%TO.C,C5*%
X116225000Y-78500000D03*
X117775000Y-78500000D03*
%TD*%
D10*
%TO.C,D4*%
X99287500Y-77000000D03*
X97712500Y-77000000D03*
%TD*%
D14*
%TO.C,U2*%
X51937500Y-76950000D03*
X51937500Y-75050000D03*
X50062500Y-76000000D03*
%TD*%
D11*
%TO.C,C10*%
X226225000Y-78500000D03*
X227775000Y-78500000D03*
%TD*%
D12*
%TO.C,R9*%
X207675000Y-75000000D03*
X209325000Y-75000000D03*
%TD*%
%TO.C,R11*%
X251675000Y-75000000D03*
X253325000Y-75000000D03*
%TD*%
D14*
%TO.C,U5*%
X117937500Y-76950000D03*
X117937500Y-75050000D03*
X116062500Y-76000000D03*
%TD*%
D15*
%TO.C,U13*%
X105137500Y-73725000D03*
X105137500Y-74375000D03*
X105137500Y-75025000D03*
X105137500Y-75675000D03*
X105137500Y-76325000D03*
X105137500Y-76975000D03*
X105137500Y-77625000D03*
X105137500Y-78275000D03*
X110862500Y-78275000D03*
X110862500Y-77625000D03*
X110862500Y-76975000D03*
X110862500Y-76325000D03*
X110862500Y-75675000D03*
X110862500Y-75025000D03*
X110862500Y-74375000D03*
X110862500Y-73725000D03*
%TD*%
D14*
%TO.C,U11*%
X249937500Y-76950000D03*
X249937500Y-75050000D03*
X248062500Y-76000000D03*
%TD*%
D10*
%TO.C,D9*%
X209287500Y-77000000D03*
X207712500Y-77000000D03*
%TD*%
%TO.C,D1*%
X33287500Y-77000000D03*
X31712500Y-77000000D03*
%TD*%
%TO.C,D12*%
X275287500Y-77000000D03*
X273712500Y-77000000D03*
%TD*%
D14*
%TO.C,U10*%
X227937500Y-76950000D03*
X227937500Y-75050000D03*
X226062500Y-76000000D03*
%TD*%
D16*
%TO.C,C13*%
X190275000Y-78500000D03*
X188725000Y-78500000D03*
%TD*%
D10*
%TO.C,D7*%
X165287500Y-77000000D03*
X163712500Y-77000000D03*
%TD*%
D11*
%TO.C,C2*%
X50225000Y-78500000D03*
X51775000Y-78500000D03*
%TD*%
%TO.C,C14*%
X113725000Y-73500000D03*
X115275000Y-73500000D03*
%TD*%
D12*
%TO.C,R1*%
X31675000Y-75000000D03*
X33325000Y-75000000D03*
%TD*%
%TO.C,R2*%
X53675000Y-75000000D03*
X55325000Y-75000000D03*
%TD*%
D11*
%TO.C,C11*%
X248225000Y-78500000D03*
X249775000Y-78500000D03*
%TD*%
%TO.C,C12*%
X270225000Y-78500000D03*
X271775000Y-78500000D03*
%TD*%
D10*
%TO.C,D5*%
X121287500Y-77000000D03*
X119712500Y-77000000D03*
%TD*%
D12*
%TO.C,R3*%
X75675000Y-75000000D03*
X77325000Y-75000000D03*
%TD*%
%TO.C,R4*%
X97675000Y-75000000D03*
X99325000Y-75000000D03*
%TD*%
M02*
