M48
; DRILL file {KiCad 5.99.0-76a6177eb7} date Wed May  4 15:01:55 2022
; FORMAT={-:-/ absolute / inch / decimal}
; #@! TF.CreationDate,2022-05-04T15:01:55+02:00
; #@! TF.GenerationSoftware,Kicad,Pcbnew,5.99.0-76a6177eb7
; #@! TF.FileFunction,Plated,1,2,PTH
FMAT,2
INCH
; #@! TA.AperFunction,Plated,PTH,ViaDrill
T1C0.0157
; #@! TA.AperFunction,Plated,PTH,ComponentDrill
T2C0.0276
%
G90
G05
T1
X1.1024Y-3.0315
X1.2205Y-3.0906
X1.9685Y-3.0315
X2.0866Y-3.0906
X2.8346Y-3.0315
X2.9528Y-3.0906
X3.7008Y-3.0315
X3.8189Y-3.0906
X4.1929Y-3.0512
X4.2126Y-2.8937
X4.252Y-2.9921
X4.2717Y-2.8937
X4.4685Y-3.0315
X4.4882Y-2.9724
X4.5669Y-3.0315
X4.685Y-3.0906
X5.4331Y-3.0315
X5.5512Y-3.0906
X6.2992Y-3.0315
X6.4173Y-3.0906
X7.1654Y-3.0315
X7.2835Y-3.0906
X7.6575Y-3.0315
X7.6969Y-2.9331
X7.7362Y-3.0315
X7.7756Y-2.8937
X7.7756Y-2.9528
X7.9134Y-2.874
X8.0315Y-3.0315
X8.1496Y-3.0906
X8.8976Y-3.0315
X9.0157Y-3.0906
X9.7638Y-3.0315
X9.8819Y-3.0906
X10.5315Y-3.0906
X10.6299Y-3.0315
X10.748Y-3.0906
T2
X10.0591Y-3.0118
X10.1772Y-3.0118
X10.2953Y-3.0118
X10.4134Y-3.0118
X10.5315Y-3.0118
T0
M30
