%TF.GenerationSoftware,KiCad,Pcbnew,5.99.0-76a6177eb7*%
%TF.CreationDate,2022-05-04T15:01:27+02:00*%
%TF.ProjectId,kicker-counter,6b69636b-6572-42d6-936f-756e7465722e,0.1.0*%
%TF.SameCoordinates,Original*%
%TF.FileFunction,Copper,L2,Bot*%
%TF.FilePolarity,Positive*%
%FSLAX46Y46*%
G04 Gerber Fmt 4.6, Leading zero omitted, Abs format (unit mm)*
G04 Created by KiCad (PCBNEW 5.99.0-76a6177eb7) date 2022-05-04 15:01:27*
%MOMM*%
%LPD*%
G01*
G04 APERTURE LIST*
G04 Aperture macros list*
%AMFreePoly0*
4,1,22,0.500000,-0.750000,0.000000,-0.750000,0.000000,-0.745033,-0.079941,-0.743568,-0.215256,-0.701293,-0.333266,-0.622738,-0.424486,-0.514219,-0.481581,-0.384460,-0.499164,-0.250000,-0.500000,-0.250000,-0.500000,0.250000,-0.499164,0.250000,-0.499963,0.256109,-0.478152,0.396186,-0.417904,0.524511,-0.324060,0.630769,-0.204165,0.706417,-0.067858,0.745374,0.000000,0.744959,0.000000,0.750000,
0.500000,0.750000,0.500000,-0.750000,0.500000,-0.750000,$1*%
%AMFreePoly1*
4,1,20,0.000000,0.744959,0.073905,0.744508,0.209726,0.703889,0.328688,0.626782,0.421226,0.519385,0.479903,0.390333,0.500000,0.250000,0.500000,-0.250000,0.499851,-0.262216,0.476331,-0.402017,0.414519,-0.529596,0.319384,-0.634700,0.198574,-0.708877,0.061801,-0.746166,0.000000,-0.745033,0.000000,-0.750000,-0.500000,-0.750000,-0.500000,0.750000,0.000000,0.750000,0.000000,0.744959,
0.000000,0.744959,$1*%
G04 Aperture macros list end*
%TA.AperFunction,ComponentPad*%
%ADD10C,1.500000*%
%TD*%
%TA.AperFunction,SMDPad,CuDef*%
%ADD11FreePoly0,180.000000*%
%TD*%
%TA.AperFunction,SMDPad,CuDef*%
%ADD12FreePoly1,180.000000*%
%TD*%
%TA.AperFunction,SMDPad,CuDef*%
%ADD13FreePoly0,0.000000*%
%TD*%
%TA.AperFunction,SMDPad,CuDef*%
%ADD14FreePoly1,0.000000*%
%TD*%
%TA.AperFunction,ViaPad*%
%ADD15C,0.800000*%
%TD*%
%TA.AperFunction,Conductor*%
%ADD16C,0.200000*%
%TD*%
G04 APERTURE END LIST*
%TO.C,JP2*%
G36*
X200750000Y-74800000D02*
G01*
X200250000Y-74800000D01*
X200250000Y-74200000D01*
X200750000Y-74200000D01*
X200750000Y-74800000D01*
G37*
%TO.C,JP1*%
G36*
X105750000Y-76300000D02*
G01*
X105250000Y-76300000D01*
X105250000Y-75700000D01*
X105750000Y-75700000D01*
X105750000Y-76300000D01*
G37*
%TD*%
D10*
%TO.P,TP2,1,1*%
%TO.N,/CLK*%
X264500000Y-76500000D03*
%TD*%
%TO.P,TP1,1,1*%
%TO.N,VCC*%
X267500000Y-76500000D03*
%TD*%
%TO.P,TP5,1,1*%
%TO.N,GND*%
X255500000Y-76500000D03*
%TD*%
%TO.P,TP3,1,1*%
%TO.N,/DO*%
X261500000Y-76500000D03*
%TD*%
%TO.P,TP4,1,1*%
%TO.N,/~{LOAD}*%
X258500000Y-76500000D03*
%TD*%
D11*
%TO.P,JP2,1,A*%
%TO.N,GND*%
X201150000Y-74500000D03*
D12*
%TO.P,JP2,2,B*%
%TO.N,Net-(JP2-Pad2)*%
X199850000Y-74500000D03*
%TD*%
D13*
%TO.P,JP1,1,A*%
%TO.N,GND*%
X104850000Y-76000000D03*
D14*
%TO.P,JP1,2,B*%
%TO.N,Net-(JP1-Pad2)*%
X106150000Y-76000000D03*
%TD*%
D15*
%TO.N,Net-(JP1-Pad2)*%
X108000000Y-76000000D03*
%TO.N,Net-(JP2-Pad2)*%
X197500000Y-73500000D03*
%TO.N,/CLK*%
X108500000Y-73500000D03*
X197500000Y-75000000D03*
%TO.N,/DO*%
X195500000Y-74500000D03*
%TO.N,/~{LOAD}*%
X196500000Y-77000000D03*
X107000000Y-73500000D03*
%TO.N,VCC*%
X251000000Y-78500000D03*
X267500000Y-78500000D03*
X53000000Y-78500000D03*
X229000000Y-78500000D03*
X207000000Y-78500000D03*
X273000000Y-78500000D03*
X31000000Y-78500000D03*
X141000000Y-78500000D03*
X114000000Y-75500000D03*
X163000000Y-78500000D03*
X97000000Y-78500000D03*
X185000000Y-78500000D03*
X119000000Y-78500000D03*
X75000000Y-78500000D03*
%TO.N,GND*%
X94000000Y-77000000D03*
X50000000Y-77000000D03*
X226000000Y-77000000D03*
X72000000Y-77000000D03*
X138000000Y-77000000D03*
X201000000Y-73000000D03*
X270000000Y-77000000D03*
X160000000Y-77000000D03*
X116000000Y-77000000D03*
X248000000Y-77000000D03*
X182000000Y-77000000D03*
X28000000Y-77000000D03*
X106500000Y-77500000D03*
X204000000Y-77000000D03*
%TO.N,Net-(U13-Pad9)*%
X194500000Y-77000000D03*
X113500000Y-77000000D03*
%TD*%
D16*
%TO.N,Net-(JP1-Pad2)*%
X108000000Y-76000000D02*
X106150000Y-76000000D01*
%TO.N,Net-(JP2-Pad2)*%
X197500000Y-73500000D02*
X198000000Y-73500000D01*
X198000000Y-73500000D02*
X199000000Y-74500000D01*
X199000000Y-74500000D02*
X199850000Y-74500000D01*
%TO.N,/CLK*%
X201500000Y-76000000D02*
X203500000Y-74000000D01*
X197500000Y-75000000D02*
X196000000Y-73500000D01*
X203500000Y-74000000D02*
X262000000Y-74000000D01*
X196000000Y-73500000D02*
X108500000Y-73500000D01*
X197500000Y-75000000D02*
X198500000Y-76000000D01*
X262000000Y-74000000D02*
X264500000Y-76500000D01*
X198500000Y-76000000D02*
X201500000Y-76000000D01*
%TO.N,/DO*%
X259500000Y-74500000D02*
X261500000Y-76500000D01*
X202000000Y-76500000D02*
X204000000Y-74500000D01*
X204000000Y-74500000D02*
X259500000Y-74500000D01*
X197500000Y-76500000D02*
X202000000Y-76500000D01*
X195500000Y-74500000D02*
X197500000Y-76500000D01*
%TO.N,/~{LOAD}*%
X196500000Y-77000000D02*
X193500000Y-74000000D01*
X257000000Y-75000000D02*
X258500000Y-76500000D01*
X196500000Y-77000000D02*
X202500000Y-77000000D01*
X202500000Y-77000000D02*
X204500000Y-75000000D01*
X108000000Y-74500000D02*
X109000000Y-74500000D01*
X193500000Y-74000000D02*
X109500000Y-74000000D01*
X204500000Y-75000000D02*
X257000000Y-75000000D01*
X109000000Y-74500000D02*
X109500000Y-74000000D01*
X107000000Y-73500000D02*
X108000000Y-74500000D01*
%TO.N,VCC*%
X112000000Y-78500000D02*
X188500000Y-78500000D01*
X114000000Y-75500000D02*
X113000000Y-75500000D01*
X113000000Y-75500000D02*
X112000000Y-76500000D01*
X273000000Y-78500000D02*
X267500000Y-78500000D01*
X112000000Y-76500000D02*
X112000000Y-78500000D01*
X188500000Y-78500000D02*
X207000000Y-78500000D01*
X112000000Y-78500000D02*
X31000000Y-78500000D01*
X267500000Y-78500000D02*
X229000000Y-78500000D01*
X229000000Y-78500000D02*
X223000000Y-78500000D01*
X207000000Y-78500000D02*
X223000000Y-78500000D01*
%TO.N,Net-(U13-Pad9)*%
X113500000Y-77000000D02*
X114500000Y-77000000D01*
X114500000Y-77000000D02*
X116000000Y-75500000D01*
X116000000Y-75500000D02*
X193000000Y-75500000D01*
X193000000Y-75500000D02*
X194500000Y-77000000D01*
%TD*%
%TA.AperFunction,Conductor*%
%TO.N,GND*%
G36*
X275036839Y-72018905D02*
G01*
X275042939Y-72023714D01*
X275174556Y-72136126D01*
X275286805Y-72204912D01*
X275359133Y-72249236D01*
X275359137Y-72249238D01*
X275362448Y-72251267D01*
X275366033Y-72252752D01*
X275366039Y-72252755D01*
X275562448Y-72334110D01*
X275562453Y-72334112D01*
X275566039Y-72335597D01*
X275569813Y-72336503D01*
X275569816Y-72336504D01*
X275683197Y-72363724D01*
X275780315Y-72387040D01*
X275784180Y-72387344D01*
X275784185Y-72387345D01*
X275987878Y-72403375D01*
X275991190Y-72403767D01*
X275992305Y-72403767D01*
X276000000Y-72404986D01*
X276007691Y-72403768D01*
X276007694Y-72403768D01*
X276013667Y-72402822D01*
X276034165Y-72401731D01*
X276359196Y-72418214D01*
X276369173Y-72419229D01*
X276440921Y-72430220D01*
X276719709Y-72472929D01*
X276729522Y-72474945D01*
X277053203Y-72558752D01*
X277072857Y-72563841D01*
X277082425Y-72566844D01*
X277414965Y-72690004D01*
X277424181Y-72693958D01*
X277657015Y-72808167D01*
X277740455Y-72849096D01*
X277742579Y-72850138D01*
X277751344Y-72855003D01*
X277912244Y-72955293D01*
X278052311Y-73042598D01*
X278060541Y-73048327D01*
X278083905Y-73066412D01*
X278335097Y-73260848D01*
X278340966Y-73265391D01*
X278348572Y-73271920D01*
X278605627Y-73516268D01*
X278612522Y-73523523D01*
X278842902Y-73791884D01*
X278843519Y-73792603D01*
X278849658Y-73800534D01*
X279052256Y-74091615D01*
X279057560Y-74100125D01*
X279116827Y-74206903D01*
X279228911Y-74408839D01*
X279229659Y-74410187D01*
X279234074Y-74419187D01*
X279373557Y-74744217D01*
X279373929Y-74745085D01*
X279377409Y-74754481D01*
X279410921Y-74861290D01*
X279483578Y-75092867D01*
X279486091Y-75102576D01*
X279557475Y-75449936D01*
X279558994Y-75459848D01*
X279594872Y-75812666D01*
X279595380Y-75822682D01*
X279595380Y-76177316D01*
X279594872Y-76187332D01*
X279558994Y-76540150D01*
X279557475Y-76550062D01*
X279486091Y-76897422D01*
X279483578Y-76907131D01*
X279452379Y-77006569D01*
X279377409Y-77245517D01*
X279373932Y-77254905D01*
X279234074Y-77580811D01*
X279229661Y-77589806D01*
X279195314Y-77651688D01*
X279057560Y-77899873D01*
X279052256Y-77908383D01*
X278849658Y-78199464D01*
X278843521Y-78207392D01*
X278612522Y-78476475D01*
X278605627Y-78483730D01*
X278404273Y-78675131D01*
X278348576Y-78728075D01*
X278340966Y-78734607D01*
X278060541Y-78951671D01*
X278052311Y-78957400D01*
X277939583Y-79027664D01*
X277797000Y-79116538D01*
X277751348Y-79144993D01*
X277742583Y-79149858D01*
X277738852Y-79151688D01*
X277424181Y-79306040D01*
X277414965Y-79309994D01*
X277082425Y-79433154D01*
X277072857Y-79436157D01*
X276729522Y-79525053D01*
X276719709Y-79527069D01*
X276440921Y-79569778D01*
X276369173Y-79580769D01*
X276359196Y-79581784D01*
X276034153Y-79598268D01*
X276013654Y-79597176D01*
X276007698Y-79596233D01*
X276007696Y-79596233D01*
X276000000Y-79595014D01*
X275992308Y-79596232D01*
X275991190Y-79596232D01*
X275987871Y-79596625D01*
X275784185Y-79612655D01*
X275784180Y-79612656D01*
X275780315Y-79612960D01*
X275683197Y-79636276D01*
X275569816Y-79663496D01*
X275569813Y-79663497D01*
X275566039Y-79664403D01*
X275562453Y-79665888D01*
X275562448Y-79665890D01*
X275366039Y-79747245D01*
X275366033Y-79747248D01*
X275362448Y-79748733D01*
X275359137Y-79750762D01*
X275359133Y-79750764D01*
X275286805Y-79795088D01*
X275174556Y-79863874D01*
X275081998Y-79942926D01*
X275042945Y-79976280D01*
X274986417Y-79999695D01*
X274978650Y-80000000D01*
X274000001Y-80000001D01*
X273021351Y-80000001D01*
X272963160Y-79981094D01*
X272957056Y-79976281D01*
X272828404Y-79866402D01*
X272828403Y-79866402D01*
X272825444Y-79863874D01*
X272713195Y-79795088D01*
X272640867Y-79750764D01*
X272640863Y-79750762D01*
X272637552Y-79748733D01*
X272633967Y-79747248D01*
X272633961Y-79747245D01*
X272437552Y-79665890D01*
X272437547Y-79665888D01*
X272433961Y-79664403D01*
X272430187Y-79663497D01*
X272430184Y-79663496D01*
X272316803Y-79636276D01*
X272219685Y-79612960D01*
X272215820Y-79612656D01*
X272215815Y-79612655D01*
X272012122Y-79596625D01*
X272008811Y-79596233D01*
X272007696Y-79596233D01*
X272000000Y-79595014D01*
X271979455Y-79598268D01*
X271976216Y-79598781D01*
X271960729Y-79600000D01*
X28039271Y-79600000D01*
X28023784Y-79598781D01*
X28020545Y-79598268D01*
X28000000Y-79595014D01*
X27992304Y-79596233D01*
X27991189Y-79596233D01*
X27987878Y-79596625D01*
X27784185Y-79612655D01*
X27784180Y-79612656D01*
X27780315Y-79612960D01*
X27683197Y-79636276D01*
X27569816Y-79663496D01*
X27569813Y-79663497D01*
X27566039Y-79664403D01*
X27562453Y-79665888D01*
X27562448Y-79665890D01*
X27366039Y-79747245D01*
X27366033Y-79747248D01*
X27362448Y-79748733D01*
X27359137Y-79750762D01*
X27359133Y-79750764D01*
X27286805Y-79795088D01*
X27174556Y-79863874D01*
X27081998Y-79942926D01*
X27042945Y-79976280D01*
X26986417Y-79999695D01*
X26978650Y-80000000D01*
X26000001Y-80000001D01*
X25021351Y-80000001D01*
X24963160Y-79981094D01*
X24957056Y-79976281D01*
X24828404Y-79866402D01*
X24828403Y-79866402D01*
X24825444Y-79863874D01*
X24713195Y-79795088D01*
X24640867Y-79750764D01*
X24640863Y-79750762D01*
X24637552Y-79748733D01*
X24633967Y-79747248D01*
X24633961Y-79747245D01*
X24437552Y-79665890D01*
X24437547Y-79665888D01*
X24433961Y-79664403D01*
X24430187Y-79663497D01*
X24430184Y-79663496D01*
X24316803Y-79636276D01*
X24219685Y-79612960D01*
X24215820Y-79612656D01*
X24215815Y-79612655D01*
X24012129Y-79596625D01*
X24008810Y-79596232D01*
X24007692Y-79596232D01*
X24000000Y-79595014D01*
X23992304Y-79596233D01*
X23992302Y-79596233D01*
X23986346Y-79597176D01*
X23965847Y-79598268D01*
X23640804Y-79581784D01*
X23630827Y-79580769D01*
X23559079Y-79569778D01*
X23280291Y-79527069D01*
X23270478Y-79525053D01*
X22927144Y-79436157D01*
X22917576Y-79433154D01*
X22585035Y-79309994D01*
X22575819Y-79306040D01*
X22260957Y-79151594D01*
X22257415Y-79149856D01*
X22248653Y-79144993D01*
X21947689Y-78957400D01*
X21939469Y-78951678D01*
X21659031Y-78734603D01*
X21651421Y-78728071D01*
X21595728Y-78675131D01*
X21404271Y-78493138D01*
X30344758Y-78493138D01*
X30345413Y-78499071D01*
X30345413Y-78499075D01*
X30361330Y-78643251D01*
X30362035Y-78649633D01*
X30369341Y-78669598D01*
X30393130Y-78734603D01*
X30416143Y-78797490D01*
X30419472Y-78802444D01*
X30500629Y-78923219D01*
X30500632Y-78923222D01*
X30503958Y-78928172D01*
X30508369Y-78932186D01*
X30508371Y-78932188D01*
X30615995Y-79030118D01*
X30620410Y-79034135D01*
X30641885Y-79045795D01*
X30753530Y-79106414D01*
X30753532Y-79106415D01*
X30758776Y-79109262D01*
X30838534Y-79130186D01*
X30905300Y-79147702D01*
X30905304Y-79147702D01*
X30911069Y-79149215D01*
X30917030Y-79149309D01*
X30917033Y-79149309D01*
X30989782Y-79150451D01*
X31068495Y-79151688D01*
X31074311Y-79150356D01*
X31216149Y-79117871D01*
X31216151Y-79117870D01*
X31221968Y-79116538D01*
X31227299Y-79113857D01*
X31357299Y-79048474D01*
X31357301Y-79048473D01*
X31362625Y-79045795D01*
X31482348Y-78943542D01*
X31519580Y-78891728D01*
X31568888Y-78855507D01*
X31599974Y-78850500D01*
X52399014Y-78850500D01*
X52457205Y-78869407D01*
X52481184Y-78894281D01*
X52503958Y-78928172D01*
X52508369Y-78932186D01*
X52508371Y-78932188D01*
X52615995Y-79030118D01*
X52620410Y-79034135D01*
X52641885Y-79045795D01*
X52753530Y-79106414D01*
X52753532Y-79106415D01*
X52758776Y-79109262D01*
X52838534Y-79130186D01*
X52905300Y-79147702D01*
X52905304Y-79147702D01*
X52911069Y-79149215D01*
X52917030Y-79149309D01*
X52917033Y-79149309D01*
X52989782Y-79150451D01*
X53068495Y-79151688D01*
X53074311Y-79150356D01*
X53216149Y-79117871D01*
X53216151Y-79117870D01*
X53221968Y-79116538D01*
X53227299Y-79113857D01*
X53357299Y-79048474D01*
X53357301Y-79048473D01*
X53362625Y-79045795D01*
X53482348Y-78943542D01*
X53519580Y-78891728D01*
X53568888Y-78855507D01*
X53599974Y-78850500D01*
X74399014Y-78850500D01*
X74457205Y-78869407D01*
X74481184Y-78894281D01*
X74503958Y-78928172D01*
X74508369Y-78932186D01*
X74508371Y-78932188D01*
X74615995Y-79030118D01*
X74620410Y-79034135D01*
X74641885Y-79045795D01*
X74753530Y-79106414D01*
X74753532Y-79106415D01*
X74758776Y-79109262D01*
X74838534Y-79130186D01*
X74905300Y-79147702D01*
X74905304Y-79147702D01*
X74911069Y-79149215D01*
X74917030Y-79149309D01*
X74917033Y-79149309D01*
X74989782Y-79150451D01*
X75068495Y-79151688D01*
X75074311Y-79150356D01*
X75216149Y-79117871D01*
X75216151Y-79117870D01*
X75221968Y-79116538D01*
X75227299Y-79113857D01*
X75357299Y-79048474D01*
X75357301Y-79048473D01*
X75362625Y-79045795D01*
X75482348Y-78943542D01*
X75519580Y-78891728D01*
X75568888Y-78855507D01*
X75599974Y-78850500D01*
X96399014Y-78850500D01*
X96457205Y-78869407D01*
X96481184Y-78894281D01*
X96503958Y-78928172D01*
X96508369Y-78932186D01*
X96508371Y-78932188D01*
X96615995Y-79030118D01*
X96620410Y-79034135D01*
X96641885Y-79045795D01*
X96753530Y-79106414D01*
X96753532Y-79106415D01*
X96758776Y-79109262D01*
X96838534Y-79130186D01*
X96905300Y-79147702D01*
X96905304Y-79147702D01*
X96911069Y-79149215D01*
X96917030Y-79149309D01*
X96917033Y-79149309D01*
X96989782Y-79150451D01*
X97068495Y-79151688D01*
X97074311Y-79150356D01*
X97216149Y-79117871D01*
X97216151Y-79117870D01*
X97221968Y-79116538D01*
X97227299Y-79113857D01*
X97357299Y-79048474D01*
X97357301Y-79048473D01*
X97362625Y-79045795D01*
X97482348Y-78943542D01*
X97519580Y-78891728D01*
X97568888Y-78855507D01*
X97599974Y-78850500D01*
X111980290Y-78850500D01*
X111988833Y-78850869D01*
X112019727Y-78853545D01*
X112019728Y-78853545D01*
X112027880Y-78854251D01*
X112035822Y-78852278D01*
X112043979Y-78851636D01*
X112043996Y-78851858D01*
X112055092Y-78850500D01*
X118399014Y-78850500D01*
X118457205Y-78869407D01*
X118481184Y-78894281D01*
X118503958Y-78928172D01*
X118508369Y-78932186D01*
X118508371Y-78932188D01*
X118615995Y-79030118D01*
X118620410Y-79034135D01*
X118641885Y-79045795D01*
X118753530Y-79106414D01*
X118753532Y-79106415D01*
X118758776Y-79109262D01*
X118838534Y-79130186D01*
X118905300Y-79147702D01*
X118905304Y-79147702D01*
X118911069Y-79149215D01*
X118917030Y-79149309D01*
X118917033Y-79149309D01*
X118989782Y-79150451D01*
X119068495Y-79151688D01*
X119074311Y-79150356D01*
X119216149Y-79117871D01*
X119216151Y-79117870D01*
X119221968Y-79116538D01*
X119227299Y-79113857D01*
X119357299Y-79048474D01*
X119357301Y-79048473D01*
X119362625Y-79045795D01*
X119482348Y-78943542D01*
X119519580Y-78891728D01*
X119568888Y-78855507D01*
X119599974Y-78850500D01*
X140399014Y-78850500D01*
X140457205Y-78869407D01*
X140481184Y-78894281D01*
X140503958Y-78928172D01*
X140508369Y-78932186D01*
X140508371Y-78932188D01*
X140615995Y-79030118D01*
X140620410Y-79034135D01*
X140641885Y-79045795D01*
X140753530Y-79106414D01*
X140753532Y-79106415D01*
X140758776Y-79109262D01*
X140838534Y-79130186D01*
X140905300Y-79147702D01*
X140905304Y-79147702D01*
X140911069Y-79149215D01*
X140917030Y-79149309D01*
X140917033Y-79149309D01*
X140989782Y-79150451D01*
X141068495Y-79151688D01*
X141074311Y-79150356D01*
X141216149Y-79117871D01*
X141216151Y-79117870D01*
X141221968Y-79116538D01*
X141227299Y-79113857D01*
X141357299Y-79048474D01*
X141357301Y-79048473D01*
X141362625Y-79045795D01*
X141482348Y-78943542D01*
X141519580Y-78891728D01*
X141568888Y-78855507D01*
X141599974Y-78850500D01*
X162399014Y-78850500D01*
X162457205Y-78869407D01*
X162481184Y-78894281D01*
X162503958Y-78928172D01*
X162508369Y-78932186D01*
X162508371Y-78932188D01*
X162615995Y-79030118D01*
X162620410Y-79034135D01*
X162641885Y-79045795D01*
X162753530Y-79106414D01*
X162753532Y-79106415D01*
X162758776Y-79109262D01*
X162838534Y-79130186D01*
X162905300Y-79147702D01*
X162905304Y-79147702D01*
X162911069Y-79149215D01*
X162917030Y-79149309D01*
X162917033Y-79149309D01*
X162989782Y-79150451D01*
X163068495Y-79151688D01*
X163074311Y-79150356D01*
X163216149Y-79117871D01*
X163216151Y-79117870D01*
X163221968Y-79116538D01*
X163227299Y-79113857D01*
X163357299Y-79048474D01*
X163357301Y-79048473D01*
X163362625Y-79045795D01*
X163482348Y-78943542D01*
X163519580Y-78891728D01*
X163568888Y-78855507D01*
X163599974Y-78850500D01*
X184399014Y-78850500D01*
X184457205Y-78869407D01*
X184481184Y-78894281D01*
X184503958Y-78928172D01*
X184508369Y-78932186D01*
X184508371Y-78932188D01*
X184615995Y-79030118D01*
X184620410Y-79034135D01*
X184641885Y-79045795D01*
X184753530Y-79106414D01*
X184753532Y-79106415D01*
X184758776Y-79109262D01*
X184838534Y-79130186D01*
X184905300Y-79147702D01*
X184905304Y-79147702D01*
X184911069Y-79149215D01*
X184917030Y-79149309D01*
X184917033Y-79149309D01*
X184989782Y-79150451D01*
X185068495Y-79151688D01*
X185074311Y-79150356D01*
X185216149Y-79117871D01*
X185216151Y-79117870D01*
X185221968Y-79116538D01*
X185227299Y-79113857D01*
X185357299Y-79048474D01*
X185357301Y-79048473D01*
X185362625Y-79045795D01*
X185482348Y-78943542D01*
X185519580Y-78891728D01*
X185568888Y-78855507D01*
X185599974Y-78850500D01*
X206399014Y-78850500D01*
X206457205Y-78869407D01*
X206481184Y-78894281D01*
X206503958Y-78928172D01*
X206508369Y-78932186D01*
X206508371Y-78932188D01*
X206615995Y-79030118D01*
X206620410Y-79034135D01*
X206641885Y-79045795D01*
X206753530Y-79106414D01*
X206753532Y-79106415D01*
X206758776Y-79109262D01*
X206838534Y-79130186D01*
X206905300Y-79147702D01*
X206905304Y-79147702D01*
X206911069Y-79149215D01*
X206917030Y-79149309D01*
X206917033Y-79149309D01*
X206989782Y-79150451D01*
X207068495Y-79151688D01*
X207074311Y-79150356D01*
X207216149Y-79117871D01*
X207216151Y-79117870D01*
X207221968Y-79116538D01*
X207227299Y-79113857D01*
X207357299Y-79048474D01*
X207357301Y-79048473D01*
X207362625Y-79045795D01*
X207482348Y-78943542D01*
X207519580Y-78891728D01*
X207568888Y-78855507D01*
X207599974Y-78850500D01*
X228399014Y-78850500D01*
X228457205Y-78869407D01*
X228481184Y-78894281D01*
X228503958Y-78928172D01*
X228508369Y-78932186D01*
X228508371Y-78932188D01*
X228615995Y-79030118D01*
X228620410Y-79034135D01*
X228641885Y-79045795D01*
X228753530Y-79106414D01*
X228753532Y-79106415D01*
X228758776Y-79109262D01*
X228838534Y-79130186D01*
X228905300Y-79147702D01*
X228905304Y-79147702D01*
X228911069Y-79149215D01*
X228917030Y-79149309D01*
X228917033Y-79149309D01*
X228989782Y-79150451D01*
X229068495Y-79151688D01*
X229074311Y-79150356D01*
X229216149Y-79117871D01*
X229216151Y-79117870D01*
X229221968Y-79116538D01*
X229227299Y-79113857D01*
X229357299Y-79048474D01*
X229357301Y-79048473D01*
X229362625Y-79045795D01*
X229482348Y-78943542D01*
X229519580Y-78891728D01*
X229568888Y-78855507D01*
X229599974Y-78850500D01*
X250399014Y-78850500D01*
X250457205Y-78869407D01*
X250481184Y-78894281D01*
X250503958Y-78928172D01*
X250508369Y-78932186D01*
X250508371Y-78932188D01*
X250615995Y-79030118D01*
X250620410Y-79034135D01*
X250641885Y-79045795D01*
X250753530Y-79106414D01*
X250753532Y-79106415D01*
X250758776Y-79109262D01*
X250838534Y-79130186D01*
X250905300Y-79147702D01*
X250905304Y-79147702D01*
X250911069Y-79149215D01*
X250917030Y-79149309D01*
X250917033Y-79149309D01*
X250989782Y-79150451D01*
X251068495Y-79151688D01*
X251074311Y-79150356D01*
X251216149Y-79117871D01*
X251216151Y-79117870D01*
X251221968Y-79116538D01*
X251227299Y-79113857D01*
X251357299Y-79048474D01*
X251357301Y-79048473D01*
X251362625Y-79045795D01*
X251482348Y-78943542D01*
X251519580Y-78891728D01*
X251568888Y-78855507D01*
X251599974Y-78850500D01*
X266899014Y-78850500D01*
X266957205Y-78869407D01*
X266981184Y-78894281D01*
X267003958Y-78928172D01*
X267008369Y-78932186D01*
X267008371Y-78932188D01*
X267115995Y-79030118D01*
X267120410Y-79034135D01*
X267141885Y-79045795D01*
X267253530Y-79106414D01*
X267253532Y-79106415D01*
X267258776Y-79109262D01*
X267338534Y-79130186D01*
X267405300Y-79147702D01*
X267405304Y-79147702D01*
X267411069Y-79149215D01*
X267417030Y-79149309D01*
X267417033Y-79149309D01*
X267489782Y-79150451D01*
X267568495Y-79151688D01*
X267574311Y-79150356D01*
X267716149Y-79117871D01*
X267716151Y-79117870D01*
X267721968Y-79116538D01*
X267727299Y-79113857D01*
X267857299Y-79048474D01*
X267857301Y-79048473D01*
X267862625Y-79045795D01*
X267982348Y-78943542D01*
X268019580Y-78891728D01*
X268068888Y-78855507D01*
X268099974Y-78850500D01*
X272399014Y-78850500D01*
X272457205Y-78869407D01*
X272481184Y-78894281D01*
X272503958Y-78928172D01*
X272508369Y-78932186D01*
X272508371Y-78932188D01*
X272615995Y-79030118D01*
X272620410Y-79034135D01*
X272641885Y-79045795D01*
X272753530Y-79106414D01*
X272753532Y-79106415D01*
X272758776Y-79109262D01*
X272838534Y-79130186D01*
X272905300Y-79147702D01*
X272905304Y-79147702D01*
X272911069Y-79149215D01*
X272917030Y-79149309D01*
X272917033Y-79149309D01*
X272989782Y-79150451D01*
X273068495Y-79151688D01*
X273074311Y-79150356D01*
X273216149Y-79117871D01*
X273216151Y-79117870D01*
X273221968Y-79116538D01*
X273227299Y-79113857D01*
X273357299Y-79048474D01*
X273357301Y-79048473D01*
X273362625Y-79045795D01*
X273376277Y-79034135D01*
X273477810Y-78947418D01*
X273477811Y-78947417D01*
X273482348Y-78943542D01*
X273546510Y-78854251D01*
X273570740Y-78820532D01*
X273570741Y-78820530D01*
X273574224Y-78815683D01*
X273606817Y-78734607D01*
X273630726Y-78675131D01*
X273630727Y-78675129D01*
X273632950Y-78669598D01*
X273634994Y-78655240D01*
X273654678Y-78516929D01*
X273654678Y-78516925D01*
X273655134Y-78513723D01*
X273655278Y-78500000D01*
X273636363Y-78343694D01*
X273580710Y-78196412D01*
X273491531Y-78066657D01*
X273487078Y-78062690D01*
X273487075Y-78062686D01*
X273419557Y-78002531D01*
X273373976Y-77961919D01*
X273361462Y-77955293D01*
X273240105Y-77891037D01*
X273240102Y-77891036D01*
X273234831Y-77888245D01*
X273158479Y-77869067D01*
X273087918Y-77851343D01*
X273087915Y-77851343D01*
X273082128Y-77849889D01*
X273002564Y-77849473D01*
X272930650Y-77849096D01*
X272930648Y-77849096D01*
X272924684Y-77849065D01*
X272771588Y-77885820D01*
X272735842Y-77904270D01*
X272636985Y-77955293D01*
X272636983Y-77955295D01*
X272631679Y-77958032D01*
X272513034Y-78061533D01*
X272509603Y-78066415D01*
X272509602Y-78066416D01*
X272480781Y-78107425D01*
X272431852Y-78144162D01*
X272399784Y-78149500D01*
X268100554Y-78149500D01*
X268042363Y-78130593D01*
X268018966Y-78106574D01*
X267994915Y-78071579D01*
X267994910Y-78071573D01*
X267991531Y-78066657D01*
X267987078Y-78062690D01*
X267987075Y-78062686D01*
X267919557Y-78002531D01*
X267873976Y-77961919D01*
X267861462Y-77955293D01*
X267740105Y-77891037D01*
X267740102Y-77891036D01*
X267734831Y-77888245D01*
X267658479Y-77869067D01*
X267587918Y-77851343D01*
X267587915Y-77851343D01*
X267582128Y-77849889D01*
X267502564Y-77849473D01*
X267430650Y-77849096D01*
X267430648Y-77849096D01*
X267424684Y-77849065D01*
X267271588Y-77885820D01*
X267235842Y-77904270D01*
X267136985Y-77955293D01*
X267136983Y-77955295D01*
X267131679Y-77958032D01*
X267013034Y-78061533D01*
X267009603Y-78066415D01*
X267009602Y-78066416D01*
X266980781Y-78107425D01*
X266931852Y-78144162D01*
X266899784Y-78149500D01*
X251600554Y-78149500D01*
X251542363Y-78130593D01*
X251518966Y-78106574D01*
X251494915Y-78071579D01*
X251494910Y-78071573D01*
X251491531Y-78066657D01*
X251487078Y-78062690D01*
X251487075Y-78062686D01*
X251419557Y-78002531D01*
X251373976Y-77961919D01*
X251361462Y-77955293D01*
X251240105Y-77891037D01*
X251240102Y-77891036D01*
X251234831Y-77888245D01*
X251158479Y-77869067D01*
X251087918Y-77851343D01*
X251087915Y-77851343D01*
X251082128Y-77849889D01*
X251002564Y-77849473D01*
X250930650Y-77849096D01*
X250930648Y-77849096D01*
X250924684Y-77849065D01*
X250771588Y-77885820D01*
X250735842Y-77904270D01*
X250636985Y-77955293D01*
X250636983Y-77955295D01*
X250631679Y-77958032D01*
X250513034Y-78061533D01*
X250509603Y-78066415D01*
X250509602Y-78066416D01*
X250480781Y-78107425D01*
X250431852Y-78144162D01*
X250399784Y-78149500D01*
X229600554Y-78149500D01*
X229542363Y-78130593D01*
X229518966Y-78106574D01*
X229494915Y-78071579D01*
X229494910Y-78071573D01*
X229491531Y-78066657D01*
X229487078Y-78062690D01*
X229487075Y-78062686D01*
X229419557Y-78002531D01*
X229373976Y-77961919D01*
X229361462Y-77955293D01*
X229240105Y-77891037D01*
X229240102Y-77891036D01*
X229234831Y-77888245D01*
X229158479Y-77869067D01*
X229087918Y-77851343D01*
X229087915Y-77851343D01*
X229082128Y-77849889D01*
X229002564Y-77849473D01*
X228930650Y-77849096D01*
X228930648Y-77849096D01*
X228924684Y-77849065D01*
X228771588Y-77885820D01*
X228735842Y-77904270D01*
X228636985Y-77955293D01*
X228636983Y-77955295D01*
X228631679Y-77958032D01*
X228513034Y-78061533D01*
X228509603Y-78066415D01*
X228509602Y-78066416D01*
X228480781Y-78107425D01*
X228431852Y-78144162D01*
X228399784Y-78149500D01*
X207600554Y-78149500D01*
X207542363Y-78130593D01*
X207518966Y-78106574D01*
X207494915Y-78071579D01*
X207494910Y-78071573D01*
X207491531Y-78066657D01*
X207487078Y-78062690D01*
X207487075Y-78062686D01*
X207419557Y-78002531D01*
X207373976Y-77961919D01*
X207361462Y-77955293D01*
X207240105Y-77891037D01*
X207240102Y-77891036D01*
X207234831Y-77888245D01*
X207158479Y-77869067D01*
X207087918Y-77851343D01*
X207087915Y-77851343D01*
X207082128Y-77849889D01*
X207002564Y-77849473D01*
X206930650Y-77849096D01*
X206930648Y-77849096D01*
X206924684Y-77849065D01*
X206771588Y-77885820D01*
X206735842Y-77904270D01*
X206636985Y-77955293D01*
X206636983Y-77955295D01*
X206631679Y-77958032D01*
X206513034Y-78061533D01*
X206509603Y-78066415D01*
X206509602Y-78066416D01*
X206480781Y-78107425D01*
X206431852Y-78144162D01*
X206399784Y-78149500D01*
X185600554Y-78149500D01*
X185542363Y-78130593D01*
X185518966Y-78106574D01*
X185494915Y-78071579D01*
X185494910Y-78071573D01*
X185491531Y-78066657D01*
X185487078Y-78062690D01*
X185487075Y-78062686D01*
X185419557Y-78002531D01*
X185373976Y-77961919D01*
X185361462Y-77955293D01*
X185240105Y-77891037D01*
X185240102Y-77891036D01*
X185234831Y-77888245D01*
X185158479Y-77869067D01*
X185087918Y-77851343D01*
X185087915Y-77851343D01*
X185082128Y-77849889D01*
X185002564Y-77849473D01*
X184930650Y-77849096D01*
X184930648Y-77849096D01*
X184924684Y-77849065D01*
X184771588Y-77885820D01*
X184735842Y-77904270D01*
X184636985Y-77955293D01*
X184636983Y-77955295D01*
X184631679Y-77958032D01*
X184513034Y-78061533D01*
X184509603Y-78066415D01*
X184509602Y-78066416D01*
X184480781Y-78107425D01*
X184431852Y-78144162D01*
X184399784Y-78149500D01*
X163600554Y-78149500D01*
X163542363Y-78130593D01*
X163518966Y-78106574D01*
X163494915Y-78071579D01*
X163494910Y-78071573D01*
X163491531Y-78066657D01*
X163487078Y-78062690D01*
X163487075Y-78062686D01*
X163419557Y-78002531D01*
X163373976Y-77961919D01*
X163361462Y-77955293D01*
X163240105Y-77891037D01*
X163240102Y-77891036D01*
X163234831Y-77888245D01*
X163158479Y-77869067D01*
X163087918Y-77851343D01*
X163087915Y-77851343D01*
X163082128Y-77849889D01*
X163002564Y-77849473D01*
X162930650Y-77849096D01*
X162930648Y-77849096D01*
X162924684Y-77849065D01*
X162771588Y-77885820D01*
X162735842Y-77904270D01*
X162636985Y-77955293D01*
X162636983Y-77955295D01*
X162631679Y-77958032D01*
X162513034Y-78061533D01*
X162509603Y-78066415D01*
X162509602Y-78066416D01*
X162480781Y-78107425D01*
X162431852Y-78144162D01*
X162399784Y-78149500D01*
X141600554Y-78149500D01*
X141542363Y-78130593D01*
X141518966Y-78106574D01*
X141494915Y-78071579D01*
X141494910Y-78071573D01*
X141491531Y-78066657D01*
X141487078Y-78062690D01*
X141487075Y-78062686D01*
X141419557Y-78002531D01*
X141373976Y-77961919D01*
X141361462Y-77955293D01*
X141240105Y-77891037D01*
X141240102Y-77891036D01*
X141234831Y-77888245D01*
X141158479Y-77869067D01*
X141087918Y-77851343D01*
X141087915Y-77851343D01*
X141082128Y-77849889D01*
X141002564Y-77849473D01*
X140930650Y-77849096D01*
X140930648Y-77849096D01*
X140924684Y-77849065D01*
X140771588Y-77885820D01*
X140735842Y-77904270D01*
X140636985Y-77955293D01*
X140636983Y-77955295D01*
X140631679Y-77958032D01*
X140513034Y-78061533D01*
X140509603Y-78066415D01*
X140509602Y-78066416D01*
X140480781Y-78107425D01*
X140431852Y-78144162D01*
X140399784Y-78149500D01*
X119600554Y-78149500D01*
X119542363Y-78130593D01*
X119518966Y-78106574D01*
X119494915Y-78071579D01*
X119494910Y-78071573D01*
X119491531Y-78066657D01*
X119487078Y-78062690D01*
X119487075Y-78062686D01*
X119419557Y-78002531D01*
X119373976Y-77961919D01*
X119361462Y-77955293D01*
X119240105Y-77891037D01*
X119240102Y-77891036D01*
X119234831Y-77888245D01*
X119158479Y-77869067D01*
X119087918Y-77851343D01*
X119087915Y-77851343D01*
X119082128Y-77849889D01*
X119002564Y-77849473D01*
X118930650Y-77849096D01*
X118930648Y-77849096D01*
X118924684Y-77849065D01*
X118771588Y-77885820D01*
X118735842Y-77904270D01*
X118636985Y-77955293D01*
X118636983Y-77955295D01*
X118631679Y-77958032D01*
X118513034Y-78061533D01*
X118509603Y-78066415D01*
X118509602Y-78066416D01*
X118480781Y-78107425D01*
X118431852Y-78144162D01*
X118399784Y-78149500D01*
X112449500Y-78149500D01*
X112391309Y-78130593D01*
X112355345Y-78081093D01*
X112350500Y-78050500D01*
X112350500Y-76993138D01*
X112844758Y-76993138D01*
X112845413Y-76999071D01*
X112845413Y-76999075D01*
X112854477Y-77081170D01*
X112862035Y-77149633D01*
X112869341Y-77169598D01*
X112913668Y-77290726D01*
X112916143Y-77297490D01*
X112919472Y-77302444D01*
X113000629Y-77423219D01*
X113000632Y-77423223D01*
X113003958Y-77428172D01*
X113008369Y-77432186D01*
X113008371Y-77432188D01*
X113087894Y-77504548D01*
X113120410Y-77534135D01*
X113161671Y-77556538D01*
X113253530Y-77606414D01*
X113253532Y-77606415D01*
X113258776Y-77609262D01*
X113313689Y-77623668D01*
X113405300Y-77647702D01*
X113405304Y-77647702D01*
X113411069Y-77649215D01*
X113417030Y-77649309D01*
X113417033Y-77649309D01*
X113489782Y-77650451D01*
X113568495Y-77651688D01*
X113585899Y-77647702D01*
X113716149Y-77617871D01*
X113716151Y-77617870D01*
X113721968Y-77616538D01*
X113727299Y-77613857D01*
X113857299Y-77548474D01*
X113857301Y-77548473D01*
X113862625Y-77545795D01*
X113982348Y-77443542D01*
X114019580Y-77391728D01*
X114068888Y-77355507D01*
X114099974Y-77350500D01*
X114452052Y-77350500D01*
X114472888Y-77352718D01*
X114474170Y-77352994D01*
X114483261Y-77354951D01*
X114515071Y-77351186D01*
X114520963Y-77350839D01*
X114520963Y-77350836D01*
X114525030Y-77350500D01*
X114529115Y-77350500D01*
X114533141Y-77349830D01*
X114533152Y-77349829D01*
X114547119Y-77347504D01*
X114551726Y-77346848D01*
X114574689Y-77344130D01*
X114591012Y-77342198D01*
X114591013Y-77342198D01*
X114599138Y-77341236D01*
X114606122Y-77337882D01*
X114607454Y-77337461D01*
X114615103Y-77336188D01*
X114657160Y-77313495D01*
X114661283Y-77311395D01*
X114698717Y-77293420D01*
X114698721Y-77293418D01*
X114704326Y-77290726D01*
X114708274Y-77287408D01*
X114709782Y-77285900D01*
X114711071Y-77284718D01*
X114712097Y-77283852D01*
X114717794Y-77280778D01*
X114723345Y-77274773D01*
X114723350Y-77274769D01*
X114751809Y-77243982D01*
X114754503Y-77241179D01*
X116116186Y-75879496D01*
X116170703Y-75851719D01*
X116186190Y-75850500D01*
X192813810Y-75850500D01*
X192872001Y-75869407D01*
X192883814Y-75879496D01*
X193828001Y-76823683D01*
X193855778Y-76878200D01*
X193856150Y-76906606D01*
X193844758Y-76993138D01*
X193845413Y-76999071D01*
X193845413Y-76999075D01*
X193854477Y-77081170D01*
X193862035Y-77149633D01*
X193869341Y-77169598D01*
X193913668Y-77290726D01*
X193916143Y-77297490D01*
X193919472Y-77302444D01*
X194000629Y-77423219D01*
X194000632Y-77423223D01*
X194003958Y-77428172D01*
X194008369Y-77432186D01*
X194008371Y-77432188D01*
X194087894Y-77504548D01*
X194120410Y-77534135D01*
X194161671Y-77556538D01*
X194253530Y-77606414D01*
X194253532Y-77606415D01*
X194258776Y-77609262D01*
X194313689Y-77623668D01*
X194405300Y-77647702D01*
X194405304Y-77647702D01*
X194411069Y-77649215D01*
X194417030Y-77649309D01*
X194417033Y-77649309D01*
X194489782Y-77650451D01*
X194568495Y-77651688D01*
X194585899Y-77647702D01*
X194716149Y-77617871D01*
X194716151Y-77617870D01*
X194721968Y-77616538D01*
X194727299Y-77613857D01*
X194857299Y-77548474D01*
X194857301Y-77548473D01*
X194862625Y-77545795D01*
X194876277Y-77534135D01*
X194977810Y-77447418D01*
X194977811Y-77447417D01*
X194982348Y-77443542D01*
X195048964Y-77350836D01*
X195070740Y-77320532D01*
X195070741Y-77320530D01*
X195074224Y-77315683D01*
X195085687Y-77287170D01*
X195130726Y-77175131D01*
X195130727Y-77175129D01*
X195132950Y-77169598D01*
X195134994Y-77155240D01*
X195154678Y-77016929D01*
X195154678Y-77016925D01*
X195155134Y-77013723D01*
X195155278Y-77000000D01*
X195139582Y-76870296D01*
X195137080Y-76849616D01*
X195137079Y-76849613D01*
X195136363Y-76843694D01*
X195109996Y-76773914D01*
X195082820Y-76701996D01*
X195080710Y-76696412D01*
X194991531Y-76566657D01*
X194987078Y-76562690D01*
X194987075Y-76562686D01*
X194916717Y-76500000D01*
X194873976Y-76461919D01*
X194846589Y-76447418D01*
X194740105Y-76391037D01*
X194740102Y-76391036D01*
X194734831Y-76388245D01*
X194640461Y-76364541D01*
X194587918Y-76351343D01*
X194587915Y-76351343D01*
X194582128Y-76349889D01*
X194502564Y-76349473D01*
X194430650Y-76349096D01*
X194430648Y-76349096D01*
X194424684Y-76349065D01*
X194418884Y-76350457D01*
X194418879Y-76350458D01*
X194414136Y-76351597D01*
X194353139Y-76346798D01*
X194321019Y-76325337D01*
X193281745Y-75286063D01*
X193268580Y-75269760D01*
X193267267Y-75267726D01*
X193267264Y-75267722D01*
X193262825Y-75260848D01*
X193237668Y-75241015D01*
X193233263Y-75237101D01*
X193233262Y-75237102D01*
X193230131Y-75234449D01*
X193227254Y-75231572D01*
X193212399Y-75220956D01*
X193208681Y-75218165D01*
X193205726Y-75215835D01*
X193171189Y-75188608D01*
X193163882Y-75186042D01*
X193162637Y-75185395D01*
X193156331Y-75180889D01*
X193112223Y-75167698D01*
X193110585Y-75167208D01*
X193106149Y-75165767D01*
X193066967Y-75152007D01*
X193066964Y-75152006D01*
X193061094Y-75149945D01*
X193055956Y-75149500D01*
X193053818Y-75149500D01*
X193052099Y-75149426D01*
X193050738Y-75149311D01*
X193044536Y-75147456D01*
X193036365Y-75147777D01*
X192994446Y-75149424D01*
X192990559Y-75149500D01*
X116047948Y-75149500D01*
X116027112Y-75147282D01*
X116025830Y-75147006D01*
X116016739Y-75145049D01*
X115985580Y-75148737D01*
X115984929Y-75148814D01*
X115979037Y-75149161D01*
X115979037Y-75149164D01*
X115974970Y-75149500D01*
X115970885Y-75149500D01*
X115966859Y-75150170D01*
X115966848Y-75150171D01*
X115952881Y-75152496D01*
X115948269Y-75153153D01*
X115900861Y-75158764D01*
X115893881Y-75162115D01*
X115892540Y-75162540D01*
X115884897Y-75163812D01*
X115842850Y-75186500D01*
X115838727Y-75188600D01*
X115832594Y-75191545D01*
X115801293Y-75206575D01*
X115801291Y-75206576D01*
X115795673Y-75209274D01*
X115791726Y-75212592D01*
X115790220Y-75214098D01*
X115788931Y-75215280D01*
X115787902Y-75216149D01*
X115782206Y-75219222D01*
X115776655Y-75225227D01*
X115776650Y-75225231D01*
X115748191Y-75256018D01*
X115745497Y-75258821D01*
X114383814Y-76620504D01*
X114329297Y-76648281D01*
X114313810Y-76649500D01*
X114100554Y-76649500D01*
X114042363Y-76630593D01*
X114018966Y-76606574D01*
X113994915Y-76571579D01*
X113994910Y-76571573D01*
X113991531Y-76566657D01*
X113987078Y-76562690D01*
X113987075Y-76562686D01*
X113916717Y-76500000D01*
X113873976Y-76461919D01*
X113846589Y-76447418D01*
X113740105Y-76391037D01*
X113740102Y-76391036D01*
X113734831Y-76388245D01*
X113640461Y-76364541D01*
X113587918Y-76351343D01*
X113587915Y-76351343D01*
X113582128Y-76349889D01*
X113502564Y-76349473D01*
X113430650Y-76349096D01*
X113430648Y-76349096D01*
X113424684Y-76349065D01*
X113271588Y-76385820D01*
X113231688Y-76406414D01*
X113136985Y-76455293D01*
X113136983Y-76455295D01*
X113131679Y-76458032D01*
X113013034Y-76561533D01*
X112922501Y-76690348D01*
X112865309Y-76837039D01*
X112864531Y-76842950D01*
X112864530Y-76842953D01*
X112860390Y-76874401D01*
X112844758Y-76993138D01*
X112350500Y-76993138D01*
X112350500Y-76686190D01*
X112369407Y-76627999D01*
X112379496Y-76616186D01*
X113116186Y-75879496D01*
X113170703Y-75851719D01*
X113186190Y-75850500D01*
X113399014Y-75850500D01*
X113457205Y-75869407D01*
X113481184Y-75894281D01*
X113503958Y-75928172D01*
X113508369Y-75932186D01*
X113508371Y-75932188D01*
X113615995Y-76030118D01*
X113620410Y-76034135D01*
X113641885Y-76045795D01*
X113753530Y-76106414D01*
X113753532Y-76106415D01*
X113758776Y-76109262D01*
X113836697Y-76129704D01*
X113905300Y-76147702D01*
X113905304Y-76147702D01*
X113911069Y-76149215D01*
X113917030Y-76149309D01*
X113917033Y-76149309D01*
X113989782Y-76150451D01*
X114068495Y-76151688D01*
X114074311Y-76150356D01*
X114216149Y-76117871D01*
X114216151Y-76117870D01*
X114221968Y-76116538D01*
X114227299Y-76113857D01*
X114357299Y-76048474D01*
X114357301Y-76048473D01*
X114362625Y-76045795D01*
X114376277Y-76034135D01*
X114477810Y-75947418D01*
X114477811Y-75947417D01*
X114482348Y-75943542D01*
X114548330Y-75851719D01*
X114570740Y-75820532D01*
X114570741Y-75820530D01*
X114574224Y-75815683D01*
X114578144Y-75805933D01*
X114630726Y-75675131D01*
X114630727Y-75675129D01*
X114632950Y-75669598D01*
X114634492Y-75658767D01*
X114654678Y-75516929D01*
X114654678Y-75516925D01*
X114655134Y-75513723D01*
X114655278Y-75500000D01*
X114641292Y-75384427D01*
X114637080Y-75349616D01*
X114637079Y-75349613D01*
X114636363Y-75343694D01*
X114603774Y-75257448D01*
X114582820Y-75201996D01*
X114580710Y-75196412D01*
X114512832Y-75097650D01*
X114494912Y-75071576D01*
X114494911Y-75071575D01*
X114491531Y-75066657D01*
X114487078Y-75062690D01*
X114487075Y-75062686D01*
X114410151Y-74994150D01*
X114373976Y-74961919D01*
X114361462Y-74955293D01*
X114240105Y-74891037D01*
X114240102Y-74891036D01*
X114234831Y-74888245D01*
X114127518Y-74861290D01*
X114087918Y-74851343D01*
X114087915Y-74851343D01*
X114082128Y-74849889D01*
X114002564Y-74849473D01*
X113930650Y-74849096D01*
X113930648Y-74849096D01*
X113924684Y-74849065D01*
X113771588Y-74885820D01*
X113731310Y-74906609D01*
X113636985Y-74955293D01*
X113636983Y-74955295D01*
X113631679Y-74958032D01*
X113513034Y-75061533D01*
X113491012Y-75092868D01*
X113480781Y-75107425D01*
X113431852Y-75144162D01*
X113399784Y-75149500D01*
X113047953Y-75149500D01*
X113027117Y-75147282D01*
X113025782Y-75146995D01*
X113024739Y-75146770D01*
X113024738Y-75146770D01*
X113016740Y-75145048D01*
X112985572Y-75148737D01*
X112984921Y-75148814D01*
X112979043Y-75149161D01*
X112979043Y-75149163D01*
X112974965Y-75149500D01*
X112970885Y-75149500D01*
X112966862Y-75150170D01*
X112966858Y-75150170D01*
X112960239Y-75151272D01*
X112952904Y-75152493D01*
X112948300Y-75153149D01*
X112900862Y-75158763D01*
X112893877Y-75162118D01*
X112892543Y-75162540D01*
X112884897Y-75163812D01*
X112842859Y-75186495D01*
X112838733Y-75188597D01*
X112795674Y-75209273D01*
X112791726Y-75212592D01*
X112790221Y-75214097D01*
X112788930Y-75215281D01*
X112787902Y-75216148D01*
X112782206Y-75219222D01*
X112776655Y-75225227D01*
X112776650Y-75225231D01*
X112748191Y-75256018D01*
X112745497Y-75258821D01*
X111786063Y-76218255D01*
X111769760Y-76231420D01*
X111767726Y-76232733D01*
X111767722Y-76232736D01*
X111760848Y-76237175D01*
X111741015Y-76262332D01*
X111737101Y-76266737D01*
X111737102Y-76266738D01*
X111734449Y-76269869D01*
X111731572Y-76272746D01*
X111720956Y-76287601D01*
X111718170Y-76291312D01*
X111688608Y-76328811D01*
X111686042Y-76336118D01*
X111685395Y-76337363D01*
X111680889Y-76343669D01*
X111677304Y-76355657D01*
X111667208Y-76389415D01*
X111665767Y-76393851D01*
X111653715Y-76428172D01*
X111649945Y-76438906D01*
X111649500Y-76444044D01*
X111649500Y-76446182D01*
X111649426Y-76447901D01*
X111649311Y-76449262D01*
X111647456Y-76455464D01*
X111647777Y-76463635D01*
X111649424Y-76505554D01*
X111649500Y-76509441D01*
X111649500Y-78050500D01*
X111630593Y-78108691D01*
X111581093Y-78144655D01*
X111550500Y-78149500D01*
X97600554Y-78149500D01*
X97542363Y-78130593D01*
X97518966Y-78106574D01*
X97494915Y-78071579D01*
X97494910Y-78071573D01*
X97491531Y-78066657D01*
X97487078Y-78062690D01*
X97487075Y-78062686D01*
X97419557Y-78002531D01*
X97373976Y-77961919D01*
X97361462Y-77955293D01*
X97240105Y-77891037D01*
X97240102Y-77891036D01*
X97234831Y-77888245D01*
X97158479Y-77869067D01*
X97087918Y-77851343D01*
X97087915Y-77851343D01*
X97082128Y-77849889D01*
X97002564Y-77849473D01*
X96930650Y-77849096D01*
X96930648Y-77849096D01*
X96924684Y-77849065D01*
X96771588Y-77885820D01*
X96735842Y-77904270D01*
X96636985Y-77955293D01*
X96636983Y-77955295D01*
X96631679Y-77958032D01*
X96513034Y-78061533D01*
X96509603Y-78066415D01*
X96509602Y-78066416D01*
X96480781Y-78107425D01*
X96431852Y-78144162D01*
X96399784Y-78149500D01*
X75600554Y-78149500D01*
X75542363Y-78130593D01*
X75518966Y-78106574D01*
X75494915Y-78071579D01*
X75494910Y-78071573D01*
X75491531Y-78066657D01*
X75487078Y-78062690D01*
X75487075Y-78062686D01*
X75419557Y-78002531D01*
X75373976Y-77961919D01*
X75361462Y-77955293D01*
X75240105Y-77891037D01*
X75240102Y-77891036D01*
X75234831Y-77888245D01*
X75158479Y-77869067D01*
X75087918Y-77851343D01*
X75087915Y-77851343D01*
X75082128Y-77849889D01*
X75002564Y-77849473D01*
X74930650Y-77849096D01*
X74930648Y-77849096D01*
X74924684Y-77849065D01*
X74771588Y-77885820D01*
X74735842Y-77904270D01*
X74636985Y-77955293D01*
X74636983Y-77955295D01*
X74631679Y-77958032D01*
X74513034Y-78061533D01*
X74509603Y-78066415D01*
X74509602Y-78066416D01*
X74480781Y-78107425D01*
X74431852Y-78144162D01*
X74399784Y-78149500D01*
X53600554Y-78149500D01*
X53542363Y-78130593D01*
X53518966Y-78106574D01*
X53494915Y-78071579D01*
X53494910Y-78071573D01*
X53491531Y-78066657D01*
X53487078Y-78062690D01*
X53487075Y-78062686D01*
X53419557Y-78002531D01*
X53373976Y-77961919D01*
X53361462Y-77955293D01*
X53240105Y-77891037D01*
X53240102Y-77891036D01*
X53234831Y-77888245D01*
X53158479Y-77869067D01*
X53087918Y-77851343D01*
X53087915Y-77851343D01*
X53082128Y-77849889D01*
X53002564Y-77849473D01*
X52930650Y-77849096D01*
X52930648Y-77849096D01*
X52924684Y-77849065D01*
X52771588Y-77885820D01*
X52735842Y-77904270D01*
X52636985Y-77955293D01*
X52636983Y-77955295D01*
X52631679Y-77958032D01*
X52513034Y-78061533D01*
X52509603Y-78066415D01*
X52509602Y-78066416D01*
X52480781Y-78107425D01*
X52431852Y-78144162D01*
X52399784Y-78149500D01*
X31600554Y-78149500D01*
X31542363Y-78130593D01*
X31518966Y-78106574D01*
X31494915Y-78071579D01*
X31494910Y-78071573D01*
X31491531Y-78066657D01*
X31487078Y-78062690D01*
X31487075Y-78062686D01*
X31419557Y-78002531D01*
X31373976Y-77961919D01*
X31361462Y-77955293D01*
X31240105Y-77891037D01*
X31240102Y-77891036D01*
X31234831Y-77888245D01*
X31158479Y-77869067D01*
X31087918Y-77851343D01*
X31087915Y-77851343D01*
X31082128Y-77849889D01*
X31002564Y-77849473D01*
X30930650Y-77849096D01*
X30930648Y-77849096D01*
X30924684Y-77849065D01*
X30771588Y-77885820D01*
X30735842Y-77904270D01*
X30636985Y-77955293D01*
X30636983Y-77955295D01*
X30631679Y-77958032D01*
X30513034Y-78061533D01*
X30422501Y-78190348D01*
X30365309Y-78337039D01*
X30364531Y-78342950D01*
X30364530Y-78342953D01*
X30363653Y-78349616D01*
X30344758Y-78493138D01*
X21404271Y-78493138D01*
X21394374Y-78483730D01*
X21387479Y-78476475D01*
X21156470Y-78207383D01*
X21150345Y-78199470D01*
X20947744Y-77908383D01*
X20942443Y-77899878D01*
X20914257Y-77849096D01*
X20770340Y-77589807D01*
X20765925Y-77580808D01*
X20753931Y-77552858D01*
X20626069Y-77254906D01*
X20622589Y-77245510D01*
X20621231Y-77241179D01*
X20544833Y-76997683D01*
X20516423Y-76907132D01*
X20513910Y-76897423D01*
X20442526Y-76550063D01*
X20441007Y-76540151D01*
X20405129Y-76187333D01*
X20404621Y-76177317D01*
X20404621Y-75822683D01*
X20405129Y-75812667D01*
X20408762Y-75776945D01*
X105391644Y-75776945D01*
X105392101Y-75780439D01*
X105393756Y-75793097D01*
X105394592Y-75805933D01*
X105394592Y-76183628D01*
X105393415Y-76198848D01*
X105392529Y-76204537D01*
X105391644Y-76276945D01*
X105392101Y-76280439D01*
X105393756Y-76293097D01*
X105394592Y-76305933D01*
X105394592Y-76750000D01*
X105414034Y-76847740D01*
X105469399Y-76930601D01*
X105552260Y-76985966D01*
X105650000Y-77005408D01*
X106139988Y-77005408D01*
X106141803Y-77005425D01*
X106207755Y-77006634D01*
X106279618Y-76997683D01*
X106417798Y-76960010D01*
X106484256Y-76931251D01*
X106487255Y-76929410D01*
X106487260Y-76929407D01*
X106603308Y-76858153D01*
X106606308Y-76856311D01*
X106662024Y-76810055D01*
X106758138Y-76703871D01*
X106794812Y-76649500D01*
X106796664Y-76646754D01*
X106796665Y-76646752D01*
X106798634Y-76643833D01*
X106861081Y-76514941D01*
X106883097Y-76445955D01*
X106885264Y-76433075D01*
X106913564Y-76378827D01*
X106968345Y-76351575D01*
X106982892Y-76350500D01*
X107399014Y-76350500D01*
X107457205Y-76369407D01*
X107481184Y-76394281D01*
X107503958Y-76428172D01*
X107508369Y-76432186D01*
X107508371Y-76432188D01*
X107615995Y-76530118D01*
X107620410Y-76534135D01*
X107640677Y-76545139D01*
X107753530Y-76606414D01*
X107753532Y-76606415D01*
X107758776Y-76609262D01*
X107830198Y-76627999D01*
X107905300Y-76647702D01*
X107905304Y-76647702D01*
X107911069Y-76649215D01*
X107917030Y-76649309D01*
X107917033Y-76649309D01*
X107989782Y-76650451D01*
X108068495Y-76651688D01*
X108074311Y-76650356D01*
X108216149Y-76617871D01*
X108216151Y-76617870D01*
X108221968Y-76616538D01*
X108227299Y-76613857D01*
X108357299Y-76548474D01*
X108357301Y-76548473D01*
X108362625Y-76545795D01*
X108369233Y-76540151D01*
X108477810Y-76447418D01*
X108477811Y-76447417D01*
X108482348Y-76443542D01*
X108548600Y-76351343D01*
X108570740Y-76320532D01*
X108570741Y-76320530D01*
X108574224Y-76315683D01*
X108578144Y-76305933D01*
X108630726Y-76175131D01*
X108630727Y-76175129D01*
X108632950Y-76169598D01*
X108635513Y-76151594D01*
X108654678Y-76016929D01*
X108654678Y-76016925D01*
X108655134Y-76013723D01*
X108655278Y-76000000D01*
X108641819Y-75888778D01*
X108637080Y-75849616D01*
X108637079Y-75849613D01*
X108636363Y-75843694D01*
X108611798Y-75778683D01*
X108582820Y-75701996D01*
X108580710Y-75696412D01*
X108496037Y-75573213D01*
X108494912Y-75571576D01*
X108494911Y-75571575D01*
X108491531Y-75566657D01*
X108487078Y-75562690D01*
X108487075Y-75562686D01*
X108405985Y-75490438D01*
X108373976Y-75461919D01*
X108360642Y-75454859D01*
X108240105Y-75391037D01*
X108240102Y-75391036D01*
X108234831Y-75388245D01*
X108119691Y-75359324D01*
X108087918Y-75351343D01*
X108087915Y-75351343D01*
X108082128Y-75349889D01*
X108002564Y-75349473D01*
X107930650Y-75349096D01*
X107930648Y-75349096D01*
X107924684Y-75349065D01*
X107771588Y-75385820D01*
X107743026Y-75400562D01*
X107636985Y-75455293D01*
X107636983Y-75455295D01*
X107631679Y-75458032D01*
X107513034Y-75561533D01*
X107509603Y-75566415D01*
X107509602Y-75566416D01*
X107505667Y-75572015D01*
X107481229Y-75606788D01*
X107480781Y-75607425D01*
X107431852Y-75644162D01*
X107399784Y-75649500D01*
X106984045Y-75649500D01*
X106925854Y-75630593D01*
X106889890Y-75581093D01*
X106887922Y-75573806D01*
X106887666Y-75572015D01*
X106867342Y-75502510D01*
X106808062Y-75372131D01*
X106769047Y-75311124D01*
X106766753Y-75308461D01*
X106766748Y-75308455D01*
X106690193Y-75219609D01*
X106675557Y-75202623D01*
X106620986Y-75155018D01*
X106615849Y-75151688D01*
X106540078Y-75102576D01*
X106500801Y-75077118D01*
X106458581Y-75057610D01*
X106438257Y-75048219D01*
X106438254Y-75048218D01*
X106435062Y-75046743D01*
X106431693Y-75045735D01*
X106431689Y-75045734D01*
X106301218Y-75006716D01*
X106297844Y-75005707D01*
X106294366Y-75005187D01*
X106294365Y-75005187D01*
X106242860Y-74997490D01*
X106226225Y-74995004D01*
X106222712Y-74994983D01*
X106222705Y-74994982D01*
X106086521Y-74994150D01*
X106086514Y-74994150D01*
X106083004Y-74994129D01*
X106080589Y-74994460D01*
X106076521Y-74994592D01*
X105650000Y-74994592D01*
X105552260Y-75014034D01*
X105522176Y-75034135D01*
X105481172Y-75061533D01*
X105469399Y-75069399D01*
X105414034Y-75152260D01*
X105394592Y-75250000D01*
X105394592Y-75683628D01*
X105393415Y-75698848D01*
X105392529Y-75704537D01*
X105391644Y-75776945D01*
X20408762Y-75776945D01*
X20441007Y-75459849D01*
X20442526Y-75449937D01*
X20513910Y-75102577D01*
X20516423Y-75092868D01*
X20575506Y-74904555D01*
X20622592Y-74754482D01*
X20626072Y-74745086D01*
X20626073Y-74745085D01*
X20765927Y-74419188D01*
X20770342Y-74410188D01*
X20782522Y-74388245D01*
X20942445Y-74100119D01*
X20947747Y-74091612D01*
X20965287Y-74066412D01*
X21150345Y-73800530D01*
X21156470Y-73792617D01*
X21387479Y-73523525D01*
X21394374Y-73516270D01*
X21418709Y-73493138D01*
X106344758Y-73493138D01*
X106345413Y-73499071D01*
X106345413Y-73499075D01*
X106355708Y-73592321D01*
X106362035Y-73649633D01*
X106366941Y-73663038D01*
X106409236Y-73778615D01*
X106416143Y-73797490D01*
X106419472Y-73802444D01*
X106500629Y-73923219D01*
X106500632Y-73923223D01*
X106503958Y-73928172D01*
X106508369Y-73932186D01*
X106508371Y-73932188D01*
X106615995Y-74030118D01*
X106620410Y-74034135D01*
X106663649Y-74057612D01*
X106753530Y-74106414D01*
X106753532Y-74106415D01*
X106758776Y-74109262D01*
X106838534Y-74130186D01*
X106905300Y-74147702D01*
X106905304Y-74147702D01*
X106911069Y-74149215D01*
X106917030Y-74149309D01*
X106917033Y-74149309D01*
X106989782Y-74150451D01*
X107068495Y-74151688D01*
X107086316Y-74147606D01*
X107147255Y-74153043D01*
X107178421Y-74174103D01*
X107718255Y-74713937D01*
X107731420Y-74730240D01*
X107732733Y-74732274D01*
X107732736Y-74732278D01*
X107737175Y-74739152D01*
X107762332Y-74758984D01*
X107766738Y-74762900D01*
X107766739Y-74762899D01*
X107769868Y-74765550D01*
X107772747Y-74768429D01*
X107776061Y-74770797D01*
X107776062Y-74770798D01*
X107787591Y-74779037D01*
X107791319Y-74781836D01*
X107804140Y-74791943D01*
X107828811Y-74811392D01*
X107836114Y-74813957D01*
X107837369Y-74814609D01*
X107843670Y-74819111D01*
X107881476Y-74830417D01*
X107889412Y-74832791D01*
X107893846Y-74834232D01*
X107933030Y-74847992D01*
X107933034Y-74847993D01*
X107938906Y-74850055D01*
X107944044Y-74850500D01*
X107946182Y-74850500D01*
X107947901Y-74850574D01*
X107949262Y-74850689D01*
X107955464Y-74852544D01*
X107963635Y-74852223D01*
X108005554Y-74850576D01*
X108009441Y-74850500D01*
X108952052Y-74850500D01*
X108972888Y-74852718D01*
X108974170Y-74852994D01*
X108983261Y-74854951D01*
X109015071Y-74851186D01*
X109020963Y-74850839D01*
X109020963Y-74850836D01*
X109025030Y-74850500D01*
X109029115Y-74850500D01*
X109033141Y-74849830D01*
X109033152Y-74849829D01*
X109047119Y-74847504D01*
X109051726Y-74846848D01*
X109078371Y-74843694D01*
X109091012Y-74842198D01*
X109091013Y-74842198D01*
X109099138Y-74841236D01*
X109106122Y-74837882D01*
X109107454Y-74837461D01*
X109115103Y-74836188D01*
X109157160Y-74813495D01*
X109161283Y-74811395D01*
X109198717Y-74793420D01*
X109198721Y-74793418D01*
X109204326Y-74790726D01*
X109208274Y-74787408D01*
X109209782Y-74785900D01*
X109211071Y-74784718D01*
X109212097Y-74783852D01*
X109217794Y-74780778D01*
X109229210Y-74768429D01*
X109251823Y-74743966D01*
X109254517Y-74741165D01*
X109616184Y-74379497D01*
X109670701Y-74351719D01*
X109686188Y-74350500D01*
X193313810Y-74350500D01*
X193372001Y-74369407D01*
X193383814Y-74379496D01*
X195828001Y-76823683D01*
X195855778Y-76878200D01*
X195856150Y-76906606D01*
X195844758Y-76993138D01*
X195845413Y-76999071D01*
X195845413Y-76999075D01*
X195854477Y-77081170D01*
X195862035Y-77149633D01*
X195869341Y-77169598D01*
X195913668Y-77290726D01*
X195916143Y-77297490D01*
X195919472Y-77302444D01*
X196000629Y-77423219D01*
X196000632Y-77423223D01*
X196003958Y-77428172D01*
X196008369Y-77432186D01*
X196008371Y-77432188D01*
X196087894Y-77504548D01*
X196120410Y-77534135D01*
X196161671Y-77556538D01*
X196253530Y-77606414D01*
X196253532Y-77606415D01*
X196258776Y-77609262D01*
X196313689Y-77623668D01*
X196405300Y-77647702D01*
X196405304Y-77647702D01*
X196411069Y-77649215D01*
X196417030Y-77649309D01*
X196417033Y-77649309D01*
X196489782Y-77650451D01*
X196568495Y-77651688D01*
X196585899Y-77647702D01*
X196716149Y-77617871D01*
X196716151Y-77617870D01*
X196721968Y-77616538D01*
X196727299Y-77613857D01*
X196857299Y-77548474D01*
X196857301Y-77548473D01*
X196862625Y-77545795D01*
X196946874Y-77473840D01*
X254891199Y-77473840D01*
X254891206Y-77473885D01*
X254896729Y-77480100D01*
X254945141Y-77512448D01*
X254953091Y-77516764D01*
X255138929Y-77596606D01*
X255147540Y-77599404D01*
X255344826Y-77644044D01*
X255353785Y-77645224D01*
X255555911Y-77653166D01*
X255564938Y-77652692D01*
X255765115Y-77623668D01*
X255773914Y-77621556D01*
X255965450Y-77556538D01*
X255973714Y-77552858D01*
X256101015Y-77481567D01*
X256109216Y-77472696D01*
X256104313Y-77463523D01*
X255511086Y-76870296D01*
X255499203Y-76864242D01*
X255494172Y-76865038D01*
X254897253Y-77461957D01*
X254891199Y-77473840D01*
X196946874Y-77473840D01*
X196982348Y-77443542D01*
X197019580Y-77391728D01*
X197068888Y-77355507D01*
X197099974Y-77350500D01*
X202452052Y-77350500D01*
X202472888Y-77352718D01*
X202474170Y-77352994D01*
X202483261Y-77354951D01*
X202515071Y-77351186D01*
X202520963Y-77350839D01*
X202520963Y-77350836D01*
X202525030Y-77350500D01*
X202529115Y-77350500D01*
X202533141Y-77349830D01*
X202533152Y-77349829D01*
X202547119Y-77347504D01*
X202551726Y-77346848D01*
X202574689Y-77344130D01*
X202591012Y-77342198D01*
X202591013Y-77342198D01*
X202599138Y-77341236D01*
X202606122Y-77337882D01*
X202607454Y-77337461D01*
X202615103Y-77336188D01*
X202657160Y-77313495D01*
X202661283Y-77311395D01*
X202698717Y-77293420D01*
X202698721Y-77293418D01*
X202704326Y-77290726D01*
X202708274Y-77287408D01*
X202709782Y-77285900D01*
X202711071Y-77284718D01*
X202712097Y-77283852D01*
X202717794Y-77280778D01*
X202723345Y-77274773D01*
X202723350Y-77274769D01*
X202751809Y-77243982D01*
X202754503Y-77241179D01*
X203521386Y-76474296D01*
X254345766Y-76474296D01*
X254358995Y-76676144D01*
X254360408Y-76685065D01*
X254410200Y-76881121D01*
X254413220Y-76889649D01*
X254497903Y-77073339D01*
X254502424Y-77081170D01*
X254517058Y-77101877D01*
X254527745Y-77109857D01*
X254528494Y-77109867D01*
X254534625Y-77106165D01*
X255129704Y-76511086D01*
X255134946Y-76500797D01*
X255864242Y-76500797D01*
X255865038Y-76505828D01*
X256462820Y-77103610D01*
X256473582Y-77109093D01*
X256481082Y-77101883D01*
X256552858Y-76973714D01*
X256556538Y-76965450D01*
X256621556Y-76773914D01*
X256623668Y-76765115D01*
X256652924Y-76563344D01*
X256653421Y-76557518D01*
X256654851Y-76502914D01*
X256654661Y-76497100D01*
X256636003Y-76294048D01*
X256634356Y-76285164D01*
X256579449Y-76090481D01*
X256576208Y-76082037D01*
X256486744Y-75900622D01*
X256483839Y-75895881D01*
X256473788Y-75888778D01*
X256472339Y-75888797D01*
X256467246Y-75891964D01*
X255870296Y-76488914D01*
X255864242Y-76500797D01*
X255134946Y-76500797D01*
X255135758Y-76499203D01*
X255134962Y-76494172D01*
X254535717Y-75894927D01*
X254525360Y-75889650D01*
X254517485Y-75897423D01*
X254435098Y-76054017D01*
X254431643Y-76062358D01*
X254371658Y-76255538D01*
X254369777Y-76264388D01*
X254346002Y-76465263D01*
X254345766Y-76474296D01*
X203521386Y-76474296D01*
X204616186Y-75379496D01*
X204670703Y-75351719D01*
X204686190Y-75350500D01*
X254828870Y-75350500D01*
X254887061Y-75369407D01*
X254923025Y-75418907D01*
X254923025Y-75480093D01*
X254903302Y-75514775D01*
X254891389Y-75528359D01*
X254896085Y-75536875D01*
X255488914Y-76129704D01*
X255500797Y-76135758D01*
X255505828Y-76134962D01*
X256102458Y-75538332D01*
X256108336Y-75526794D01*
X256098693Y-75516224D01*
X256073441Y-75460492D01*
X256085771Y-75400562D01*
X256130971Y-75359324D01*
X256171829Y-75350500D01*
X256813810Y-75350500D01*
X256872001Y-75369407D01*
X256883814Y-75379496D01*
X257541176Y-76036858D01*
X257568953Y-76091375D01*
X257565538Y-76136795D01*
X257516628Y-76290978D01*
X257516088Y-76295790D01*
X257516088Y-76295791D01*
X257496066Y-76474296D01*
X257494757Y-76485963D01*
X257500140Y-76550063D01*
X257510727Y-76676144D01*
X257511175Y-76681483D01*
X257512508Y-76686131D01*
X257512508Y-76686132D01*
X257563581Y-76864242D01*
X257565258Y-76870091D01*
X257567473Y-76874401D01*
X257652731Y-77040296D01*
X257652734Y-77040300D01*
X257654944Y-77044601D01*
X257776818Y-77198369D01*
X257780505Y-77201507D01*
X257780507Y-77201509D01*
X257922550Y-77322397D01*
X257922555Y-77322400D01*
X257926238Y-77325535D01*
X257930460Y-77327895D01*
X257930465Y-77327898D01*
X258040692Y-77389501D01*
X258097513Y-77421257D01*
X258151191Y-77438698D01*
X258279513Y-77480393D01*
X258279516Y-77480394D01*
X258284118Y-77481889D01*
X258478946Y-77505121D01*
X258483768Y-77504750D01*
X258483771Y-77504750D01*
X258669748Y-77490440D01*
X258669753Y-77490439D01*
X258674576Y-77490068D01*
X258863556Y-77437303D01*
X258867869Y-77435124D01*
X258867875Y-77435122D01*
X259034368Y-77351020D01*
X259034370Y-77351018D01*
X259038689Y-77348837D01*
X259051097Y-77339143D01*
X259189487Y-77231022D01*
X259189491Y-77231018D01*
X259193303Y-77228040D01*
X259218915Y-77198369D01*
X259318345Y-77083177D01*
X259318347Y-77083175D01*
X259321509Y-77079511D01*
X259325015Y-77073339D01*
X259416036Y-76913115D01*
X259416037Y-76913112D01*
X259418425Y-76908909D01*
X259420608Y-76902349D01*
X259478831Y-76727323D01*
X259478831Y-76727321D01*
X259480358Y-76722732D01*
X259484305Y-76691492D01*
X259499453Y-76571576D01*
X259504949Y-76528071D01*
X259505341Y-76500000D01*
X259504438Y-76490783D01*
X259494383Y-76388245D01*
X259486194Y-76304728D01*
X259429484Y-76116894D01*
X259374627Y-76013723D01*
X259339643Y-75947927D01*
X259339641Y-75947923D01*
X259337370Y-75943653D01*
X259328020Y-75932188D01*
X259216422Y-75795355D01*
X259216421Y-75795354D01*
X259213361Y-75791602D01*
X259101252Y-75698858D01*
X259065907Y-75669618D01*
X259065906Y-75669617D01*
X259062180Y-75666535D01*
X258889585Y-75573213D01*
X258702152Y-75515193D01*
X258697342Y-75514687D01*
X258697340Y-75514687D01*
X258511835Y-75495189D01*
X258511833Y-75495189D01*
X258507019Y-75494683D01*
X258442891Y-75500519D01*
X258316438Y-75512027D01*
X258316435Y-75512028D01*
X258311618Y-75512466D01*
X258306976Y-75513832D01*
X258306972Y-75513833D01*
X258193190Y-75547322D01*
X258133545Y-75564876D01*
X258072385Y-75563168D01*
X258035590Y-75539908D01*
X257515186Y-75019504D01*
X257487409Y-74964987D01*
X257496980Y-74904555D01*
X257540245Y-74861290D01*
X257585190Y-74850500D01*
X259313810Y-74850500D01*
X259372001Y-74869407D01*
X259383814Y-74879496D01*
X260541176Y-76036858D01*
X260568953Y-76091375D01*
X260565538Y-76136795D01*
X260516628Y-76290978D01*
X260516088Y-76295790D01*
X260516088Y-76295791D01*
X260496066Y-76474296D01*
X260494757Y-76485963D01*
X260500140Y-76550063D01*
X260510727Y-76676144D01*
X260511175Y-76681483D01*
X260512508Y-76686131D01*
X260512508Y-76686132D01*
X260563581Y-76864242D01*
X260565258Y-76870091D01*
X260567473Y-76874401D01*
X260652731Y-77040296D01*
X260652734Y-77040300D01*
X260654944Y-77044601D01*
X260776818Y-77198369D01*
X260780505Y-77201507D01*
X260780507Y-77201509D01*
X260922550Y-77322397D01*
X260922555Y-77322400D01*
X260926238Y-77325535D01*
X260930460Y-77327895D01*
X260930465Y-77327898D01*
X261040692Y-77389501D01*
X261097513Y-77421257D01*
X261151191Y-77438698D01*
X261279513Y-77480393D01*
X261279516Y-77480394D01*
X261284118Y-77481889D01*
X261478946Y-77505121D01*
X261483768Y-77504750D01*
X261483771Y-77504750D01*
X261669748Y-77490440D01*
X261669753Y-77490439D01*
X261674576Y-77490068D01*
X261863556Y-77437303D01*
X261867869Y-77435124D01*
X261867875Y-77435122D01*
X262034368Y-77351020D01*
X262034370Y-77351018D01*
X262038689Y-77348837D01*
X262051097Y-77339143D01*
X262189487Y-77231022D01*
X262189491Y-77231018D01*
X262193303Y-77228040D01*
X262218915Y-77198369D01*
X262318345Y-77083177D01*
X262318347Y-77083175D01*
X262321509Y-77079511D01*
X262325015Y-77073339D01*
X262416036Y-76913115D01*
X262416037Y-76913112D01*
X262418425Y-76908909D01*
X262420608Y-76902349D01*
X262478831Y-76727323D01*
X262478831Y-76727321D01*
X262480358Y-76722732D01*
X262484305Y-76691492D01*
X262499453Y-76571576D01*
X262504949Y-76528071D01*
X262505341Y-76500000D01*
X262504438Y-76490783D01*
X262494383Y-76388245D01*
X262486194Y-76304728D01*
X262429484Y-76116894D01*
X262374627Y-76013723D01*
X262339643Y-75947927D01*
X262339641Y-75947923D01*
X262337370Y-75943653D01*
X262328020Y-75932188D01*
X262216422Y-75795355D01*
X262216421Y-75795354D01*
X262213361Y-75791602D01*
X262101252Y-75698858D01*
X262065907Y-75669618D01*
X262065906Y-75669617D01*
X262062180Y-75666535D01*
X261889585Y-75573213D01*
X261702152Y-75515193D01*
X261697342Y-75514687D01*
X261697340Y-75514687D01*
X261511835Y-75495189D01*
X261511833Y-75495189D01*
X261507019Y-75494683D01*
X261442891Y-75500519D01*
X261316438Y-75512027D01*
X261316435Y-75512028D01*
X261311618Y-75512466D01*
X261306976Y-75513832D01*
X261306972Y-75513833D01*
X261193190Y-75547322D01*
X261133545Y-75564876D01*
X261072385Y-75563168D01*
X261035590Y-75539908D01*
X260015186Y-74519504D01*
X259987409Y-74464987D01*
X259996980Y-74404555D01*
X260040245Y-74361290D01*
X260085190Y-74350500D01*
X261813810Y-74350500D01*
X261872001Y-74369407D01*
X261883814Y-74379496D01*
X262720154Y-75215835D01*
X263541176Y-76036857D01*
X263568953Y-76091374D01*
X263565538Y-76136795D01*
X263516628Y-76290978D01*
X263516088Y-76295790D01*
X263516088Y-76295791D01*
X263496066Y-76474296D01*
X263494757Y-76485963D01*
X263500140Y-76550063D01*
X263510727Y-76676144D01*
X263511175Y-76681483D01*
X263512508Y-76686131D01*
X263512508Y-76686132D01*
X263563581Y-76864242D01*
X263565258Y-76870091D01*
X263567473Y-76874401D01*
X263652731Y-77040296D01*
X263652734Y-77040300D01*
X263654944Y-77044601D01*
X263776818Y-77198369D01*
X263780505Y-77201507D01*
X263780507Y-77201509D01*
X263922550Y-77322397D01*
X263922555Y-77322400D01*
X263926238Y-77325535D01*
X263930460Y-77327895D01*
X263930465Y-77327898D01*
X264040692Y-77389501D01*
X264097513Y-77421257D01*
X264151191Y-77438698D01*
X264279513Y-77480393D01*
X264279516Y-77480394D01*
X264284118Y-77481889D01*
X264478946Y-77505121D01*
X264483768Y-77504750D01*
X264483771Y-77504750D01*
X264669748Y-77490440D01*
X264669753Y-77490439D01*
X264674576Y-77490068D01*
X264863556Y-77437303D01*
X264867869Y-77435124D01*
X264867875Y-77435122D01*
X265034368Y-77351020D01*
X265034370Y-77351018D01*
X265038689Y-77348837D01*
X265051097Y-77339143D01*
X265189487Y-77231022D01*
X265189491Y-77231018D01*
X265193303Y-77228040D01*
X265218915Y-77198369D01*
X265318345Y-77083177D01*
X265318347Y-77083175D01*
X265321509Y-77079511D01*
X265325015Y-77073339D01*
X265416036Y-76913115D01*
X265416037Y-76913112D01*
X265418425Y-76908909D01*
X265420608Y-76902349D01*
X265478831Y-76727323D01*
X265478831Y-76727321D01*
X265480358Y-76722732D01*
X265484305Y-76691492D01*
X265499453Y-76571576D01*
X265504949Y-76528071D01*
X265505341Y-76500000D01*
X265504438Y-76490783D01*
X265503965Y-76485963D01*
X266494757Y-76485963D01*
X266500140Y-76550063D01*
X266510727Y-76676144D01*
X266511175Y-76681483D01*
X266512508Y-76686131D01*
X266512508Y-76686132D01*
X266563581Y-76864242D01*
X266565258Y-76870091D01*
X266567473Y-76874401D01*
X266652731Y-77040296D01*
X266652734Y-77040300D01*
X266654944Y-77044601D01*
X266776818Y-77198369D01*
X266780505Y-77201507D01*
X266780507Y-77201509D01*
X266922550Y-77322397D01*
X266922555Y-77322400D01*
X266926238Y-77325535D01*
X266930460Y-77327895D01*
X266930465Y-77327898D01*
X267040692Y-77389501D01*
X267097513Y-77421257D01*
X267151191Y-77438698D01*
X267279513Y-77480393D01*
X267279516Y-77480394D01*
X267284118Y-77481889D01*
X267478946Y-77505121D01*
X267483768Y-77504750D01*
X267483771Y-77504750D01*
X267669748Y-77490440D01*
X267669753Y-77490439D01*
X267674576Y-77490068D01*
X267863556Y-77437303D01*
X267867869Y-77435124D01*
X267867875Y-77435122D01*
X268034368Y-77351020D01*
X268034370Y-77351018D01*
X268038689Y-77348837D01*
X268051097Y-77339143D01*
X268189487Y-77231022D01*
X268189491Y-77231018D01*
X268193303Y-77228040D01*
X268218915Y-77198369D01*
X268318345Y-77083177D01*
X268318347Y-77083175D01*
X268321509Y-77079511D01*
X268325015Y-77073339D01*
X268416036Y-76913115D01*
X268416037Y-76913112D01*
X268418425Y-76908909D01*
X268420608Y-76902349D01*
X268478831Y-76727323D01*
X268478831Y-76727321D01*
X268480358Y-76722732D01*
X268484305Y-76691492D01*
X268499453Y-76571576D01*
X268504949Y-76528071D01*
X268505341Y-76500000D01*
X268504438Y-76490783D01*
X268494383Y-76388245D01*
X268486194Y-76304728D01*
X268429484Y-76116894D01*
X268374627Y-76013723D01*
X268339643Y-75947927D01*
X268339641Y-75947923D01*
X268337370Y-75943653D01*
X268328020Y-75932188D01*
X268216422Y-75795355D01*
X268216421Y-75795354D01*
X268213361Y-75791602D01*
X268101252Y-75698858D01*
X268065907Y-75669618D01*
X268065906Y-75669617D01*
X268062180Y-75666535D01*
X267889585Y-75573213D01*
X267702152Y-75515193D01*
X267697342Y-75514687D01*
X267697340Y-75514687D01*
X267511835Y-75495189D01*
X267511833Y-75495189D01*
X267507019Y-75494683D01*
X267442891Y-75500519D01*
X267316438Y-75512027D01*
X267316435Y-75512028D01*
X267311618Y-75512466D01*
X267306976Y-75513832D01*
X267306972Y-75513833D01*
X267128040Y-75566496D01*
X267128037Y-75566497D01*
X267123393Y-75567864D01*
X266949512Y-75658767D01*
X266945743Y-75661797D01*
X266945742Y-75661798D01*
X266936041Y-75669598D01*
X266796600Y-75781711D01*
X266772742Y-75810144D01*
X266673589Y-75928310D01*
X266673586Y-75928314D01*
X266670480Y-75932016D01*
X266575956Y-76103954D01*
X266574492Y-76108568D01*
X266574491Y-76108571D01*
X266533695Y-76237175D01*
X266516628Y-76290978D01*
X266516088Y-76295790D01*
X266516088Y-76295791D01*
X266496066Y-76474296D01*
X266494757Y-76485963D01*
X265503965Y-76485963D01*
X265494383Y-76388245D01*
X265486194Y-76304728D01*
X265429484Y-76116894D01*
X265374627Y-76013723D01*
X265339643Y-75947927D01*
X265339641Y-75947923D01*
X265337370Y-75943653D01*
X265328020Y-75932188D01*
X265216422Y-75795355D01*
X265216421Y-75795354D01*
X265213361Y-75791602D01*
X265101252Y-75698858D01*
X265065907Y-75669618D01*
X265065906Y-75669617D01*
X265062180Y-75666535D01*
X264889585Y-75573213D01*
X264702152Y-75515193D01*
X264697342Y-75514687D01*
X264697340Y-75514687D01*
X264511835Y-75495189D01*
X264511833Y-75495189D01*
X264507019Y-75494683D01*
X264442891Y-75500519D01*
X264316438Y-75512027D01*
X264316435Y-75512028D01*
X264311618Y-75512466D01*
X264306976Y-75513832D01*
X264306972Y-75513833D01*
X264193190Y-75547322D01*
X264133545Y-75564876D01*
X264072385Y-75563168D01*
X264035590Y-75539908D01*
X262281745Y-73786063D01*
X262268580Y-73769760D01*
X262267267Y-73767726D01*
X262267264Y-73767722D01*
X262262825Y-73760848D01*
X262237668Y-73741015D01*
X262233263Y-73737101D01*
X262233262Y-73737102D01*
X262230131Y-73734449D01*
X262227254Y-73731572D01*
X262212399Y-73720956D01*
X262208681Y-73718165D01*
X262205726Y-73715835D01*
X262171189Y-73688608D01*
X262163882Y-73686042D01*
X262162637Y-73685395D01*
X262156331Y-73680889D01*
X262112223Y-73667698D01*
X262110585Y-73667208D01*
X262106149Y-73665767D01*
X262066967Y-73652007D01*
X262066964Y-73652006D01*
X262061094Y-73649945D01*
X262055956Y-73649500D01*
X262053818Y-73649500D01*
X262052099Y-73649426D01*
X262050738Y-73649311D01*
X262044536Y-73647456D01*
X262036365Y-73647777D01*
X261994446Y-73649424D01*
X261990559Y-73649500D01*
X203547948Y-73649500D01*
X203527112Y-73647282D01*
X203525830Y-73647006D01*
X203516739Y-73645049D01*
X203485580Y-73648737D01*
X203484929Y-73648814D01*
X203479037Y-73649161D01*
X203479037Y-73649164D01*
X203474970Y-73649500D01*
X203470885Y-73649500D01*
X203466859Y-73650170D01*
X203466848Y-73650171D01*
X203452881Y-73652496D01*
X203448269Y-73653153D01*
X203400861Y-73658764D01*
X203393878Y-73662117D01*
X203392544Y-73662539D01*
X203384897Y-73663812D01*
X203377696Y-73667698D01*
X203377695Y-73667698D01*
X203342861Y-73686494D01*
X203338703Y-73688612D01*
X203301288Y-73706578D01*
X203301287Y-73706579D01*
X203295674Y-73709274D01*
X203291726Y-73712592D01*
X203290216Y-73714102D01*
X203288929Y-73715282D01*
X203287903Y-73716148D01*
X203282206Y-73719222D01*
X203276655Y-73725227D01*
X203276650Y-73725231D01*
X203248191Y-73756018D01*
X203245497Y-73758821D01*
X201383814Y-75620504D01*
X201329297Y-75648281D01*
X201313810Y-75649500D01*
X200529354Y-75649500D01*
X200471163Y-75630593D01*
X200435199Y-75581093D01*
X200435199Y-75519907D01*
X200474353Y-75468184D01*
X200485865Y-75460492D01*
X200530601Y-75430601D01*
X200585966Y-75347740D01*
X200605408Y-75250000D01*
X200605408Y-74816372D01*
X200606585Y-74801152D01*
X200607471Y-74795463D01*
X200608356Y-74723055D01*
X200606244Y-74706903D01*
X200605408Y-74694067D01*
X200605408Y-74316372D01*
X200606585Y-74301152D01*
X200607471Y-74295463D01*
X200608356Y-74223055D01*
X200606244Y-74206903D01*
X200605408Y-74194067D01*
X200605408Y-73750000D01*
X200585966Y-73652260D01*
X200530601Y-73569399D01*
X200447740Y-73514034D01*
X200350000Y-73494592D01*
X199860012Y-73494592D01*
X199858198Y-73494575D01*
X199857273Y-73494558D01*
X199792245Y-73493366D01*
X199720382Y-73502317D01*
X199582202Y-73539990D01*
X199515744Y-73568749D01*
X199512745Y-73570590D01*
X199512740Y-73570593D01*
X199443609Y-73613040D01*
X199393692Y-73643689D01*
X199337976Y-73689945D01*
X199302439Y-73729205D01*
X199245054Y-73792603D01*
X199241862Y-73796129D01*
X199201366Y-73856167D01*
X199147978Y-73966361D01*
X199105592Y-74010484D01*
X199045364Y-74021267D01*
X198988881Y-73993199D01*
X198281745Y-73286063D01*
X198268580Y-73269760D01*
X198267267Y-73267726D01*
X198267264Y-73267722D01*
X198262825Y-73260848D01*
X198237668Y-73241015D01*
X198233263Y-73237101D01*
X198233262Y-73237102D01*
X198230131Y-73234449D01*
X198227254Y-73231572D01*
X198212399Y-73220956D01*
X198208681Y-73218165D01*
X198177614Y-73193673D01*
X198177613Y-73193673D01*
X198171189Y-73188608D01*
X198163882Y-73186042D01*
X198162637Y-73185395D01*
X198156331Y-73180889D01*
X198124542Y-73171382D01*
X198110585Y-73167208D01*
X198106149Y-73165767D01*
X198075340Y-73154948D01*
X198026554Y-73117615D01*
X197994912Y-73071576D01*
X197994911Y-73071575D01*
X197991531Y-73066657D01*
X197987078Y-73062690D01*
X197987075Y-73062686D01*
X197919557Y-73002531D01*
X197873976Y-72961919D01*
X197861462Y-72955293D01*
X197740105Y-72891037D01*
X197740102Y-72891036D01*
X197734831Y-72888245D01*
X197658480Y-72869067D01*
X197587918Y-72851343D01*
X197587915Y-72851343D01*
X197582128Y-72849889D01*
X197502564Y-72849473D01*
X197430650Y-72849096D01*
X197430648Y-72849096D01*
X197424684Y-72849065D01*
X197271588Y-72885820D01*
X197199035Y-72923267D01*
X197136985Y-72955293D01*
X197136983Y-72955295D01*
X197131679Y-72958032D01*
X197013034Y-73061533D01*
X196922501Y-73190348D01*
X196865309Y-73337039D01*
X196864531Y-73342950D01*
X196864530Y-73342953D01*
X196864185Y-73345574D01*
X196844758Y-73493138D01*
X196845413Y-73499071D01*
X196845413Y-73499075D01*
X196857995Y-73613039D01*
X196845587Y-73672954D01*
X196800333Y-73714132D01*
X196739517Y-73720846D01*
X196689589Y-73693907D01*
X196281745Y-73286063D01*
X196268580Y-73269760D01*
X196267267Y-73267726D01*
X196267264Y-73267722D01*
X196262825Y-73260848D01*
X196237668Y-73241015D01*
X196233263Y-73237101D01*
X196233262Y-73237102D01*
X196230131Y-73234449D01*
X196227254Y-73231572D01*
X196212399Y-73220956D01*
X196208681Y-73218165D01*
X196177614Y-73193673D01*
X196177613Y-73193673D01*
X196171189Y-73188608D01*
X196163882Y-73186042D01*
X196162637Y-73185395D01*
X196156331Y-73180889D01*
X196124542Y-73171382D01*
X196110585Y-73167208D01*
X196106149Y-73165767D01*
X196066967Y-73152007D01*
X196066964Y-73152006D01*
X196061094Y-73149945D01*
X196055956Y-73149500D01*
X196053818Y-73149500D01*
X196052099Y-73149426D01*
X196050738Y-73149311D01*
X196044536Y-73147456D01*
X196036365Y-73147777D01*
X195994446Y-73149424D01*
X195990559Y-73149500D01*
X109100554Y-73149500D01*
X109042363Y-73130593D01*
X109018966Y-73106574D01*
X108994915Y-73071579D01*
X108994910Y-73071573D01*
X108991531Y-73066657D01*
X108987078Y-73062690D01*
X108987075Y-73062686D01*
X108919557Y-73002531D01*
X108873976Y-72961919D01*
X108861462Y-72955293D01*
X108740105Y-72891037D01*
X108740102Y-72891036D01*
X108734831Y-72888245D01*
X108658480Y-72869067D01*
X108587918Y-72851343D01*
X108587915Y-72851343D01*
X108582128Y-72849889D01*
X108502564Y-72849473D01*
X108430650Y-72849096D01*
X108430648Y-72849096D01*
X108424684Y-72849065D01*
X108271588Y-72885820D01*
X108199035Y-72923267D01*
X108136985Y-72955293D01*
X108136983Y-72955295D01*
X108131679Y-72958032D01*
X108013034Y-73061533D01*
X107922501Y-73190348D01*
X107865309Y-73337039D01*
X107864531Y-73342950D01*
X107864530Y-73342953D01*
X107847885Y-73469387D01*
X107835558Y-73495231D01*
X107838287Y-73497875D01*
X107849196Y-73533337D01*
X107857995Y-73613040D01*
X107845587Y-73672954D01*
X107800333Y-73714132D01*
X107739517Y-73720846D01*
X107689589Y-73693907D01*
X107671956Y-73676274D01*
X107644179Y-73621757D01*
X107643948Y-73592321D01*
X107652782Y-73530251D01*
X107664817Y-73505685D01*
X107662729Y-73503704D01*
X107651449Y-73468359D01*
X107636363Y-73343694D01*
X107580710Y-73196412D01*
X107491531Y-73066657D01*
X107487078Y-73062690D01*
X107487075Y-73062686D01*
X107419557Y-73002531D01*
X107373976Y-72961919D01*
X107361462Y-72955293D01*
X107240105Y-72891037D01*
X107240102Y-72891036D01*
X107234831Y-72888245D01*
X107158480Y-72869067D01*
X107087918Y-72851343D01*
X107087915Y-72851343D01*
X107082128Y-72849889D01*
X107002564Y-72849473D01*
X106930650Y-72849096D01*
X106930648Y-72849096D01*
X106924684Y-72849065D01*
X106771588Y-72885820D01*
X106699035Y-72923267D01*
X106636985Y-72955293D01*
X106636983Y-72955295D01*
X106631679Y-72958032D01*
X106513034Y-73061533D01*
X106422501Y-73190348D01*
X106365309Y-73337039D01*
X106364531Y-73342950D01*
X106364530Y-73342953D01*
X106364185Y-73345574D01*
X106344758Y-73493138D01*
X21418709Y-73493138D01*
X21651423Y-73271927D01*
X21659031Y-73265397D01*
X21939469Y-73048322D01*
X21947692Y-73042598D01*
X22248660Y-72855003D01*
X22257418Y-72850142D01*
X22257427Y-72850138D01*
X22471996Y-72744887D01*
X22575819Y-72693960D01*
X22585035Y-72690006D01*
X22917576Y-72566846D01*
X22927144Y-72563843D01*
X22950409Y-72557819D01*
X23270478Y-72474947D01*
X23280291Y-72472931D01*
X23559079Y-72430222D01*
X23630827Y-72419231D01*
X23640804Y-72418216D01*
X23965847Y-72401732D01*
X23986346Y-72402824D01*
X23992302Y-72403767D01*
X23992304Y-72403767D01*
X24000000Y-72404986D01*
X24007692Y-72403768D01*
X24008810Y-72403768D01*
X24012129Y-72403375D01*
X24215815Y-72387345D01*
X24215820Y-72387344D01*
X24219685Y-72387040D01*
X24316803Y-72363724D01*
X24430184Y-72336504D01*
X24430187Y-72336503D01*
X24433961Y-72335597D01*
X24437547Y-72334112D01*
X24437552Y-72334110D01*
X24633961Y-72252755D01*
X24633967Y-72252752D01*
X24637552Y-72251267D01*
X24640863Y-72249238D01*
X24640867Y-72249236D01*
X24713195Y-72204912D01*
X24825444Y-72136126D01*
X24957056Y-72023720D01*
X25013583Y-72000305D01*
X25021350Y-72000000D01*
X26000000Y-72000000D01*
X26978649Y-71999999D01*
X27036840Y-72018906D01*
X27042940Y-72023716D01*
X27174556Y-72136126D01*
X27286805Y-72204912D01*
X27359133Y-72249236D01*
X27359137Y-72249238D01*
X27362448Y-72251267D01*
X27366033Y-72252752D01*
X27366039Y-72252755D01*
X27562448Y-72334110D01*
X27562453Y-72334112D01*
X27566039Y-72335597D01*
X27569813Y-72336503D01*
X27569816Y-72336504D01*
X27683197Y-72363724D01*
X27780315Y-72387040D01*
X27784180Y-72387344D01*
X27784185Y-72387345D01*
X27987878Y-72403375D01*
X27991189Y-72403767D01*
X27992304Y-72403767D01*
X28000000Y-72404986D01*
X28023785Y-72401219D01*
X28039271Y-72400000D01*
X271960729Y-72400000D01*
X271976215Y-72401219D01*
X272000000Y-72404986D01*
X272007696Y-72403767D01*
X272008811Y-72403767D01*
X272012122Y-72403375D01*
X272215815Y-72387345D01*
X272215820Y-72387344D01*
X272219685Y-72387040D01*
X272316803Y-72363724D01*
X272430184Y-72336504D01*
X272430187Y-72336503D01*
X272433961Y-72335597D01*
X272437547Y-72334112D01*
X272437552Y-72334110D01*
X272633961Y-72252755D01*
X272633967Y-72252752D01*
X272637552Y-72251267D01*
X272640863Y-72249238D01*
X272640867Y-72249236D01*
X272713195Y-72204912D01*
X272825444Y-72136126D01*
X272957056Y-72023720D01*
X273013583Y-72000305D01*
X273021350Y-72000000D01*
X274978648Y-71999998D01*
X275036839Y-72018905D01*
G37*
%TD.AperFunction*%
%TD*%
M02*
